<?xml version="1.0" encoding="utf-8"?>
<!-- Generator: Adobe Illustrator 22.1.0, SVG Export Plug-In . SVG Version: 6.00 Build 0)  -->
<svg version="1.1" id="Layer_1" xmlns="http://www.w3.org/2000/svg" xmlns:xlink="http://www.w3.org/1999/xlink" x="0px" y="0px"
	 viewBox="0 0 28.5 34.4" style="enable-background:new 0 0 28.5 34.4;" xml:space="preserve">
<style type="text/css">
	.st0{fill:#F8C861;}
	.st1{fill:#FFFFFF;}
	.st2{fill:#146734;}
	.st3{fill:#D42D27;}
	.st4{fill:#FFCB4C;}
	.st5{fill:#8099CC;}
	.st6{fill:#253D8F;}
	.st7{fill-rule:evenodd;clip-rule:evenodd;fill:none;}
	.st8{clip-path:url(#SVGID_1_);fill:#F8BB15;}
	.st9{clip-path:url(#SVGID_2_);fill:#E94434;}
	.st10{clip-path:url(#SVGID_3_);fill:#32A852;}
	.st11{clip-path:url(#SVGID_4_);fill:#547DBE;}
</style>
<path class="st1" d="M19.4,5.5C20.6,4,21.5,2,21.2,0c-1.8,0.1-3.9,1.2-5.2,2.6C14.9,3.9,14,6,14.2,7.9C16.2,8.1,18.2,7,19.4,5.5
	 M23.8,18.3c0.1,5.2,4.7,6.9,4.7,7c0,0.1-0.7,2.5-2.4,4.9c-1.5,2.1-3,4.2-5.4,4.2c-2.3,0-3.1-1.4-5.8-1.4c-2.7,0-3.5,1.3-5.7,1.4
	c-2.3,0.1-4.1-2.3-5.5-4.4c-3-4.3-5.3-12.1-2.2-17.4C3,10.1,5.7,8.5,8.7,8.4c2.3,0,4.4,1.5,5.8,1.5c1.4,0,4-1.9,6.7-1.6
	c1.1,0,4.3,0.5,6.4,3.4C27.5,11.8,23.8,13.9,23.8,18.3"/>
</svg>
