<?xml version="1.0" encoding="utf-8"?>
<!-- Generator: Adobe Illustrator 22.1.0, SVG Export Plug-In . SVG Version: 6.00 Build 0)  -->
<svg version="1.1" id="Layer_1" xmlns="http://www.w3.org/2000/svg" xmlns:xlink="http://www.w3.org/1999/xlink" x="0px" y="0px"
	 viewBox="0 0 27.7 28.8" style="enable-background:new 0 0 27.7 28.8;" xml:space="preserve">
<style type="text/css">
	.st0{fill:#F8C861;}
	.st1{fill:#FFFFFF;}
	.st2{fill:#146734;}
	.st3{fill:#D42D27;}
	.st4{fill:#FFCB4C;}
	.st5{fill:#8099CC;}
	.st6{fill:#253D8F;}
	.st7{fill-rule:evenodd;clip-rule:evenodd;fill:none;}
	.st8{clip-path:url(#SVGID_1_);fill:#F8BB15;}
	.st9{clip-path:url(#SVGID_2_);fill:#E94434;}
	.st10{clip-path:url(#SVGID_3_);fill:#32A852;}
	.st11{clip-path:url(#SVGID_4_);fill:#547DBE;}
</style>
<g>
	<g>
		<g>
			<g>
				<g>
					<g>
						<g>
							<defs>
								<path id="SVGID_9_" d="M27.3,11.8l-13.2,0l0,5.6l7.6,0c-0.7,3.5-3.7,5.6-7.6,5.6c-4.6,0-8.4-3.8-8.4-8.5
									c0-4.7,3.7-8.5,8.4-8.5c2,0,3.8,0.7,5.2,1.9l4.1-4.2C21,1.4,17.8,0,14.2,0C6.3,0,0,6.4,0,14.4s6.3,14.4,14.2,14.4
									c7.1,0,13.5-5.2,13.5-14.4C27.7,13.5,27.5,12.6,27.3,11.8z"/>
							</defs>
							<clipPath id="SVGID_1_">
								<use xlink:href="#SVGID_9_"  style="overflow:visible;"/>
							</clipPath>
							<polygon class="st8" points="-1.3,22.9 -1.3,5.9 9.7,14.4 							"/>
						</g>
					</g>
				</g>
			</g>
		</g>
	</g>
	<g>
		<g>
			<g>
				<g>
					<g>
						<g>
							<defs>
								<path id="SVGID_11_" d="M27.3,11.8l-13.2,0l0,5.6l7.6,0c-0.7,3.5-3.7,5.6-7.6,5.6c-4.6,0-8.4-3.8-8.4-8.5
									c0-4.7,3.7-8.5,8.4-8.5c2,0,3.8,0.7,5.2,1.9l4.1-4.2C21,1.4,17.8,0,14.2,0C6.3,0,0,6.4,0,14.4s6.3,14.4,14.2,14.4
									c7.1,0,13.5-5.2,13.5-14.4C27.7,13.5,27.5,12.6,27.3,11.8z"/>
							</defs>
							<clipPath id="SVGID_2_">
								<use xlink:href="#SVGID_11_"  style="overflow:visible;"/>
							</clipPath>
							<polygon class="st9" points="-1.3,5.9 9.7,14.4 14.2,10.4 29.6,7.9 29.6,-1.3 -1.3,-1.3 							"/>
						</g>
					</g>
				</g>
			</g>
		</g>
	</g>
	<g>
		<g>
			<g>
				<g>
					<g>
						<g>
							<defs>
								<path id="SVGID_13_" d="M27.3,11.8l-13.2,0l0,5.6l7.6,0c-0.7,3.5-3.7,5.6-7.6,5.6c-4.6,0-8.4-3.8-8.4-8.5
									c0-4.7,3.7-8.5,8.4-8.5c2,0,3.8,0.7,5.2,1.9l4.1-4.2C21,1.4,17.8,0,14.2,0C6.3,0,0,6.4,0,14.4s6.3,14.4,14.2,14.4
									c7.1,0,13.5-5.2,13.5-14.4C27.7,13.5,27.5,12.6,27.3,11.8z"/>
							</defs>
							<clipPath id="SVGID_3_">
								<use xlink:href="#SVGID_13_"  style="overflow:visible;"/>
							</clipPath>
							<polygon class="st10" points="-1.3,22.9 18,7.9 23.1,8.5 29.6,-1.3 29.6,30.1 -1.3,30.1 							"/>
						</g>
					</g>
				</g>
			</g>
		</g>
	</g>
	<g>
		<g>
			<g>
				<g>
					<g>
						<g>
							<defs>
								<path id="SVGID_15_" d="M27.3,11.8l-13.2,0l0,5.6l7.6,0c-0.7,3.5-3.7,5.6-7.6,5.6c-4.6,0-8.4-3.8-8.4-8.5
									c0-4.7,3.7-8.5,8.4-8.5c2,0,3.8,0.7,5.2,1.9l4.1-4.2C21,1.4,17.8,0,14.2,0C6.3,0,0,6.4,0,14.4s6.3,14.4,14.2,14.4
									c7.1,0,13.5-5.2,13.5-14.4C27.7,13.5,27.5,12.6,27.3,11.8z"/>
							</defs>
							<clipPath id="SVGID_4_">
								<use xlink:href="#SVGID_15_"  style="overflow:visible;"/>
							</clipPath>
							<polygon class="st11" points="29.6,30.1 9.7,14.4 7.1,12.4 29.6,5.9 							"/>
						</g>
					</g>
				</g>
			</g>
		</g>
	</g>
</g>
</svg>
