<?xml version="1.0" encoding="utf-8"?>
<!-- Generator: Adobe Illustrator 22.1.0, SVG Export Plug-In . SVG Version: 6.00 Build 0)  -->
<svg version="1.1" id="Layer_1" xmlns="http://www.w3.org/2000/svg" xmlns:xlink="http://www.w3.org/1999/xlink" x="0px" y="0px"
	 viewBox="0 0 26.7 19.1" style="enable-background:new 0 0 26.7 19.1;" xml:space="preserve">
<style type="text/css">
	.st0{fill:#F8C861;}
	.st1{fill:#FFFFFF;}
	.st2{fill:#146734;}
	.st3{fill:#D42D27;}
	.st4{fill:#FFCB4C;}
	.st5{fill:#8099CC;}
	.st6{fill:#253D8F;}
	.st7{fill-rule:evenodd;clip-rule:evenodd;fill:none;}
	.st8{clip-path:url(#SVGID_1_);fill:#F8BB15;}
	.st9{clip-path:url(#SVGID_2_);fill:#E94434;}
	.st10{clip-path:url(#SVGID_3_);fill:#32A852;}
	.st11{clip-path:url(#SVGID_4_);fill:#547DBE;}
</style>
<g>
	<path class="st2" d="M26.7,16.2c0,1.6-1.3,2.9-3,2.9L3,19.1c-1.6,0-3-1.3-3-2.9L0,2.9C0,1.3,1.3,0,3,0l20.7,0c1.6,0,3,1.3,3,2.9
		L26.7,16.2z"/>
	<path class="st3" d="M23.7,0L11.1,0l0,19.1l12.6,0c1.6,0,3-1.3,3-2.9l0-13.3C26.7,1.3,25.3,0,23.7,0z"/>
	<path class="st4" d="M15,12.9l-2.2-2.2l-0.5,0.5l0.3,0.3l-0.3,0.4l1.8,1.2l-2.3,0l0-8.8c1,0.1,1.9,0.5,2.6,1.1l-2,0.7L12.7,7
		l2.2-0.7L14.9,6c0.1,0.1,0.2,0.3,0.3,0.4l-2.1,1.4l0.2,0.3l-0.2,0.3l2.3,1.1l-2.3,1.1l0.3,0.7l2.8-1.4C16.2,11.1,15.7,12.1,15,12.9
		z M10.4,14.7C9.7,14.6,9,14.3,8.4,14l1.9,0L10.4,14.7z M5.9,10l2.8,1.4l0.3-0.7L6.8,9.6l1.6-0.8l1,1l0.5-0.5L9,8.4l0,0L8.7,7.8
		L8.5,7.9L7.7,7.2l1.1,0.2l0.1-0.7L7.1,6.3c0.8-1,2-1.7,3.3-1.8l0,8.8l-2.3,0l1.8-1.2l-0.4-0.6l-2.2,1.5l0,0C6.5,12.2,6,11.1,5.9,10
		L5.9,10z M5.9,9.1C6,8.4,6.2,7.7,6.6,7.1l1.2,1.2L5.9,9.1z M11.8,14l1.9,0c-0.6,0.3-1.2,0.6-1.9,0.7V14z M14.1,8.1l1.5-1
		c0.4,0.6,0.6,1.4,0.7,2.1L14.1,8.1z M11.1,3.7c-3.3,0-5.9,2.6-5.9,5.9c0,3.3,2.7,5.9,5.9,5.9S17,12.8,17,9.6
		C17,6.3,14.4,3.7,11.1,3.7z"/>
	<path class="st3" d="M8.1,5.9l0,5.2c0,1.6,1.3,2.9,3,2.9s3-1.3,3-2.9l0-5.2L8.1,5.9z"/>
	<path class="st1" d="M8.9,6.6l0,4.4c0,1.2,1,2.2,2.2,2.2c1.2,0,2.2-1,2.2-2.2l0-4.4L8.9,6.6z"/>
	<rect x="9.6" y="8.8" class="st5" width="3" height="1.5"/>
	<rect x="10.4" y="8.1" class="st5" width="1.5" height="2.9"/>
	<path class="st6" d="M10.4,6.6l1.5,0l0,1.5h-1.5L10.4,6.6z M10.4,11h1.5l0,1.5l-1.5,0L10.4,11z M12.6,8.8l0.7,0l0,1.5l-0.7,0
		L12.6,8.8z M10.4,8.8l1.5,0l0,1.5l-1.5,0L10.4,8.8z M8.9,8.8l0.7,0l0,1.5l-0.7,0L8.9,8.8z"/>
	<rect x="0" y="0" class="st7" width="26.7" height="19.1"/>
</g>
</svg>
