<?xml version="1.0" encoding="utf-8"?>
<!-- Generator: Adobe Illustrator 22.1.0, SVG Export Plug-In . SVG Version: 6.00 Build 0)  -->
<svg version="1.1" id="Layer_1" xmlns="http://www.w3.org/2000/svg" xmlns:xlink="http://www.w3.org/1999/xlink" x="0px" y="0px"
	 viewBox="0 0 78.3 78.3" style="enable-background:new 0 0 78.3 78.3;" xml:space="preserve">
<style type="text/css">
	.st0{fill-rule:evenodd;clip-rule:evenodd;fill:#E94B35;}
	.st1{fill-rule:evenodd;clip-rule:evenodd;fill:#1AAF5D;}
	.st2{fill-rule:evenodd;clip-rule:evenodd;fill:#F2C500;}
	.st3{fill:#F2C500;}
	.st4{fill:#E94B35;}
	.st5{fill-rule:evenodd;clip-rule:evenodd;fill:#FFFFFF;}
	.st6{fill-rule:evenodd;clip-rule:evenodd;fill:#2C97DE;}
	.st7{fill:#273376;}
	.st8{fill:#FFFFFF;}
	.st9{fill:#D21D2C;}
	.st10{fill:#F8C861;}
</style>
<g>
	<path class="st7" d="M70.7,16c-4.6-6.2-10.9-11-18.3-13.7v22.9L70.7,16"/>
	<path class="st7" d="M26,25.2V2.3C18.6,4.9,12.2,9.7,7.6,16L26,25.2L26,25.2"/>
	<path class="st7" d="M26,53.1L7.6,62.3c4.6,6.2,11,11.1,18.4,13.7L26,53.1L26,53.1"/>
	<path class="st7" d="M52.4,76c7.4-2.7,13.8-7.5,18.3-13.7l-18.3-9.2V76"/>
	<path class="st8" d="M26,25.2L26,25.2L7.6,16c-1.3,1.8-2.5,3.7-3.5,5.6l8.5,4.2H3.9l-1.4-0.7c-0.1,0.3-0.2,0.5-0.3,0.8H26V25.2"/>
	<path class="st8" d="M52.4,25.9h4.3l15.5-7.8c-0.5-0.8-1-1.5-1.5-2.2l-18.3,9.2V25.9"/>
	<path class="st8" d="M74.3,52.4l1.4,0.7c0.1-0.2,0.2-0.5,0.3-0.7H52.4v0.8l18.3,9.2c1.3-1.8,2.5-3.7,3.5-5.7l-8.5-4.2H74.3"/>
	<path class="st8" d="M12.6,52.3H2.3c0.5,1.5,1.1,2.9,1.8,4.3L12.6,52.3L12.6,52.3"/>
	<path class="st8" d="M26,53.1v-0.8h-4.5L6.1,60c0.5,0.8,1,1.5,1.5,2.3L26,53.1L26,53.1"/>
	<path class="st8" d="M76,25.9c-0.5-1.5-1.1-2.9-1.8-4.3l-8.6,4.3H76"/>
	<path class="st8" d="M52.4,52.3H76c0.6-1.7,1.1-3.5,1.5-5.3H47.1v30.4c1.8-0.4,3.6-0.9,5.3-1.5V52.3"/>
	<path class="st8" d="M47.1,31.2h30.4c-0.4-1.8-0.9-3.6-1.5-5.3H65.6l0,0h-8.9l0,0h-4.3V2.3c-1.7-0.6-3.5-1.1-5.3-1.5V31.2"/>
	<path class="st8" d="M31.3,47H0.8c0.4,1.8,0.9,3.6,1.5,5.3h10.3l0.1,0h8.9l-0.1,0H26V76c1.7,0.6,3.5,1.1,5.3,1.5V47"/>
	<path class="st8" d="M31.3,31.2V0.8c-1.8,0.4-3.6,0.9-5.3,1.5v23.7H2.3c-0.6,1.7-1.1,3.5-1.5,5.3H31.3"/>
	<path class="st9" d="M47.1,47h30.4c0.5-2.6,0.8-5.2,0.8-7.9c0-2.7-0.3-5.4-0.8-7.9H47.1V0.8C44.5,0.3,41.9,0,39.1,0
		c-2.7,0-5.3,0.3-7.9,0.8v30.4H0.8C0.3,33.8,0,36.4,0,39.1c0,2.7,0.3,5.4,0.8,7.9h30.5v30.4c2.5,0.5,5.2,0.8,7.9,0.8
		c2.7,0,5.4-0.3,7.9-0.8V47"/>
	<path class="st9" d="M12.6,25.9l-8.5-4.2C3.6,22.8,3,24,2.6,25.2l1.4,0.7H12.6"/>
	<path class="st9" d="M56.7,25.9h8.9l0,0l8.6-4.3c-0.6-1.2-1.2-2.3-2-3.5L56.7,25.9L56.7,25.9"/>
	<path class="st9" d="M74.3,52.4h-8.7l8.5,4.2c0.6-1.2,1.1-2.3,1.6-3.6L74.3,52.4"/>
	<path class="st9" d="M21.5,52.3L21.5,52.3l-8.8,0l-0.1,0l-8.5,4.3c0.6,1.2,1.2,2.3,2,3.5L21.5,52.3"/>
</g>
</svg>
