<?xml version="1.0" encoding="utf-8"?>
<!-- Generator: Adobe Illustrator 22.1.0, SVG Export Plug-In . SVG Version: 6.00 Build 0)  -->
<svg version="1.1" id="Layer_1" xmlns="http://www.w3.org/2000/svg" xmlns:xlink="http://www.w3.org/1999/xlink" x="0px" y="0px"
	 viewBox="0 0 53.8 36.7" style="enable-background:new 0 0 53.8 36.7;" xml:space="preserve">
<style type="text/css">
	.st0{fill:#D3706D;}
	.st1{fill-rule:evenodd;clip-rule:evenodd;fill:#554199;}
	.st2{fill-rule:evenodd;clip-rule:evenodd;fill:#EC8571;}
	.st3{fill-rule:evenodd;clip-rule:evenodd;fill:#F7C9AD;}
	.st4{fill:#25215F;}
	.st5{fill:#BCC4C1;}
	.st6{fill:#DFE2E1;}
	.st7{fill:#F69A79;}
	.st8{fill:#E98367;}
	.st9{fill:#DC765E;}
	.st10{fill-rule:evenodd;clip-rule:evenodd;fill:#CD6666;}
	.st11{fill-rule:evenodd;clip-rule:evenodd;fill:#DC765E;}
	.st12{fill-rule:evenodd;clip-rule:evenodd;fill:#E44041;}
	.st13{fill:#F27768;}
	.st14{fill:#F3B3C8;}
	.st15{fill:#F4856C;}
	.st16{fill:#11131E;}
	.st17{fill:#F16647;}
	.st18{fill:#9E9ACB;}
	.st19{fill:#D36858;}
	.st20{fill:#371D14;}
	.st21{fill:#AE3492;}
	.st22{fill:#E87B24;}
	.st23{fill:#F59275;}
	.st24{fill:#902A89;}
	.st25{fill:#3B6094;}
	.st26{fill:#FFFFFF;}
	.st27{fill:#DC563D;}
	.st28{fill:#40638A;}
	.st29{fill:#EF5179;}
	.st30{fill:#191212;}
	.st31{fill:#B72331;}
	.st32{fill:#3A5173;}
	.st33{fill:#1E2731;}
	.st34{fill:#CD4231;}
	.st35{fill:#1B273D;}
	.st36{fill:#E9CE6B;}
	.st37{fill:none;stroke:#F8C861;stroke-miterlimit:10;}
	.st38{fill:#F8C861;}
	.st39{fill:#787878;}
</style>
<g>
	<g>
		<path class="st39" d="M51,33.4h-1.3l-2.3-0.5c0.9-0.3,1.5-1.2,1.5-2.3V2.5c0-1.4-1-2.5-2.2-2.5H7.1C5.9,0,4.9,1.1,4.9,2.5v28.1
			c0,1,0.6,1.9,1.4,2.3l-2.3,0.5H2.8C1.2,33.4,0,34,0,34.9v0.2c0,0.9,1.2,1.6,2.8,1.6H51c1.6,0,2.8-0.7,2.8-1.6v-0.2
			C53.8,34,52.6,33.4,51,33.4z M27,0.7h0.7c0.4,0,0.7,0.3,0.7,0.7S28,2,27.6,2H27c-0.4,0-0.7-0.3-0.7-0.7S26.6,0.7,27,0.7z
			 M5.9,29.7V2.5h41.7v27.2H5.9z M53,35.1c0,0.4-0.8,0.9-2.1,0.9H2.8c-1.3,0-2.1-0.5-2.1-0.9v-0.2c0-0.4,0.8-0.9,2.1-0.9H51
			c1.3,0,2.1,0.5,2.1,0.9V35.1z"/>
		<path class="st39" d="M32.6,34.6H21.2c-0.2,0-0.3,0.2-0.3,0.4s0.1,0.4,0.3,0.4h11.4c0.2,0,0.3-0.2,0.3-0.4S32.8,34.6,32.6,34.6z"
			/>
		<path class="st39" d="M27.1,1.7h0.3c0.2,0,0.4-0.2,0.4-0.4c0-0.2-0.2-0.4-0.4-0.4h-0.3c-0.2,0-0.4,0.2-0.4,0.4
			C26.8,1.5,26.9,1.7,27.1,1.7z"/>
	</g>
</g>
</svg>
