<?xml version="1.0" encoding="utf-8"?>
<!-- Generator: Adobe Illustrator 22.1.0, SVG Export Plug-In . SVG Version: 6.00 Build 0)  -->
<svg version="1.1" id="Layer_1" xmlns="http://www.w3.org/2000/svg" xmlns:xlink="http://www.w3.org/1999/xlink" x="0px" y="0px"
	 viewBox="0 0 42.9 36" style="enable-background:new 0 0 42.9 36;" xml:space="preserve">
<style type="text/css">
	.st0{fill:#D3706D;}
	.st1{fill-rule:evenodd;clip-rule:evenodd;fill:#554199;}
	.st2{fill-rule:evenodd;clip-rule:evenodd;fill:#EC8571;}
	.st3{fill-rule:evenodd;clip-rule:evenodd;fill:#F7C9AD;}
	.st4{fill:#25215F;}
	.st5{fill:#BCC4C1;}
	.st6{fill:#DFE2E1;}
	.st7{fill:#F69A79;}
	.st8{fill:#E98367;}
	.st9{fill:#DC765E;}
	.st10{fill-rule:evenodd;clip-rule:evenodd;fill:#CD6666;}
	.st11{fill-rule:evenodd;clip-rule:evenodd;fill:#DC765E;}
	.st12{fill-rule:evenodd;clip-rule:evenodd;fill:#E44041;}
	.st13{fill:#F27768;}
	.st14{fill:#F3B3C8;}
	.st15{fill:#F4856C;}
	.st16{fill:#11131E;}
	.st17{fill:#F16647;}
	.st18{fill:#9E9ACB;}
	.st19{fill:#D36858;}
	.st20{fill:#371D14;}
	.st21{fill:#AE3492;}
	.st22{fill:#E87B24;}
	.st23{fill:#F59275;}
	.st24{fill:#902A89;}
	.st25{fill:#3B6094;}
	.st26{fill:#FFFFFF;}
	.st27{fill:#DC563D;}
	.st28{fill:#40638A;}
	.st29{fill:#EF5179;}
	.st30{fill:#191212;}
	.st31{fill:#B72331;}
	.st32{fill:#3A5173;}
	.st33{fill:#1E2731;}
	.st34{fill:#CD4231;}
	.st35{fill:#1B273D;}
	.st36{fill:#E9CE6B;}
	.st37{fill:none;stroke:#F8C861;stroke-miterlimit:10;}
	.st38{fill:#F8C861;}
	.st39{fill:#787878;}
</style>
<g>
	<g>
		<path class="st38" d="M14,14c3.9,0,7-3.1,7-7c0-3.9-3.1-7-7-7c-3.9,0-7,3.1-7,7C7,10.9,10.2,14,14,14z"/>
		<path class="st38" d="M41.6,16.3c-0.1-0.6-0.5-1.4-1.3-2.1c-1.1-1-2.5-1.3-3-0.8l-0.2,0.2c-1.1-0.2-2.1-0.4-3.2-0.5
			c2.2-1.2,3.6-3.5,3.6-6.1c0-3.9-3.1-7-7-7c-3.9,0-7,3.1-7,7c0,2.3,1.1,4.4,2.9,5.7c-1,0-2,0.1-3,0.3c-1.4,0.2-2.7,0.5-4,1L14,14.5
			c0,0-6.7-0.7-9,0.1c-2.6,0.9-5.3,12.4-5,19c0.1,3.1,5,3.3,4.8,0.2c-0.2-4.2,0.1-8.6,1.3-12.6v9.1c0,1.8,1.3,3.3,3,3.3h6.3
			c1.6,0,2.3-1.3,3-3.3l3.3-11.8c0.3-0.1,0.6-0.2,0.9-0.3l-3.8,13.2c0,1.8,1.7,2.2,3.3,2.2h6c0.6,0,1.4-0.4,1.7-0.9l8.6-11.5
			c0.3,2-1.3,6.7-4.2,10.8c-1.4,1.9,2.7,4.9,4.8,1.2C40.3,31.1,45.2,21.3,41.6,16.3z"/>
	</g>
</g>
</svg>
