<?xml version="1.0" encoding="utf-8"?>
<!-- Generator: Adobe Illustrator 22.1.0, SVG Export Plug-In . SVG Version: 6.00 Build 0)  -->
<svg version="1.1" id="Layer_1" xmlns="http://www.w3.org/2000/svg" xmlns:xlink="http://www.w3.org/1999/xlink" x="0px" y="0px"
	 viewBox="0 0 43.9 36.7" style="enable-background:new 0 0 43.9 36.7;" xml:space="preserve">
<style type="text/css">
	.st0{fill:#D3706D;}
	.st1{fill-rule:evenodd;clip-rule:evenodd;fill:#554199;}
	.st2{fill-rule:evenodd;clip-rule:evenodd;fill:#EC8571;}
	.st3{fill-rule:evenodd;clip-rule:evenodd;fill:#F7C9AD;}
	.st4{fill:#25215F;}
	.st5{fill:#BCC4C1;}
	.st6{fill:#DFE2E1;}
	.st7{fill:#F69A79;}
	.st8{fill:#E98367;}
	.st9{fill:#DC765E;}
	.st10{fill-rule:evenodd;clip-rule:evenodd;fill:#CD6666;}
	.st11{fill-rule:evenodd;clip-rule:evenodd;fill:#DC765E;}
	.st12{fill-rule:evenodd;clip-rule:evenodd;fill:#E44041;}
	.st13{fill:#F27768;}
	.st14{fill:#F3B3C8;}
	.st15{fill:#F4856C;}
	.st16{fill:#11131E;}
	.st17{fill:#F16647;}
	.st18{fill:#9E9ACB;}
	.st19{fill:#D36858;}
	.st20{fill:#371D14;}
	.st21{fill:#AE3492;}
	.st22{fill:#E87B24;}
	.st23{fill:#F59275;}
	.st24{fill:#902A89;}
	.st25{fill:#3B6094;}
	.st26{fill:#FFFFFF;}
	.st27{fill:#DC563D;}
	.st28{fill:#40638A;}
	.st29{fill:#EF5179;}
	.st30{fill:#191212;}
	.st31{fill:#B72331;}
	.st32{fill:#3A5173;}
	.st33{fill:#1E2731;}
	.st34{fill:#CD4231;}
	.st35{fill:#1B273D;}
	.st36{fill:#E9CE6B;}
	.st37{fill:none;stroke:#F8C861;stroke-miterlimit:10;}
	.st38{fill:#F8C861;}
	.st39{fill:#787878;}
</style>
<g>
	<path class="st38" d="M37.4,31.2c-0.4,0.2-0.6,0.7-0.4,1.1l0.6,1.6l-2.7-1.4c-0.1-0.1-0.3-0.1-0.4-0.1c-0.1,0-0.2,0-0.2,0
		c-1.3,0.4-2.7,0.6-4.1,0.6c-6.6,0-11.9-4.1-11.9-9.2s5.3-9.2,11.9-9.2c6.6,0,11.9,4.1,11.9,9.2C42.1,26.8,40.4,29.4,37.4,31.2z
		 M14.1,25.6c-1.4-0.2-2.8-0.5-4-1c-0.3-0.1-0.5-0.1-0.8,0.1l-2.6,1.5l0.9-1.8c0.2-0.4,0.1-0.9-0.3-1.2c-3.5-2.3-5.5-5.7-5.5-9.4
		C1.8,7.2,8.2,1.8,16,1.8c6.3,0,11.8,3.5,13.6,8.4l0.4,2.6c-7.5,0.1-13.6,5-13.6,11c0,0.6,0.1,1.2,0.2,1.8L14.1,25.6z M43.9,23.9
		c0-5.6-5.3-10.3-12-10.9l-0.6-3.1C29.3,3.9,23.1,0,16,0C7.2,0,0,6.2,0,13.8c0,4.1,2,7.9,5.6,10.5l-1.9,3.8
		c-0.2,0.4-0.1,0.8,0.2,1.1c0.2,0.2,0.4,0.3,0.6,0.3c0.2,0,0.3,0,0.5-0.1l4.8-2.8c1.3,0.5,2.7,0.8,4.1,0.9l3.3,0.1
		c1.9,4.3,7,7.4,12.9,7.4c1.4,0,2.8-0.2,4.2-0.5l4.5,2.3c0.1,0.1,0.3,0.1,0.4,0.1c0.2,0,0.4-0.1,0.6-0.2c0.3-0.3,0.4-0.7,0.2-1
		L39,32.4C42.1,30.3,43.9,27.2,43.9,23.9z"/>
</g>
</svg>
