<?xml version="1.0" encoding="utf-8"?>
<!-- Generator: Adobe Illustrator 22.1.0, SVG Export Plug-In . SVG Version: 6.00 Build 0)  -->
<svg version="1.1" id="Layer_1" xmlns="http://www.w3.org/2000/svg" xmlns:xlink="http://www.w3.org/1999/xlink" x="0px" y="0px"
	 viewBox="0 0 86.9 11.2" style="enable-background:new 0 0 86.9 11.2;" xml:space="preserve">
<style type="text/css">
	.st0{fill:#D3706D;}
	.st1{fill-rule:evenodd;clip-rule:evenodd;fill:#554199;}
	.st2{fill-rule:evenodd;clip-rule:evenodd;fill:#EC8571;}
	.st3{fill-rule:evenodd;clip-rule:evenodd;fill:#F7C9AD;}
	.st4{fill:#25215F;}
	.st5{fill:#BCC4C1;}
	.st6{fill:#DFE2E1;}
	.st7{fill:#F69A79;}
	.st8{fill:#E98367;}
	.st9{fill:#DC765E;}
	.st10{fill-rule:evenodd;clip-rule:evenodd;fill:#CD6666;}
	.st11{fill-rule:evenodd;clip-rule:evenodd;fill:#DC765E;}
	.st12{fill-rule:evenodd;clip-rule:evenodd;fill:#E44041;}
	.st13{fill:#F27768;}
	.st14{fill:#F3B3C8;}
	.st15{fill:#F4856C;}
	.st16{fill:#11131E;}
	.st17{fill:#F16647;}
	.st18{fill:#9E9ACB;}
	.st19{fill:#D36858;}
	.st20{fill:#371D14;}
	.st21{fill:#AE3492;}
	.st22{fill:#E87B24;}
	.st23{fill:#F59275;}
	.st24{fill:#902A89;}
	.st25{fill:#3B6094;}
	.st26{fill:#FFFFFF;}
	.st27{fill:#DC563D;}
	.st28{fill:#40638A;}
	.st29{fill:#EF5179;}
	.st30{fill:#191212;}
	.st31{fill:#B72331;}
	.st32{fill:#3A5173;}
	.st33{fill:#1E2731;}
	.st34{fill:#CD4231;}
	.st35{fill:#1B273D;}
	.st36{fill:#E9CE6B;}
	.st37{fill:none;stroke:#F8C861;stroke-miterlimit:10;}
	.st38{fill:#F8C861;}
	.st39{fill:#787878;}
</style>
<g>
	<polygon class="st36" points="6.2,0 8.1,3.7 12.4,4.3 9.3,7.1 10,11.1 6.2,9.2 2.4,11.1 3.1,7.1 0,4.3 4.3,3.7 	"/>
	<polygon class="st36" points="25,0 26.9,3.7 31.2,4.3 28.1,7.1 28.8,11.2 25,9.3 21.2,11.2 21.9,7.1 18.8,4.3 23.1,3.7 	"/>
	<polygon class="st36" points="43.6,0 45.6,3.7 49.8,4.3 46.7,7.1 47.5,11.2 43.6,9.3 39.8,11.2 40.5,7.1 37.5,4.3 41.7,3.7 	"/>
	<polygon class="st36" points="62.4,0 64.3,3.7 68.6,4.3 65.5,7.1 66.2,11.2 62.4,9.3 58.6,11.2 59.3,7.1 56.2,4.3 60.5,3.7 	"/>
	<polygon class="st36" points="80.7,0 82.6,3.7 86.9,4.3 83.8,7.1 84.5,11.2 80.7,9.3 76.9,11.2 77.6,7.1 74.5,4.3 78.8,3.7 	"/>
</g>
</svg>
