<?xml version="1.0" encoding="utf-8"?>
<!-- Generator: Adobe Illustrator 22.1.0, SVG Export Plug-In . SVG Version: 6.00 Build 0)  -->
<svg version="1.1" id="Layer_1" xmlns="http://www.w3.org/2000/svg" xmlns:xlink="http://www.w3.org/1999/xlink" x="0px" y="0px"
	 viewBox="0 0 103.9 100.3" style="enable-background:new 0 0 103.9 100.3;" xml:space="preserve">
<style type="text/css">
	.st0{fill:#D3706D;}
	.st1{fill-rule:evenodd;clip-rule:evenodd;fill:#554199;}
	.st2{fill-rule:evenodd;clip-rule:evenodd;fill:#EC8571;}
	.st3{fill-rule:evenodd;clip-rule:evenodd;fill:#F7C9AD;}
	.st4{fill:#25215F;}
	.st5{fill:#BCC4C1;}
	.st6{fill:#DFE2E1;}
	.st7{fill:#F69A79;}
	.st8{fill:#E98367;}
	.st9{fill:#DC765E;}
	.st10{fill-rule:evenodd;clip-rule:evenodd;fill:#CD6666;}
	.st11{fill-rule:evenodd;clip-rule:evenodd;fill:#DC765E;}
	.st12{fill-rule:evenodd;clip-rule:evenodd;fill:#E44041;}
	.st13{fill:#F27768;}
	.st14{fill:#F3B3C8;}
	.st15{fill:#F4856C;}
	.st16{fill:#11131E;}
	.st17{fill:#F16647;}
	.st18{fill:#9E9ACB;}
	.st19{fill:#D36858;}
	.st20{fill:#371D14;}
	.st21{fill:#AE3492;}
	.st22{fill:#E87B24;}
	.st23{fill:#F59275;}
	.st24{fill:#902A89;}
	.st25{fill:#3B6094;}
	.st26{fill:#FFFFFF;}
	.st27{fill:#DC563D;}
	.st28{fill:#40638A;}
	.st29{fill:#EF5179;}
	.st30{fill:#191212;}
	.st31{fill:#B72331;}
	.st32{fill:#3A5173;}
	.st33{fill:#1E2731;}
	.st34{fill:#CD4231;}
	.st35{fill:#1B273D;}
	.st36{fill:#E9CE6B;}
	.st37{fill:none;stroke:#F8C861;stroke-miterlimit:10;}
	.st38{fill:#F8C861;}
	.st39{fill:#787878;}
</style>
<g>
	<path class="st14" d="M78.7,99.6c-0.1,0-0.3,0-0.4,0l-16.6-2.4L53.3,96L45,94.7l-8.3-1.2l-8.3-1.3l-8.3-1.3l-8.3-1.3l8.4,0.4
		l8.4,0.5L37,91l8.4,0.5l8.4,0.5l3.2,0.2l-14.1-4.9l-17.3-6.1L8.3,75.2c-2.7-1-4.1-3.9-3.2-6.7C5.9,66.3,7.9,65,10,65
		c0.3,0,0.5,0,0.8,0.1l0.3,0l4,0.6l-9.9-3.6C1.1,60.6-1,56.1,0.5,52c1.2-3.2,4.2-5.2,7.4-5.2c0.3,0,0.7,0,1,0.1l0.1,0l18.4,2.4
		L7.2,41.3l-0.1,0C3,39.6,0.9,34.9,2.6,30.7c1.3-3.2,4.3-5.2,7.6-5.2c0.4,0,0.8,0,1.2,0.1l20.1,3.1l2.9,0.4l-8.1-3.5l-20.6-9
		l-0.2-0.1c-3-1.3-4.3-4.7-3-7.7c1-2.2,3.1-3.5,5.3-3.5c0.4,0,0.9,0,1.3,0.1l21.2,4.8l21.2,4.9l5.6,1.3l-0.6-0.3l-8.8-3.9l-8.8-3.9
		l-8.8-3.9l-4.4-2l-2.2-1l-1.1-0.5C21.7,1,21.4,0.8,21,0.7c0.4,0.1,0.8,0.2,1.2,0.3l1.2,0.4l2.3,0.7l4.6,1.5l4.6,1.5l4.6,1.5
		c3.1,1,6.1,2,9.2,3.1l9.2,3.1L76,19l18.3,6.4c1.7,0.6,2.7,2.5,2.1,4.3c-0.5,1.4-1.8,2.3-3.2,2.3c-0.2,0-0.4,0-0.6,0l-0.2,0L71,28.3
		l-6.1-1.1l7.9,3.1l20.8,8.3c3.8,1.5,5.6,5.8,4.1,9.6c-1.1,2.9-3.9,4.7-6.8,4.7c-0.3,0-0.6,0-0.9-0.1l-0.2,0l-11.4-1.5l20.2,7.9l0,0
		c4.3,1.7,6.4,6.5,4.8,10.8c-1.3,3.3-4.4,5.4-7.8,5.4c-0.4,0-0.8,0-1.2-0.1l-19.2-2.7l12.4,4.9l0.2,0.1c3.5,1.4,5.2,5.3,3.8,8.8
		c-1,2.7-3.6,4.3-6.3,4.3c-0.4,0-0.9,0-1.3-0.1l-18.7-3.7l-4.5-0.9l1.9,0.8l16.9,7.2l0.2,0.1c1.5,0.6,2.2,2.3,1.5,3.8
		C80.9,99,79.8,99.6,78.7,99.6"/>
	<path class="st15" d="M83.7,18.4c0,0,1.7,1.7,9.6,12.2l-1.2,1.1c-0.5-0.4-4.8-3.9-11-10.7c0,0-2.7-2.6-0.4-3.7
		C82.1,16.6,83.7,18.4,83.7,18.4"/>
	<path class="st15" d="M92.1,31.4c0,0-0.1,1.2,1.2,2.2l0.9,1.8c0,0,0.5-0.5,0.6-1c0.1-0.5,0.9-1-1.9-4.3C93,30.1,91.9,31,92.1,31.4"
		/>
	<path class="st16" d="M90.4,25.5C90.1,25.4,75.6,25,72.6,19c0,0,1.6-2.4,5.1-1.8c3.5,0.6,10.6,4.6,11.7,4.8
		c0.4,0.1,1.5,0.3,2.2,0.6L90.4,25.5"/>
	<path class="st17" d="M76.7,81.5l-4.4,2.2c0.6,3.2,1.5,6.3,2,9.9l1.8-1.8C76,90.5,76.4,83.4,76.7,81.5"/>
	<path class="st16" d="M73.7,92.9c0.1,0.5-0.4,2.3,0.1,3.5c0.4,1,1.7,2.3,1.7,2.3c2.5,1.2,4.2,0.6,4.4-0.1c0.3-0.6-0.4-1.8-1.5-2.9
		c-1.1-1.1-1.7-3.2-1.7-3.2l-0.3-1c0-0.6-0.6-0.5-0.6-0.5c-0.4,0.1-0.8,0.1-1,0.1c0,0-0.4,0.1-0.2,1.1c0,0-0.5-1-0.8-1.4
		C73.6,90.7,73.2,91.4,73.7,92.9"/>
	<path class="st16" d="M64.6,93.4c-0.1,0.5,0.4,2.3-0.1,3.5c-0.4,1-1.7,2.3-1.7,2.3c-2.5,1.2-4.2,0.6-4.4-0.1
		c-0.3-0.6,0.4-1.8,1.5-2.9c1.1-1.1,1.7-3.2,1.7-3.2l0.3-1c0-0.6,0.6-0.5,0.6-0.5c0.4,0.1,0.8,0.1,1.1,0.1c0,0,0.4,0.1,0.2,1.1
		c0,0,0.5-1,0.8-1.4C64.7,91.1,65.1,91.8,64.6,93.4"/>
	<path class="st18" d="M62,41c0,0-1.2,9.8-0.5,51.2c0,0,1.2,1.1,3.8,0.4c0,0,2.6-21.8,3.8-38.2c0,0,2,22.1,3.8,38.5
		c0,0,2.1,0.7,4.1-0.5c0,0,1-35.4-0.3-51.4H62"/>
	<path class="st15" d="M72.7,16.3c-0.2-0.1-0.5-0.2-0.5-0.2c-1.3-2.6-1.1-8.2-1.1-8.2s-4.2,2.6-4.2,3.2c-0.1,2.4-0.4,4.6-0.8,5.4
		c0,0.1-0.2,0.2-0.4,0.3v5l7-1.1L72.7,16.3"/>
	<path class="st16" d="M64.2,16.6c0,0,0.7,0.1,2.1-0.9c0,0,0.8,5.5,3.1,5.5c0,0,2.5-2,2.6-5.5c0,0,0.8,0.8,1.9,0.9
		c0,0,0.4,6.1,0.2,6.8c-0.3,0.7-2.6,5-3.9,5.2c-1.3,0.3-5.2,0.7-5.2,0.6C64.8,29,64.2,16.6,64.2,16.6"/>
	<path class="st19" d="M71.8,15.4c-0.4-1.3-0.6-2.9-0.7-4.4l-3.6-0.7c-0.4,0.3-0.7,0.6-0.7,0.8c-0.1,0.9-0.1,1.8-0.2,2.6
		C67.6,14.6,69.9,16.4,71.8,15.4"/>
	<path class="st15" d="M72.9,6.9c0-1.4,0-2.5,0-2.5c-0.1-2.3-2-2.7-4-2.6c-1.9-0.1-3.8,0.4-4,2.6c0,0-0.1,1.1,0,2.5
		c-1.1-0.8-1.6,0.6-1.2,1.7c0.3,0.9,1.2,1,1.4,0.9c0,0.2,0.1,0.4,0.1,0.6c0.3,1.5,2.1,3.4,3.2,3.9c0,0,0.1,0.1,0.5,0.1
		c0.4,0,0.5-0.1,0.5-0.1c1-0.4,2.8-2.3,3.2-3.9c0-0.2,0.1-0.4,0.1-0.6c0.3,0,1.1,0,1.4-0.9C74.5,7.5,74,6.1,72.9,6.9"/>
	<path class="st20" d="M64.6,6.8c0,0,0.4,0.6,0.6,0.6c0.2,0,0.1-1.1,0.4-3.5c0,0,0.1-0.9,1.8-0.8c0,0,3.7,2.2,4.4,1.6
		c0,0,0.4,2.5,0.6,2.9C72.7,7.9,73,6.8,73,6.8s0.9-6.3-3.1-6.8C69.9,0,62.6-0.6,64.6,6.8"/>
	<path class="st16" d="M69.1,25.7c-4.3,0-4.2-9.2-4.2-9.2c-1.4,0.3-2.7,0.3-3.1,0.6c0,0-1.2,8-0.6,10.1c0.3,1,1.9,6.9,1.2,10.4
		c-0.4,1.9-0.7,3.2-0.8,4.3c0,0,4.2,1.5,8.3,1.5c3.5,0,6.9-1.4,7.1-1.5c-0.2-1.2-0.5-2.5-0.8-4.5c-0.5-3.6,1.4-9.2,1.5-10.3
		c0-4.9-1-9.9-1-9.9c-0.3-0.3-1.9-0.6-3.4-0.8C73.2,16.5,73.1,25.6,69.1,25.7"/>
	<path class="st20" d="M65.1,6.3c0,0,0.3,6.5,3.8,6.7c0,0,3.1,0,3.6-6.2l0.2,0.1c0,0,1,6.7-3.7,7.5c0,0-4.7-0.1-4-7.7L65.1,6.3"/>
	<path class="st20" d="M67.4,12.5c0,0-0.3-1.3,0-1.5c0.4-0.2,1.4,0,1.4-0.6c0,0-0.7-0.3-1.7,0c-0.9,0.3,0,2,0,2L67.4,12.5"/>
	<path class="st20" d="M70.2,12.5c0,0,0.3-1.3,0-1.5c-0.4-0.2-1.4,0-1.4-0.6c0,0,0.7-0.3,1.7,0c0.9,0.3,0,2,0,2L70.2,12.5"/>
	<path class="st15" d="M92.4,55.4H77.7c0.1,4.7,0.6,10.3,1.3,17.4c0,0,0,2.6,0.3,3.7c0,0,0.3,14.9,0.3,18.5l1.6,0.3
		c1-5.6,3.1-11.9,1.4-20.9c0,0,0.2-2.5,0.8-5.5c0.8-3.6,0.7-9.1,1.5-12.9l0.2,0l0.2,0c0.8,3.8,0.7,9.3,1.5,12.9
		c0.7,3,0.8,5.5,0.8,5.5c-1.7,9,0.4,15.3,1.4,20.9l1.6-0.3c-0.1-3.6,0.3-18.5,0.3-18.5c0.3-1.1,0.3-3.7,0.3-3.7
		C91.8,65.6,92.3,60,92.4,55.4"/>
	<path class="st21" d="M79.2,43.3c0,0-2.9,1.1-1.5,22.1c0,0,6.4,3.3,15,0c0,0,1.9-18.4-1.7-22.1H79.2"/>
	<path class="st22" d="M89.9,22.2c0.1-1.2,0-2.4,0.1-3.2c0.1-1.3,0.4-8.8-0.4-10.9c-0.7-2.1-2.8-2.6-2.8-2.6h-3.3
		c-3.3,0.4-3.5,3.8-3.4,5.2c0.4,6.7-0.3,7.5-0.3,7.5c-0.3,1.5-0.4,2.7-0.4,4H89.9"/>
	<path class="st15" d="M88.8,21.2c-0.3-0.1-0.4-0.1-0.4-0.1c-1.3-2.6-1.1-8.4-1.1-8.4S83,15.4,82.9,16c-0.1,2.4-0.5,4.7-0.8,5.5
		c0,0.1-0.2,0.2-0.4,0.3v5.1l7.1-1.1V21.2"/>
	<path class="st19" d="M88,20.3c-0.4-1.3-0.6-3-0.7-4.5l-3.6-0.7c-0.4,0.3-0.7,0.6-0.7,0.8c-0.1,0.9-0.1,1.9-0.2,2.7
		C83.7,19.5,86.1,21.4,88,20.3"/>
	<path class="st23" d="M89.1,11.7c0-1.5,0-2.6,0-2.6c-0.1-2.3-2.1-2.7-4-2.7c-2-0.1-3.9,0.4-4,2.7c0,0-0.1,1.1,0,2.6
		c-1.1-0.9-1.6,0.6-1.2,1.7c0.3,0.9,1.2,1,1.5,1c0,0.2,0.1,0.4,0.1,0.6c0.3,1.6,2.2,3.5,3.2,4c0,0,0.1,0.1,0.5,0.1
		c0.4,0,0.5-0.1,0.5-0.1c1-0.4,2.9-2.4,3.2-4c0-0.2,0.1-0.4,0.1-0.6c0.3,0,1.1-0.1,1.5-1C90.7,12.3,90.3,10.9,89.1,11.7"/>
	<path class="st22" d="M80.6,11.5c0,0,0.4,0.6,0.6,0.6c0.2,0,0.1-1.1,0.4-3.5c0,0,3.7,0.9,6.5,0c0,0,0.3,3.3,0.5,3.7
		c0.3,0.5,0.6-0.7,0.6-0.7s0.9-6.5-4.2-6.3C85.1,5.3,79.5,4.9,80.6,11.5"/>
	<path class="st15" d="M78.7,33.6c0,0,1.1,4.1,0.5,7.3c-0.3,1.3-0.5,2.3-0.7,3.2h13.3c-0.2-0.9-0.5-1.8-0.7-3.2
		c-0.7-3.3,0.5-7.3,0.5-7.3c1.2-0.8,1.8-1.9,2.1-3.6c0.1-1-1.1-7.9-1.1-7.9c-0.8-0.7-7.4-1.7-7.4-1.7s-6.5,1.1-7.4,1.7
		c0,0-1.1,7.1-1,8.1C76.9,31.9,77.5,32.8,78.7,33.6"/>
	<path class="st21" d="M91.8,44.4c-0.2-0.9-0.5-2-0.8-3.5c-0.7-3.3,0.5-7.3,0.5-7.3c1.2-0.8,1.8-1.9,2.1-3.6c0.1-1-1.1-7.9-1.1-7.9
		c-0.3-0.3-1.6-0.6-2.9-0.9c-0.7,1.8-2.5,3.1-4.5,3.1c-2,0-3.7-1.3-4.5-3.1c-1.3,0.3-2.5,0.6-2.9,0.9c0,0-1.1,7.1-1,8.1
		c0.2,1.5,0.8,2.5,2,3.3c0,0,1.1,4.1,0.5,7.3c-0.3,1.5-0.6,2.5-0.8,3.5C78.4,44.4,86.2,47.3,91.8,44.4"/>
	<path class="st15" d="M78.2,21.9c0,0-2.7,1.1-2.3,3.6c0.4,2.7,5.8,13.6,7.8,14.5c1.9,0.9-3.1-12.4-4.4-14.9
		C78,22.5,78.2,21.9,78.2,21.9"/>
	<path class="st15" d="M91.8,21.9c0,0,2,0.6,2.6,3.3c0.6,2.7-0.3,14.1-1.7,15.7c-1.4,1.6-1.8-12.7-1.6-15.5
		C91.2,22.7,91.8,21.9,91.8,21.9"/>
	<path class="st15" d="M93.6,37.8c0,0-7.2,2.1-11.7,3.4l0,1c0,0,10.5-0.3,11-1.5C92.9,40.7,93.5,39.4,93.6,37.8"/>
	<path class="st24" d="M81.6,92.9c0,0-0.4,2.5,0.1,3.8c0,0,0,2.3-0.1,3c0,0-1.3,1.1-3.4,0.4v-0.7c0,0,1.2-2.5,1.3-3.2
		c0.1-0.8,0-3.2,0-3.6c0,0-0.1-0.2,0.1-0.4c0,0,1.3,0.5,2.2,0.2C81.7,92.3,81.8,92.5,81.6,92.9"/>
	<path class="st24" d="M88.5,92.9c0,0,0.4,2.5-0.1,3.8c0,0,0,2.3,0.1,3c0,0,1.3,0.8,3.4,0.1v-0.4c0,0-1.2-2.5-1.3-3.2
		c-0.1-0.8,0-3.2,0-3.6c0,0,0.1-0.2-0.1-0.4c0,0-1.3,0.5-2.2,0.2C88.4,92.3,88.3,92.5,88.5,92.9"/>
	<path class="st22" d="M81.2,14.4c0,0,3.2,10.9,1.5,11.5c-2.4,1-4.5-3.3-4.5-4c0,0,1.8-2.2,1.9-7.3L81.2,14.4"/>
	<path class="st15" d="M82.8,39.3c0,0,1.6,2.6,2.4-0.9c0.7-2.9-2.3-17.9-2.3-17.9l-1.3,0.1C81.6,20.5,81.9,38.8,82.8,39.3"/>
	<path class="st15" d="M83,20.6c0,0,0.6-1.1,0-2.1l-0.2-1c0,0-0.1-2.1-0.7-1.9c-0.4,0.1-0.4,1.3-0.4,1.3s-0.3-1.6-0.5-1.5
		c-0.2,0.1,0.3,2.4,0.4,2.9l0,2.3C81.6,20.6,82.8,21.3,83,20.6"/>
	<path class="st15" d="M82.4,42.1c0,0-1.9,0.9-3.1,0.8c0,0-0.8-0.1-0.8-0.4c0-0.3,0.1-0.4,0.1-0.4s0-0.3,0.1-0.3
		c0,0-0.1-0.2,0.2-0.4c0,0,0.1-0.2,0.4-0.3s2-0.2,2.9,0L82.4,42.1"/>
	<path class="st22" d="M90,14.6c0,0,0.9,4,0.3,6c0,0-0.6,0.5-0.2,1c0.4,0.5,1.4,1.7,1,3c0,0-0.8,1.7-2.1,0.7c-1.3-1-1.4-2.8-1.2-6
		L90,14.6"/>
	<path class="st22" d="M82.2,8.7c0,0,5.2,4,6.8,2.3l-0.5-3.1L82.2,8.7"/>
	<path class="st16" d="M62,36.5c0-0.3,0-0.6,0.1-0.7c0.3-1.3,1.7-16.3,0.2-18.8c0,0-2.8,0.6-3.5,4.1c-0.7,3.5,0.4,11.6,0.2,12.7
		c-0.1,0.4-0.2,1.5-0.2,2.2L62,36.5"/>
	<path class="st15" d="M60.7,33.4c0,0,2.2-1,14.7-4.6l0.6,1.5c-0.6,0.3-5.3,3.1-13.9,6.5c0,0-3.4,1.6-3.6-0.9
		C58.4,34.3,60.7,33.4,60.7,33.4"/>
	<path class="st15" d="M75.8,30.2c0,0,1,0.5,2.5-0.4l2-0.3c0,0-0.3-0.6-0.7-0.9c-0.5-0.2-0.6-1.2-4.7,0.2
		C74.9,28.9,75.3,30.3,75.8,30.2"/>
	<path class="st25" d="M45.5,31.8c0,0-8.3-8.2-12.2-11.2l-6.8,1.8c0.1,0.1,0.2,0.3,0.3,0.4c1.4,1.6,13.1,9.6,16.2,11.9
		C43,34.7,45.1,34.2,45.5,31.8"/>
	<path class="st26" d="M33.2,37.3c0.1-0.3,0.2-0.5,0.2-0.6c0.6-1.1,5.3-12.5,4.7-15.1c0,0-2.7-0.2-4.3,2.7
		c-1.6,2.9-2.9,10.5-3.3,11.4c-0.2,0.3-0.6,1.3-0.8,1.9L33.2,37.3"/>
	<path class="st27" d="M39.6,36c0,0,1.5,0.5,2.1,0.4c0.6-0.1,2-0.2,1.8-1c-0.2-0.8-1.9-0.6-2.8-0.4c-1,0.2-1,0.4-1,0.4V36"/>
	<path class="st23" d="M49,21.5c0,0,1.8-1.5,2.3-1.2c0.6,0.3,3.9,2.8,4.2,3.1c0.3,0.3-0.3,0.5-0.8,0.5c-0.5,0-4-1.8-4-1.8l-1.5,0.5
		L49,21.5"/>
	<path class="st23" d="M9.7,51.9c0,0-0.7,3.8,1.1,4.4c0,0,1.4,0.4,1.2-4.1L9.7,51.9"/>
	<path class="st16" d="M19.7,94.9l1.6-0.1c0,0,1,2.9,0.7,4.5c-0.2,0.9-5.2,1.2-5.7,1c0,0-0.5-1.2,1.4-1.8c0,0,1.4-0.6,1.5-1.1
		C19.3,96.7,19.7,94.9,19.7,94.9"/>
	<path class="st16" d="M30.9,94.9l-1.6-0.1c0,0-1,2.9-0.7,4.5c0.2,0.9,5.1,1.2,5.7,1c0,0,0.5-1.2-1.4-1.8c0,0-1.4-0.6-1.5-1.1
		C31.2,96.7,30.9,94.9,30.9,94.9"/>
	<path class="st28" d="M15.7,49.1c0,0,1.5,33.3,2.9,46.1H22c0,0,1.7-27.7,2.5-39.7c0,0,2.9,33.9,3.7,39.7h4.3c0,0-0.1-42.1,0.5-50.1
		L15.7,49.1"/>
	<path class="st29" d="M39.5,27.1c0,0,4.3,3.5,5.2,4.3c0,0,0.5,1.7-1.5,3l-5.7-4.2L39.5,27.1"/>
	<path class="st23" d="M32.4,20.8c0,0-4.6-1.2-4.9-1.7c-0.4-0.8-0.9-3.3-1.1-5.8c0-0.6-4.4-3.3-4.4-3.3s0.1,5.9-1.2,8.5
		c0,0-1.3,0.3-2.7,0.8v3.5l13.1,2C32.7,23.9,32.6,21,32.4,20.8"/>
	<path class="st19" d="M27.4,18.6c-0.3-1-0.7-3-0.9-5l-3.6-2.5h-0.8c0,0.7-0.1,1.7-0.2,2.7C22.7,15.6,24.9,19.7,27.4,18.6"/>
	<path class="st25" d="M33.1,49.9c0.3-0.4,0.3-1.1,0.3-1.1l-0.1-28.2l-5.6-1.5c-3.7,3.7-7-0.5-7-0.5c-1,0-6.6,0.5-6.4,4.3
		c0,0,0.5,26,1,26.7c0,0,2,2.2,3.9,3l5.2-2l5.1,2C29.5,52.5,32.5,50.5,33.1,49.9"/>
	<path class="st23" d="M28.8,5.9c0,0,0.3,3.3-0.2,6c-0.3,1.6-2.2,3.3-3.2,3.8c0,0-0.3,0.2-1.2,0c-1.2-0.2-3-2-3.6-4.4
		c0,0-0.9,0.1-1.3-1c-0.4-1.1,0.1-2.7,1.3-1.6c0,0-0.3-4.9,1.8-5.2C24.5,3.2,28.6,2.4,28.8,5.9"/>
	<path class="st23" d="M28.7,11.2c0,0,1,0.1,1.3-1c0.4-1.1-0.1-2.7-1.3-1.6"/>
	<path class="st30" d="M22.6,1.6c0,0-3.2-0.2-2.5,6.8c0,0,0.7,1,0.9,0.8c0.2-0.2,0-0.8,0-1.5c0-0.6,0.5-3.1,0.8-3.2
		c0.2-0.1,2.4,1.8,6.2,1.2c0,0,0.5,1.9,0.3,3C28,9.9,28.5,9.2,28.7,9c0.1-0.2,0.6-0.8,0.6-0.8s0.9-3.1-0.4-5.1c0,0,0.1-0.2,0-0.8
		c-0.1-0.6-1-0.4-2.6-0.5c0,0,0.8-0.2,0.9-0.6C27.4,0.8,23.1,1.6,22.6,1.6"/>
	<path class="st25" d="M17.4,19.1c0,0-4.2,0.7-5.5,2.5c-1.4,1.8-3,30-3,30s2.1,1.8,3.7,0.5l3-25C15.7,27.1,17,20.2,17.4,19.1"/>
	<path class="st26" d="M27.6,19.1c0,0-2.9,9.5-3.5,11.1c0,0-2.9-10.1-3.3-11.7C20.7,18.5,22.8,21.2,27.6,19.1"/>
	<path class="st31" d="M24.6,22l0.7,5.8l-0.9,2.2L24,30.2c0,0-0.5,0-0.5-0.1c0-0.1-0.7-2.4-0.7-2.4l1-6L24.6,22"/>
	<path class="st32" d="M27.3,18.3L24,30.2l0.5,0.9l3.2-3.5L27,25.3l2.4-0.5l-0.5-5.4C28.9,19.4,27.7,18.1,27.3,18.3"/>
	<path class="st32" d="M21,18.1l3,12.1l-0.5,0.9l-3.2-3.5l0.7-2.3l-2.4-0.5l0.5-6.1C19.2,18.7,20.6,17.9,21,18.1"/>
	<path class="st31" d="M23.4,19.9c0.1-0.2,0.7-0.2,0.7-0.2s0.6,0,0.7,0.2c0,0,0.5,1.1,0.4,1.4L24.6,22h-0.9L23,21.3
		C23,21,23.4,19.9,23.4,19.9"/>
	<path class="st25" d="M50.3,23.1c0,0-5.1,10.8-5.8,11.1c-1.7,0.8-2.9-0.6-2.9-1.8c0-1.2,6.9-10.4,6.9-10.4L50.3,23.1"/>
	<path class="st30" d="M44.2,4.8c0,0-7.2-0.7-7.7,11.1c0,0-0.1,0.7,0.2,1.4c0.3,0.6,10.8,2.6,14.1,0c2-1.6-1-12.2-5.6-12.5H44.2"/>
	<path class="st26" d="M55.4,37.3c-0.1-0.3-0.2-0.5-0.2-0.6c-0.6-1.1-5.3-12.5-4.7-15.1c0,0,2.7-0.2,4.3,2.7
		c1.6,2.9,2.9,10.5,3.3,11.4c0.2,0.3,0.6,1.3,0.8,1.9L55.4,37.3"/>
	<path class="st27" d="M51.7,55.2H36.9c0.1,4.7,0.6,10.3,1.3,17.5c0,0,0,2.6,0.3,3.7c0,0,0.3,15,0.3,18.6l1.6,0.3
		c1-5.6,3.1-12,1.4-21c0,0,0.2-2.5,0.8-5.5c0.8-3.6,0.7-9.2,1.5-13l0.2,0l0.2,0c0.8,3.8,0.8,9.3,1.5,13c0.7,3,0.8,5.5,0.8,5.5
		c-1.7,9,0.4,15.4,1.4,21l1.6-0.3c-0.1-3.6,0.3-18.6,0.3-18.6c0.3-1.1,0.3-3.7,0.3-3.7C51.1,65.5,51.6,59.9,51.7,55.2"/>
	<path class="st33" d="M37.8,43.2c0,0-1.9,6.1-0.9,14.5c0,0,0.9,16.9,0.9,19.3l0.7,14.2c0,0,1.6,1,3.4,0.3c0,0,2.8-31.8,2.7-35.2
		c0,0,1.4,29.7,2.3,34.8c0,0,1.9,0.7,3.2-0.1c0,0,3.3-40.5,0.6-47.2L37.8,43.2"/>
	<path class="st27" d="M48,20.9c-0.3-0.1-0.4-0.1-0.4-0.1c-1.3-2.6-1.1-8.5-1.1-8.5s-4.3,2.7-4.4,3.3c-0.1,2.4-0.5,4.7-0.8,5.5
		c0,0.1-0.2,0.2-0.5,0.3v5.2l7.2-1.1V20.9"/>
	<path class="st34" d="M47.3,20c-0.4-1.3-0.6-3-0.7-4.5l-3.7-0.7c-0.4,0.4-0.7,0.6-0.7,0.8c-0.1,1-0.1,1.9-0.2,2.7
		C42.9,19.2,45.3,21,47.3,20"/>
	<path class="st17" d="M48.4,11.3c0.1-1.5,0-2.6,0-2.6C48.3,6.4,46.3,6,44.3,6c-2-0.1-3.9,0.4-4.1,2.7c0,0-0.1,1.1,0,2.6
		c-1.1-0.9-1.6,0.6-1.2,1.7c0.3,0.9,1.2,1,1.5,1c0,0.2,0.1,0.4,0.1,0.6c0.3,1.6,2.2,3.5,3.2,4c0,0,0.1,0.1,0.5,0.1
		c0.4,0,0.5-0.1,0.5-0.1c1-0.4,2.9-2.4,3.2-4c0-0.2,0.1-0.4,0.1-0.6c0.3,0,1.1-0.1,1.5-1C50,11.9,49.6,10.5,48.4,11.3"/>
	<path class="st30" d="M39.9,11.1c0,0,0.4,0.6,0.6,0.6c0.2,0,0.1-1.1,0.5-3.6c0,0,3.7,0.9,6.5,0c0,0,0.3,3.3,0.5,3.7
		c0.3,0.5,0.6-0.7,0.6-0.7s1-6.5-4.2-6.3C44.3,4.8,38.8,4.5,39.9,11.1"/>
	<path class="st27" d="M37.9,33.4c0,0,1.1,4.1,0.5,7.4c-0.3,1.3-0.5,2.3-0.7,3.2H51c-0.2-0.9-0.5-1.9-0.8-3.2
		c-0.7-3.3,0.5-7.4,0.5-7.4c1.2-0.8,1.8-1.9,2.1-3.6c0.1-1-1.1-7.9-1.1-7.9c-0.8-0.7-7.4-1.8-7.4-1.8s-6.6,1.1-7.4,1.8
		c0,0-1.1,7.2-1,8.2C36.1,31.6,36.7,32.5,37.9,33.4"/>
	<path class="st26" d="M51.1,44.2c-0.2-0.9-0.5-2-0.8-3.5c-0.7-3.3,0.5-7.4,0.5-7.4c1.2-0.8,1.8-1.9,2.1-3.6c0.1-1-1.1-7.9-1.1-7.9
		c-0.3-0.3-1.6-0.6-2.9-0.9c-0.2,1.7-2.6,6.6-4.6,6.6c-2,0-4.1-4.6-4.4-6.6c-1.3,0.3-2.5,0.6-2.9,0.9c0,0-1.1,7.2-1,8.2
		c0.2,1.5,0.8,2.5,2,3.3c0,0,1.1,4.1,0.5,7.4c-0.3,1.5-0.6,2.5-0.8,3.5C37.6,44.2,45.5,47.1,51.1,44.2"/>
	<path class="st35" d="M49.7,38c0,0.3-0.3,0.6-0.6,0.6h-9.2c-0.3,0-0.6-0.3-0.6-0.6V32c0-0.3,0.3-0.6,0.6-0.6h9.2
		c0.3,0,0.6,0.3,0.6,0.6V38"/>
	<path class="st30" d="M40.8,92.9c0,0-0.4,2.5,0.1,3.8c0,0,0,2.3-0.1,3c0,0-1.3,0.8-3.4,0.1v-0.4c0,0,1.2-2.5,1.3-3.2
		c0.1-0.8,0-3.2,0-3.6c0,0-0.1-0.2,0.1-0.4c0,0,1.3,0.5,2.2,0.2C40.9,92.3,41.1,92.5,40.8,92.9"/>
	<path class="st30" d="M47.8,92.9c0,0,0.4,2.5-0.1,3.8c0,0,0,2.3,0.1,3c0,0,1.3,0.8,3.4,0.1v-0.4c0,0-1.2-2.5-1.3-3.2
		c-0.1-0.8,0-3.2,0-3.6c0,0,0.1-0.2-0.1-0.4c0,0-1.3,0.5-2.2,0.2C47.7,92.3,47.5,92.5,47.8,92.9"/>
	<path class="st27" d="M57.3,36.1c0,0-1.4-0.3-8.9-0.9l0,0.4l-0.1,0.6c0.4,0.1,2.1,1.8,9.5,2.4c0,0,1.4,0.4,1.1-1.3
		C58.7,36.3,57.3,36.1,57.3,36.1"/>
	<path class="st27" d="M49,36c0,0-1.5,0.5-2.1,0.4c-0.6-0.1-2-0.2-1.8-1c0.2-0.8,1.9-0.6,2.8-0.4c1,0.2,1,0.4,1,0.4V36"/>
	<path class="st30" d="M40.5,11.7c0,0,3-0.8,4-4.3h-4V11.7"/>
	<path class="st30" d="M45.8,7.5c0,0,0.7,3.7,2.1,4.4V8.2L45.8,7.5"/>
</g>
</svg>
