<?xml version="1.0" encoding="utf-8"?>
<!-- Generator: Adobe Illustrator 22.1.0, SVG Export Plug-In . SVG Version: 6.00 Build 0)  -->
<svg version="1.1" id="Layer_1" xmlns="http://www.w3.org/2000/svg" xmlns:xlink="http://www.w3.org/1999/xlink" x="0px" y="0px"
	 viewBox="0 0 69.3 101" style="enable-background:new 0 0 69.3 101;" xml:space="preserve">
<style type="text/css">
	.st0{fill:#D3706D;}
	.st1{fill-rule:evenodd;clip-rule:evenodd;fill:#554199;}
	.st2{fill-rule:evenodd;clip-rule:evenodd;fill:#EC8571;}
	.st3{fill-rule:evenodd;clip-rule:evenodd;fill:#F7C9AD;}
	.st4{fill:#25215F;}
	.st5{fill:#BCC4C1;}
	.st6{fill:#DFE2E1;}
	.st7{fill:#F69A79;}
	.st8{fill:#E98367;}
	.st9{fill:#DC765E;}
	.st10{fill-rule:evenodd;clip-rule:evenodd;fill:#CD6666;}
	.st11{fill-rule:evenodd;clip-rule:evenodd;fill:#DC765E;}
	.st12{fill-rule:evenodd;clip-rule:evenodd;fill:#E44041;}
	.st13{fill:#F27768;}
	.st14{fill:#F3B3C8;}
	.st15{fill:#F4856C;}
	.st16{fill:#11131E;}
	.st17{fill:#F16647;}
	.st18{fill:#9E9ACB;}
	.st19{fill:#D36858;}
	.st20{fill:#371D14;}
	.st21{fill:#AE3492;}
	.st22{fill:#E87B24;}
	.st23{fill:#F59275;}
	.st24{fill:#902A89;}
	.st25{fill:#3B6094;}
	.st26{fill:#FFFFFF;}
	.st27{fill:#DC563D;}
	.st28{fill:#40638A;}
	.st29{fill:#EF5179;}
	.st30{fill:#191212;}
	.st31{fill:#B72331;}
	.st32{fill:#3A5173;}
	.st33{fill:#1E2731;}
	.st34{fill:#CD4231;}
	.st35{fill:#1B273D;}
	.st36{fill:#E9CE6B;}
	.st37{fill:none;stroke:#F8C861;stroke-miterlimit:10;}
	.st38{fill:#F8C861;}
	.st39{fill:#787878;}
</style>
<g>
	<path class="st0" d="M58,42.3c0.4-1.5,0.3-3.2,0.2-4.8c-0.4-3.1-1.4-6.2-2.2-9.2c-0.9-3.2-1.6-6.5-2-9.9c-0.4-3.1-1.1-6.1-1.8-9.1
		c-0.5-2.3-2.1-4.6-3.6-6.2c-1.8-1.8-4.7-2.2-7-2.6c-5.1-0.9-10.9-0.9-15.2,2.6c0,0-0.1,0.1-0.2,0.1c-0.1,0-0.1,0-0.2,0
		c-1.8-0.5-3.3-0.3-4.9,0.6c-2.2,1.2-3.7,3.8-4.4,6.3c-0.7,2.6-0.5,5-0.7,7.6c-0.3,3.3-0.8,6.5-1.4,9.7c-0.6,3.2-2,6.3-2.4,9.5
		c-0.4,3.1,0.3,6.3,1.4,9.2h43.2C57,45.3,57.9,42.6,58,42.3"/>
	<path class="st1" d="M16.7,50c0,0-1.8,0.9-3.9,3.4C11.3,55.2,5.3,72,1.7,82.6c-0.9,2.6-4.4,11.8,2.6,17l1.6,1.2
		c2.3-5,8-18.3,8-18.3L16.7,50"/>
	<path class="st1" d="M52.6,50c0,0,1.8,0.9,3.9,3.4c1.5,1.8,7.5,18.6,11.1,29.2c0.9,2.6,4.4,11.8-2.6,17l-1.6,1.2
		c-2.3-5-8-18.3-8-18.3L52.6,50"/>
	<path class="st1" d="M34.6,45.1c0,0,17.3,4.2,18.1,4.9c0.8,0.8,4.4,18.9,4.4,20.7c0,1.6-4.1,24.1-4.8,30.2H17
		c-0.7-6.1-4.8-28.6-4.8-30.2c0-1.8,3.6-19.9,4.4-20.7C17.3,49.3,34.6,45.1,34.6,45.1"/>
	<path class="st1" d="M10.4,91.5l-0.7,0.7l9.5,5.3l-2.1,3.5H6.2c0,0-2.5-1.2-2.3-2.4C4.1,97.4,6.5,90.7,10.4,91.5"/>
	<path class="st2" d="M23.2,95.9c0,0-1.8-1.2-2.8-1.9c-1-0.6-2-0.3-2.6,0c-0.6,0.4-3.4,2.6-3.8,3.1c-0.4,0.5,2,1.5,2.3,1.5
		C16.5,98.6,23.2,95.9,23.2,95.9"/>
	<path class="st1" d="M58.9,91.5l0.7,0.7l-9.5,5.3l2.1,3.5H63c0,0,2.5-1.2,2.3-2.4C65.1,97.4,62.8,90.7,58.9,91.5"/>
	<path class="st2" d="M46,95.9c0,0,1.8-1.2,2.8-1.9c1-0.6,2-0.3,2.6,0c0.6,0.4,3.4,2.6,3.8,3.1c0.4,0.5-2,1.5-2.3,1.5
		C52.7,98.6,46,95.9,46,95.9"/>
	<path class="st3" d="M33.6,28.3c0,0-0.5,0.9-0.3,1.5c0.2,0.5,0.9,0.2,0.9-0.2c0.1-0.4-0.1-1.3-0.2-1.4C34,28.1,33.8,28,33.6,28.3"
		/>
	<path class="st4" d="M50.9,74.4c-0.1,0-0.1,0-0.1-0.1c-0.2-1.1,0-2.1,0.2-3.2c0.1-0.4,0.2-0.8,0.2-1.1c0.4-2.8-0.4-5.8-2.3-7.8
		c-0.1-0.1-0.1-0.2,0-0.2c0,0,0.1,0,0.1,0c0,0,0.1,0,0.1,0c1.9,2.1,2.8,5.2,2.4,8.1c-0.1,0.4-0.1,0.8-0.2,1.2c-0.2,1-0.4,2-0.2,3
		C51.1,74.3,51.1,74.4,50.9,74.4C51,74.4,50.9,74.4,50.9,74.4"/>
	<path class="st4" d="M18.7,74.4C18.7,74.4,18.7,74.4,18.7,74.4c-0.1,0-0.2-0.1-0.1-0.2c0.2-1,0-2-0.2-3c-0.1-0.4-0.2-0.8-0.2-1.2
		c-0.5-2.9,0.5-6,2.4-8.1c0,0,0.1,0,0.1,0c0,0,0.1,0,0.1,0c0.1,0.1,0.1,0.2,0,0.2c-1.9,2.1-2.7,5.1-2.3,7.8c0.1,0.4,0.1,0.8,0.2,1.1
		c0.2,1,0.5,2.1,0.2,3.2C18.8,74.4,18.8,74.4,18.7,74.4"/>
	<polyline class="st5" points="59.3,101 9.6,101 3.1,64.7 65.9,64.7 59.3,101 	"/>
	<path class="st6" d="M31,85.1c0,1.6,1.3,3,2.9,3c1.6,0,2.9-1.3,2.9-3c0-1.6-1.3-3-2.9-3C32.3,82.2,31,83.5,31,85.1"/>
	<path class="st7" d="M45.2,28c0.1,2.8,2.3,4.1,5.1,4c2.8-0.1,5-1.8,4.9-4.6c-0.1-2.8-1.1-5.7-3.9-5.6C48.6,21.9,45.2,25.2,45.2,28"
		/>
	<path class="st7" d="M32.8,49.2c2.4,0,4.7-1.1,6.5-3.1v0c-2.6-0.8-4.7-1.5-4.7-1.5s-3.1,1-6.4,2c0.4,1.4,0.9,2.6,1.5,3.6v-1.7
		C30.7,49,31.7,49.2,32.8,49.2"/>
	<path class="st7" d="M39.3,50.5c0.7-1.1,1.3-2.4,1.7-3.9c-0.6-0.2-1.2-0.4-1.7-0.6V50.5"/>
	<path class="st7" d="M34.6,53.7L34.6,53.7c1.8,0,3.4-1.2,4.7-3.1v-4.4c-1.8,1.9-4,3.1-6.5,3.1c-1.1,0-2.1-0.2-3.1-0.7v1.7
		C31,52.4,32.7,53.7,34.6,53.7"/>
	<polyline class="st7" points="39.3,49.7 29.7,49.7 29.7,40.6 39.3,40.6 39.3,49.7 	"/>
	<path class="st8" d="M39.3,41.3V40c-1.5,0.5-3.1,0.8-4.8,0.8c-1.7,0-3.3-0.3-4.8-0.8v3.7c1,0.4,2,0.7,3.1,0.7
		C35.3,44.4,37.5,43.2,39.3,41.3"/>
	<path class="st7" d="M45,6.4c-1.6-1.6-3.5-2.9-5.7-3.6C37.8,2.3,36.2,2,34.5,2c-5.9,0-11,3.5-13.4,8.7c-0.9,1.9-1.4,4.1-1.4,6.4
		v8.6c0,0.3,0,0.6,0,0.8c0.1,1.6,0.4,3.2,1,4.7v0c0.3,0.7,0.6,1.5,1,2.1c0.3,0.5,0.6,1,1,1.5c0.1,0.2,0.2,0.3,0.4,0.5
		c1.7,2.1,4,3.8,6.7,4.7c1.5,0.5,3.1,0.8,4.8,0.8c1.7,0,3.3-0.3,4.8-0.8c1.8-0.6,3.5-1.6,5-2.9h0c0.6-0.5,1.2-1.1,1.7-1.8
		c0.1-0.2,0.3-0.3,0.4-0.5c0.3-0.5,0.7-1,1-1.5c0.4-0.7,0.7-1.4,1-2.2c0.6-1.5,0.9-3,1-4.7c0-0.3,0-0.5,0-0.8v-8.6
		C49.3,12.9,47.6,9.2,45,6.4"/>
	<path class="st8" d="M49,29.8c0.3-1,0.7-2,1.2-2.9c0.1-0.3,0.3-0.6,0.5-0.8c0.2-0.3,0.5-0.5,0.8-0.7c0.4-0.3,0.7-0.6,1.2-0.7
		c0.2,0,0.4-0.1,0.5,0c0.2,0.1,0.2,0.3,0.3,0.5c0.2,0.8-0.1,1.6-0.5,2.3c-0.4,0.8-1.1,1.5-1.8,2c-0.6,0.4-1.3,1-2,0.6"/>
	<path class="st9" d="M51,26.7c-0.3,0-0.5,0.1-0.7,0.2c0.1-0.1,0.1-0.2,0.2-0.3c0.5-0.8,1.2-1.4,1.7-1.7c0.5-0.3,0.9-0.3,0.9-0.4
		c0,0-0.1-0.1-0.3,0c-0.2,0-0.4,0.1-0.7,0.2c-0.6,0.3-1.3,0.9-1.8,1.7c-0.5,0.8-0.8,1.7-1,2.3c-0.1,0.6-0.2,1-0.2,1s0.2-0.5,0.4-1
		c0.2-0.5,0.4-1,0.8-1.6c0,0,0,0,0,0c0.2,0,0.6-0.1,0.9-0.1c0.7,0,1.3,0.2,1.3,0.1C52.4,27.1,51.8,26.7,51,26.7"/>
	<path class="st10" d="M24.5,17.6c0.4-0.5,1-2.2,3.3-2.4c1.9-0.2,2.3,0.8,2.7,1.7c0.4,0.9-1.5,0.6-2.7,0.5
		C26.8,17.2,24.9,17.9,24.5,17.6"/>
	<path class="st10" d="M44.6,18.1c-0.4-0.5-0.7-2.3-2.9-2.9c-1.9-0.5-2.4,0.4-2.9,1.3c-0.5,0.9,1.4,0.8,2.7,0.8
		C42.4,17.3,44.1,18.3,44.6,18.1"/>
	<path class="st11" d="M35.9,20.3c0.7-0.4-1.8,3.2-1.2,5.9c0.4,1.6,2.2,1.8,1.9,2.7c-0.5,1.4-3.4,1.9-3.1,0.9
		c0.3,0.2,1.8-0.5,1.2-1.3C33.8,27.5,33.3,22.6,35.9,20.3"/>
	<path class="st12" d="M35.9,32.7c0.5,0,0,1-1.4,1.1c-0.5,0-1.5-0.1-1.8-0.7c-0.2-0.4,0.1-0.5,0.2-0.4
		C35.6,33.6,35.6,32.4,35.9,32.7"/>
	<path class="st13" d="M45.5,28.4c-0.7,0-1.4-0.2-1.5-0.3c-1.1-0.7-0.7-2.9,1.5-2.9c0.3,0,0.5,0,0.8,0.1c1.5,0.3,2.3,2.4-0.3,3
		C45.8,28.4,45.7,28.4,45.5,28.4"/>
	<path class="st0" d="M27.1,4.3C24.1,5.4,22,8.1,20.9,11c-1.1,3-1.4,6.2-1.5,9.3c0,0.4,0,1,0.4,1.2l-0.5,0.9
		c0.1,0.1,0.2,0.2,0.3,0.3c1-0.9,2.1-1.7,3.1-2.5C26.8,16.3,28.7,9.9,27.1,4.3"/>
	<path class="st0" d="M26.4,3.7c0.3,4.6,3.1,8.1,6,10.5c2.1,1.7,4.4,3.2,6.8,3.9c1.9,0.6,3.9,0.7,5.8,1.3c1.9,0.6,3.1,1,4.3,3.1
		c0.6-3.6,0.8-6.7-0.5-10c-1.2-3.3-3.2-6-5.5-8.1c-1-0.9-2.1-1.7-3.2-2.1c-1.4-0.6-3-0.6-4.5-0.7C32.5,1.5,29.1,1.5,26.4,3.7"/>
	<path class="st7" d="M23.8,28c-0.1,2.8-2.3,4.1-5.1,4c-2.8-0.1-5-1.8-4.9-4.6c0.1-2.8,1.1-5.7,3.9-5.6C20.4,21.9,23.8,25.2,23.8,28
		"/>
	<path class="st8" d="M20.1,29.8c-0.3-1-0.7-2-1.2-2.9c-0.1-0.3-0.3-0.6-0.5-0.8c-0.2-0.3-0.5-0.5-0.8-0.7c-0.4-0.3-0.7-0.6-1.2-0.7
		c-0.2,0-0.4-0.1-0.5,0c-0.2,0.1-0.2,0.3-0.3,0.5c-0.2,0.8,0.1,1.6,0.5,2.3c0.4,0.8,1.1,1.5,1.8,2c0.6,0.4,1.3,1,2,0.6"/>
	<path class="st9" d="M18,26.7c0.3,0,0.5,0.1,0.7,0.2c-0.1-0.1-0.1-0.2-0.2-0.3c-0.5-0.8-1.1-1.4-1.7-1.7c-0.5-0.3-0.9-0.3-0.9-0.4
		c0,0,0.1-0.1,0.3,0c0.2,0,0.4,0.1,0.7,0.2c0.6,0.3,1.3,0.9,1.8,1.7c0.5,0.8,0.8,1.7,1,2.3c0.1,0.6,0.2,1,0.2,1s-0.2-0.5-0.4-1
		c-0.2-0.5-0.4-1-0.8-1.6c0,0,0,0,0,0c-0.2,0-0.6-0.1-0.9-0.1c-0.7,0-1.3,0.2-1.3,0.1C16.6,27.1,17.2,26.7,18,26.7"/>
	<path class="st13" d="M23.7,28.7c0-0.2,0.1-0.4,0.1-0.7c0-0.8-0.2-1.6-0.7-2.4c0.1,0,0.3,0,0.4,0c0.3,0,0.5,0,0.8,0.1
		c1.5,0.3,2.3,2.4-0.3,3C23.9,28.7,23.8,28.7,23.7,28.7"/>
	<path class="st13" d="M23.4,28.7c-0.7,0-1.4-0.2-1.5-0.3c-1-0.6-0.7-2.6,1.1-2.8c0.5,0.8,0.7,1.6,0.7,2.4c0,0.2,0,0.5-0.1,0.7
		C23.6,28.7,23.5,28.7,23.4,28.7"/>
	<path d="M31.1,22.9c-1.3-2.2-4.1-3.3-6.8-1.7c-0.2,0.4-2.2-1.6-2.2-1.6c0.8,2.2,1.6,3.5,2.5,3.2c1.3-0.4,3.6-1.6,6.3,0.6
		C31.5,23.7,31.1,22.9,31.1,22.9"/>
	<path d="M38.7,22.9c1.3-2.2,4.1-3.3,6.8-1.7c0.2,0.4,2.2-1.6,2.2-1.6c-0.8,2.2-1.6,3.5-2.5,3.2c-1.3-0.4-3.6-1.6-6.3,0.6
		C38.4,23.7,38.7,22.9,38.7,22.9"/>
</g>
</svg>
