<?xml version="1.0" encoding="utf-8"?>
<!-- Generator: Adobe Illustrator 22.1.0, SVG Export Plug-In . SVG Version: 6.00 Build 0)  -->
<svg version="1.1" id="Layer_1" xmlns="http://www.w3.org/2000/svg" xmlns:xlink="http://www.w3.org/1999/xlink" x="0px" y="0px"
	 viewBox="0 0 89.7 89.7" style="enable-background:new 0 0 89.7 89.7;" xml:space="preserve">
<style type="text/css">
	.st0{fill:#D3706D;}
	.st1{fill-rule:evenodd;clip-rule:evenodd;fill:#554199;}
	.st2{fill-rule:evenodd;clip-rule:evenodd;fill:#EC8571;}
	.st3{fill-rule:evenodd;clip-rule:evenodd;fill:#F7C9AD;}
	.st4{fill:#25215F;}
	.st5{fill:#BCC4C1;}
	.st6{fill:#DFE2E1;}
	.st7{fill:#F69A79;}
	.st8{fill:#E98367;}
	.st9{fill:#DC765E;}
	.st10{fill-rule:evenodd;clip-rule:evenodd;fill:#CD6666;}
	.st11{fill-rule:evenodd;clip-rule:evenodd;fill:#DC765E;}
	.st12{fill-rule:evenodd;clip-rule:evenodd;fill:#E44041;}
	.st13{fill:#F27768;}
	.st14{fill:#F3B3C8;}
	.st15{fill:#F4856C;}
	.st16{fill:#11131E;}
	.st17{fill:#F16647;}
	.st18{fill:#9E9ACB;}
	.st19{fill:#D36858;}
	.st20{fill:#371D14;}
	.st21{fill:#AE3492;}
	.st22{fill:#E87B24;}
	.st23{fill:#F59275;}
	.st24{fill:#902A89;}
	.st25{fill:#3B6094;}
	.st26{fill:#FFFFFF;}
	.st27{fill:#DC563D;}
	.st28{fill:#40638A;}
	.st29{fill:#EF5179;}
	.st30{fill:#191212;}
	.st31{fill:#B72331;}
	.st32{fill:#3A5173;}
	.st33{fill:#1E2731;}
	.st34{fill:#CD4231;}
	.st35{fill:#1B273D;}
	.st36{fill:#E9CE6B;}
	.st37{fill:none;stroke:#F8C861;stroke-miterlimit:10;}
	.st38{fill:#F8C861;}
	.st39{fill:#787878;}
</style>
<g>
	<circle class="st37" cx="44.8" cy="44.8" r="44.3"/>
	<g>
		<g>
			<path d="M44.8,8.2C24.6,8.2,8.2,24.6,8.2,44.8c0,20.2,16.4,36.6,36.7,36.6S81.5,65,81.5,44.8C81.5,24.6,65.1,8.2,44.8,8.2z
				 M44.8,78.4c-18.5,0-33.5-15-33.5-33.5c0-18.5,15-33.5,33.5-33.5c18.5,0,33.5,15,33.5,33.5C78.4,63.3,63.3,78.4,44.8,78.4z"/>
			<path d="M54.8,44.2c-2.8,2.3-6.3,3.6-9.9,3.6c-3.7,0-7.2-1.3-9.9-3.6c-4.9,2-8.3,6.8-8.3,12.5v5c0,2.7,2.2,4.9,4.9,4.9h26.8
				c2.7,0,4.9-2.2,4.9-4.9v-5C63.1,51,59.7,46.2,54.8,44.2z"/>
			<path d="M35.4,40.3c0.3,0.3,0.5,0.6,0.8,0.9c0.3,0.3,0.6,0.5,0.9,0.8c0.6,0.5,1.2,0.9,1.9,1.3c1.7,0.9,3.7,1.5,5.8,1.5
				c2.1,0,4.1-0.5,5.9-1.5c0.3-0.2,0.7-0.4,1-0.6c0.7-0.4,1.3-0.9,1.8-1.5c0.6-0.6,1.1-1.2,1.5-1.8c0.7-1,1.2-2.1,1.6-3.2
				c0.4-1.2,0.6-2.4,0.6-3.7c0-3.8-1.7-7.3-4.5-9.5c-0.6-0.5-1.3-0.9-2-1.3c-0.3-0.2-0.7-0.4-1.1-0.5c-1.5-0.6-3.1-1-4.8-1
				c-2.5,0-4.9,0.8-6.9,2.1c-0.7,0.4-1.3,0.9-1.8,1.5c-0.8,0.8-1.6,1.8-2.1,2.8c-1,1.7-1.5,3.7-1.5,5.9c0,2.2,0.5,4.2,1.5,5.9
				C34.4,39,34.9,39.7,35.4,40.3z"/>
		</g>
	</g>
</g>
</svg>
