<?xml version="1.0" encoding="utf-8"?>
<!-- Generator: Adobe Illustrator 22.1.0, SVG Export Plug-In . SVG Version: 6.00 Build 0)  -->
<svg version="1.1" id="Layer_1" xmlns="http://www.w3.org/2000/svg" xmlns:xlink="http://www.w3.org/1999/xlink" x="0px" y="0px"
	 viewBox="0 0 19.5 16.7" style="enable-background:new 0 0 19.5 16.7;" xml:space="preserve">
<style type="text/css">
	.st0{fill:#171812;}
</style>
<g id="_x33_43._Playlist_3_">
	<g>
		<path class="st0" d="M3.2,1.6L0.9,0.1C0.4-0.2,0,0.1,0,0.6v3.1c0,0.6,0.4,0.8,0.9,0.5l2.4-1.5C3.7,2.4,3.7,1.9,3.2,1.6z M18.5,0.6
			H6.2c-0.6,0-1,0.5-1,1v1c0,0.6,0.5,1,1,1h12.3c0.6,0,1-0.5,1-1v-1C19.5,1.1,19.1,0.6,18.5,0.6z M0.9,10.4l2.4-1.5
			c0.5-0.3,0.5-0.8,0-1L0.9,6.7C0.4,6.5,0,6.7,0,7.3v2.6C0,10.4,0.4,10.7,0.9,10.4z M18.5,6.8H6.2c-0.6,0-1,0.5-1,1v1
			c0,0.6,0.5,1,1,1h12.3c0.6,0,1-0.5,1-1v-1C19.5,7.3,19.1,6.8,18.5,6.8z M3.2,14l-2.4-1.5C0.4,12.2,0,12.4,0,13V16
			c0,0.6,0.4,0.8,0.9,0.5L3.2,15C3.7,14.7,3.7,14.3,3.2,14z M18.5,13H6.2c-0.6,0-1,0.5-1,1v1c0,0.6,0.5,1,1,1h12.3c0.6,0,1-0.5,1-1
			v-1C19.5,13.4,19.1,13,18.5,13z"/>
	</g>
</g>
</svg>
