<?xml version="1.0" encoding="utf-8"?>
<!-- Generator: Adobe Illustrator 22.1.0, SVG Export Plug-In . SVG Version: 6.00 Build 0)  -->
<svg version="1.1" id="Layer_1" xmlns="http://www.w3.org/2000/svg" xmlns:xlink="http://www.w3.org/1999/xlink" x="0px" y="0px"
	 viewBox="0 0 23.7 21" style="enable-background:new 0 0 23.7 21;" xml:space="preserve">
<style type="text/css">
	.st0{fill:#171812;}
</style>
<g>
	<g>
		<path class="st0" d="M8.9,17.1c1.1,0,2,0.9,2,2c0,1.1-0.9,2-2,2c-1.1,0-2-0.9-2-2C6.9,18,7.8,17.1,8.9,17.1z"/>
		<path class="st0" d="M17.5,17.1c1.1,0,2,0.9,2,2c0,1.1-0.9,2-2,2c-1.1,0-2-0.9-2-2C15.5,18,16.4,17.1,17.5,17.1z"/>
		<path class="st0" d="M22.5,6.3c-2.5,0-12.2,0-12.2,0s-0.7,0.2-0.7,1c0,0.8,0.7,1,0.7,1h10.9l-0.6,2.1c-3,0-10.7,0-10.7,0
			s-0.7,0.2-0.7,0.9c0,0.7,0.7,1,0.7,1h10.2h0l-0.6,1.9H8.4L7.7,8.2l-0.2-2c0,0-0.2-1.8-0.3-2.6C7,2.9,5.1,2,1,0.1
			c-1-0.4-1.8,1.3,0,2.3l3.2,1.5c0,0,0.7,0.4,0.8,1c0.1,0.6,1.4,10.2,1.4,10.2s0.1,1.3,1.3,1.3c1.2,0,11.2,0,12.2,0
			c1,0,1.2-1.1,1.2-1.1l2.4-7.2C23.6,8.1,24.3,6.3,22.5,6.3z"/>
	</g>
</g>
</svg>
