<?xml version="1.0" encoding="utf-8"?>
<!-- Generator: Adobe Illustrator 22.1.0, SVG Export Plug-In . SVG Version: 6.00 Build 0)  -->
<svg version="1.1" id="Layer_1" xmlns="http://www.w3.org/2000/svg" xmlns:xlink="http://www.w3.org/1999/xlink" x="0px" y="0px"
	 viewBox="0 0 21.2 21.2" style="enable-background:new 0 0 21.2 21.2;" xml:space="preserve">
<style type="text/css">
	.st0{fill:#ffffff;}
</style>
<path class="st0" d="M21.2,11.6c0-0.3,0-0.6,0-1c0-0.3,0-0.6,0-1c-2.2-0.8-2.5-1.8-1-3.6c-0.3-0.6-0.6-1.1-0.9-1.6
	c-2.3,0.4-3-0.3-2.6-2.6c-0.5-0.3-1-0.7-1.6-0.9c-1.8,1.5-2.8,1.2-3.6-1c-0.3,0-0.6,0-1,0c-0.3,0-0.6,0-1,0C8.9,2.2,7.8,2.5,6.1,1
	C5.5,1.3,5,1.6,4.5,1.9c0.4,2.3-0.3,3-2.6,2.6C1.6,5,1.3,5.5,1,6.1c1.5,1.8,1.2,2.8-1,3.6c0,0.3,0,0.6,0,1c0,0.3,0,0.6,0,1
	c2.2,0.8,2.5,1.8,1,3.6c0.3,0.6,0.6,1.1,0.9,1.6c2.3-0.4,3,0.3,2.6,2.6c0.5,0.3,1,0.7,1.6,0.9c1.8-1.5,2.8-1.2,3.6,1
	c0.3,0,0.6,0,1,0c0.3,0,0.6,0,1,0c0.8-2.2,1.8-2.5,3.6-1c0.6-0.3,1.1-0.6,1.6-0.9c-0.4-2.3,0.3-3,2.6-2.6c0.3-0.5,0.7-1,0.9-1.6
	C18.7,13.4,19,12.4,21.2,11.6z M10.6,16.6c-3.3,0-6-2.7-6-6c0-3.3,2.7-6,6-6c3.3,0,6,2.7,6,6C16.6,13.9,13.9,16.6,10.6,16.6z"/>
</svg>
