<?xml version="1.0" encoding="utf-8"?>
<!-- Generator: Adobe Illustrator 22.1.0, SVG Export Plug-In . SVG Version: 6.00 Build 0)  -->
<svg version="1.1" id="Layer_1" xmlns="http://www.w3.org/2000/svg" xmlns:xlink="http://www.w3.org/1999/xlink" x="0px" y="0px"
	 viewBox="0 0 24.2 20.3" style="enable-background:new 0 0 24.2 20.3;" xml:space="preserve">
<style type="text/css">
	.st0{fill:#171812;}
</style>
<g>
	<path class="st0" d="M7.9,7.9c2.2,0,4-1.8,4-4c0-2.2-1.8-4-4-4C5.7,0,4,1.8,4,4C4,6.1,5.7,7.9,7.9,7.9z"/>
	<path class="st0" d="M23.5,9.2c0-0.4-0.3-0.8-0.7-1.2c-0.6-0.6-1.4-0.8-1.7-0.4L21,7.7c-0.6-0.1-1.2-0.2-1.8-0.3c1.2-0.7,2-2,2-3.5
		c0-2.2-1.8-4-4-4c-2.2,0-4,1.8-4,4c0,1.3,0.6,2.5,1.6,3.2c-0.6,0-1.2,0.1-1.7,0.2c-0.8,0.1-1.5,0.3-2.3,0.6L7.9,8.2
		c0,0-3.8-0.4-5.1,0c-1.5,0.5-3,7-2.8,10.7c0.1,1.7,2.8,1.9,2.7,0.1c-0.1-2.4,0-4.8,0.7-7.1v5.1c0,1,0.7,1.8,1.7,1.8h3.6
		c0.9,0,1.3-0.7,1.7-1.8l1.9-6.7c0.2-0.1,0.4-0.1,0.5-0.2l-2.1,7.4c0,1,0.9,1.3,1.9,1.3h3.4c0.3,0,0.8-0.2,1-0.5l4.9-6.5
		c0.2,1.2-0.7,3.8-2.4,6.1c-0.8,1.1,1.5,2.7,2.7,0.7C22.8,17.6,25.5,12,23.5,9.2z"/>
</g>
</svg>
