<?xml version="1.0" encoding="utf-8"?>
<!-- Generator: Adobe Illustrator 22.1.0, SVG Export Plug-In . SVG Version: 6.00 Build 0)  -->
<svg version="1.1" id="Layer_1" xmlns="http://www.w3.org/2000/svg" xmlns:xlink="http://www.w3.org/1999/xlink" x="0px" y="0px"
	 viewBox="0 0 78.3 78.3" style="enable-background:new 0 0 78.3 78.3;" xml:space="preserve">
<style type="text/css">
	.st0{fill-rule:evenodd;clip-rule:evenodd;fill:#E94B35;}
	.st1{fill-rule:evenodd;clip-rule:evenodd;fill:#1AAF5D;}
	.st2{fill-rule:evenodd;clip-rule:evenodd;fill:#F2C500;}
	.st3{fill:#F2C500;}
	.st4{fill:#E94B35;}
	.st5{fill-rule:evenodd;clip-rule:evenodd;fill:#FFFFFF;}
	.st6{fill-rule:evenodd;clip-rule:evenodd;fill:#2C97DE;}
	.st7{fill:#273376;}
	.st8{fill:#FFFFFF;}
	.st9{fill:#D21D2C;}
	.st10{fill:#F8C861;}
</style>
<g>
	<path class="st0" d="M26.1,76.1V2.2c4.1-1.4,8.5-2.2,13-2.2c21.6,0,39.1,17.5,39.1,39.1c0,21.6-17.5,39.1-39.1,39.1
		C34.6,78.3,30.2,77.5,26.1,76.1z"/>
	<path class="st1" d="M26.1,2.2v73.8C10.9,70.7,0,56.2,0,39.1C0,22.1,10.9,7.6,26.1,2.2z"/>
	<path class="st2" d="M26.1,50.6c7.2,0,13-5.8,13-13c0-7.2-5.8-13-13-13c-7.2,0-13,5.8-13,13C13,44.7,18.9,50.6,26.1,50.6z
		 M26.1,53.8c-9,0-16.3-7.3-16.3-16.3c0-9,7.3-16.3,16.3-16.3s16.3,7.3,16.3,16.3C42.4,46.5,35.1,53.8,26.1,53.8z"/>
	<path class="st3" d="M35.1,28.5v10.6c0,5-4,9-9,9s-9-4-9-9V28.5H35.1z"/>
	<path class="st4" d="M17.9,29.4h16.3v9.8c0,4.5-3.7,8.2-8.2,8.2s-8.2-3.7-8.2-8.2V29.4z"/>
	<path class="st5" d="M21.2,39.1c0,2.7,2.2,4.9,4.9,4.9c2.7,0,4.9-2.2,4.9-4.9v-6.5h-9.8V39.1z"/>
	<rect x="25.3" y="34.2" class="st6" width="1.6" height="1.6"/>
	<rect x="22.8" y="37.5" class="st6" width="1.6" height="1.6"/>
	<rect x="27.7" y="37.5" class="st6" width="1.6" height="1.6"/>
	<rect x="25.3" y="40.8" class="st6" width="1.6" height="1.6"/>
	<rect x="25.3" y="37.5" class="st6" width="1.6" height="1.6"/>
</g>
</svg>
