<?xml version="1.0" encoding="utf-8"?>
<!-- Generator: Adobe Illustrator 22.1.0, SVG Export Plug-In . SVG Version: 6.00 Build 0)  -->
<svg version="1.1" id="Layer_1" xmlns="http://www.w3.org/2000/svg" xmlns:xlink="http://www.w3.org/1999/xlink" x="0px" y="0px"
	 viewBox="0 0 174.7 70.2" style="enable-background:new 0 0 174.7 70.2;" xml:space="preserve">
<style type="text/css">
	.st0{fill:#F8C861;}
	.st1{fill:#FFFFFF;}
	.st2{fill:#146734;}
	.st3{fill:#D42D27;}
	.st4{fill:#FFCB4C;}
	.st5{fill:#8099CC;}
	.st6{fill:#253D8F;}
	.st7{fill-rule:evenodd;clip-rule:evenodd;fill:none;}
	.st8{clip-path:url(#SVGID_1_);fill:#F8BB15;}
	.st9{clip-path:url(#SVGID_2_);fill:#E94434;}
	.st10{clip-path:url(#SVGID_3_);fill:#32A852;}
	.st11{clip-path:url(#SVGID_4_);fill:#547DBE;}
</style>
<g>
	<rect y="39.9" class="st0" width="11.4" height="11.4"/>
	<polygon class="st1" points="34.5,37.4 44.9,50.6 57.9,50.6 43.7,35 56.5,20.8 44,20.8 34.5,32.6 34.5,0 24.4,0 24.4,50.6 
		34.5,50.6 	"/>
	<path class="st1" d="M76.7,28.3c1.6,0,3,0.5,4,1.7h0.1v-9.2c-0.8-0.4-2.2-0.7-3-0.7c-3.7,0-6.3,2.1-7.8,4.3v-3.6H59.9v29.7H70V35.8
		C70,32.2,72.9,28.3,76.7,28.3z"/>
	<path class="st1" d="M100.9,20.2c-9.3,0-17,6.2-17,15.5c0,9.5,7.5,15.4,17,15.4c9.4,0,16.9-5.9,16.9-15.4
		C117.9,26.4,110.2,20.2,100.9,20.2z M100.9,43.6c-5.5,0-6.9-4-6.9-7.8c0-3.7,1.6-7.7,6.9-7.7c5.3,0,6.9,4,6.9,7.7
		C107.8,39.6,106.3,43.6,100.9,43.6z"/>
	<polygon class="st1" points="174.4,20.8 163.3,20.8 157.1,40.3 150.5,20.8 142.7,20.8 136.1,40.3 130.1,20.8 119,20.8 129.3,50.6 
		140.9,50.6 146.6,32 152.4,50.6 163.9,50.6 	"/>
	<g>
		<path class="st1" d="M4.5,70.1h-4l0.1-2.4L0.4,62h1l-0.1,5.6l0,1.7h3l0.1,0.1L4.5,70.1z"/>
	</g>
	<g>
		<path class="st1" d="M11.9,70.1h-1l0.1-2.4L10.9,62h1l-0.1,5.6L11.9,70.1z"/>
	</g>
	<g>
		<path class="st1" d="M20.4,65.7l1.4,0l1.3,0l0.1,0.1l-0.1,0.8l-1.4,0l-1.3,0l0,1.1l0.1,2.5h-1l0.1-2.4L19.4,62h4.3l0.1,0.1
			l-0.1,0.8l-1.9-0.1l-1.4,0L20.4,65.7z"/>
	</g>
	<g>
		<path class="st1" d="M34.6,70.1h-4.6l0.1-2.4L30.1,62h4.6l0.1,0.1l-0.1,0.8l-1.9,0l-1.6,0l0,2.7l1.5,0l1.3,0l0.1,0.1l-0.1,0.8
			l-1.4,0l-1.4,0l0,1.2l0,1.7l1.6,0l2-0.1l0.1,0.1L34.6,70.1z"/>
	</g>
	<g>
		<path class="st1" d="M45.3,62.3l-0.2,1L45,63.3c-0.5-0.4-1-0.6-1.6-0.6c-0.3,0-0.6,0.1-0.8,0.2s-0.4,0.3-0.5,0.5
			c-0.1,0.2-0.2,0.4-0.2,0.6c0,0.2,0.1,0.4,0.2,0.6c0.1,0.2,0.3,0.3,0.5,0.5c0.2,0.1,0.5,0.3,0.9,0.5c0.5,0.2,0.8,0.4,1.1,0.6
			c0.3,0.2,0.5,0.4,0.7,0.7c0.2,0.3,0.3,0.6,0.3,1c0,0.4-0.1,0.8-0.3,1.2c-0.2,0.4-0.5,0.6-1,0.8c-0.4,0.2-0.9,0.3-1.4,0.3
			c-0.8,0-1.5-0.2-2.2-0.6l0.1-1l0.1-0.1c0.3,0.3,0.6,0.5,1,0.6c0.4,0.1,0.7,0.2,1,0.2c0.3,0,0.6-0.1,0.9-0.2
			c0.2-0.1,0.4-0.3,0.6-0.5c0.1-0.2,0.2-0.4,0.2-0.7c0-0.4-0.1-0.6-0.4-0.9c-0.3-0.2-0.7-0.5-1.2-0.7c-0.4-0.2-0.8-0.4-1.1-0.6
			c-0.3-0.2-0.5-0.4-0.7-0.7c-0.2-0.3-0.3-0.6-0.3-1c0-0.4,0.1-0.8,0.3-1.1c0.2-0.3,0.5-0.6,0.9-0.8c0.4-0.2,0.9-0.3,1.4-0.3
			C44.1,61.9,44.7,62,45.3,62.3z"/>
	</g>
	<g>
		<path class="st1" d="M57.1,62.9l-1.4-0.1h-0.8l0,4.8l0,2.5h-1l0.1-2.4l-0.1-4.9H53l-1.4,0.1l-0.1-0.1l0.1-0.8h5.5l0.1,0.1
			L57.1,62.9z"/>
	</g>
	<g>
		<path class="st1" d="M66.3,70.1h-1l0.1-2.4l0-0.5L62.8,62h1.1l0.2,0.5l1.8,3.7h0.1l1.9-3.6l0.2-0.5h1.1l-2.8,5.2l0,0.5L66.3,70.1z
			"/>
	</g>
	<g>
		<path class="st1" d="M79.6,70.1h-4l0.1-2.4L75.6,62h1l-0.1,5.6l0,1.7h3l0.1,0.1L79.6,70.1z"/>
	</g>
	<g>
		<path class="st1" d="M90.6,70.1H86l0.1-2.4L86,62h4.6l0.1,0.1l-0.1,0.8l-1.9,0l-1.6,0l0,2.7l1.5,0l1.3,0l0.1,0.1l-0.1,0.8l-1.4,0
			l-1.4,0l0,1.2l0,1.7l1.6,0l2-0.1l0.1,0.1L90.6,70.1z"/>
	</g>
	<g>
		<path class="st1" d="M110,62.9c0.6,0.7,0.9,1.7,0.9,3c0,1.4-0.3,2.4-1,3.2c-0.6,0.8-1.5,1.1-2.7,1.1c-1.1,0-1.9-0.4-2.5-1.1
			c-0.6-0.7-0.9-1.7-0.9-3c0-1.4,0.3-2.4,0.9-3.1c0.6-0.7,1.5-1.1,2.7-1.1C108.6,61.9,109.4,62.2,110,62.9z M104.8,66
			c0,2.2,0.8,3.4,2.5,3.4c1.7,0,2.5-1.1,2.5-3.3c0-1.1-0.2-2-0.6-2.5c-0.4-0.5-1-0.8-1.9-0.8C105.7,62.7,104.8,63.8,104.8,66z"/>
	</g>
	<g>
		<path class="st1" d="M118.7,65.7l1.4,0l1.3,0l0.1,0.1l-0.1,0.8l-1.4,0l-1.3,0l0,1.1l0.1,2.5h-1l0.1-2.4l-0.1-5.7h4.3l0.1,0.1
			l-0.1,0.8l-1.9-0.1l-1.4,0L118.7,65.7z"/>
	</g>
	<g>
		<path class="st1" d="M129.3,65.7l1.4,0l1.3,0l0.1,0.1l-0.1,0.8l-1.4,0l-1.3,0l0,1.1l0.1,2.5h-1l0.1-2.4l-0.1-5.7h4.3l0.1,0.1
			l-0.1,0.8l-1.9-0.1l-1.4,0L129.3,65.7z"/>
	</g>
	<g>
		<path class="st1" d="M140,70.1h-1l0.1-2.4L139,62h1l-0.1,5.6L140,70.1z"/>
	</g>
	<g>
		<path class="st1" d="M152.6,62.5l-0.2,0.9l-0.1,0c-0.6-0.5-1.2-0.7-2-0.7c-0.8,0-1.4,0.3-1.9,0.8c-0.4,0.6-0.6,1.4-0.6,2.4
			c0,1.1,0.2,1.9,0.6,2.5c0.4,0.6,1,0.8,1.8,0.8c0.8,0,1.5-0.3,2.1-0.8l0.1,0.1l-0.1,1c-0.7,0.4-1.5,0.6-2.2,0.6
			c-1.1,0-1.9-0.4-2.5-1.1c-0.6-0.7-0.9-1.7-0.9-3c0-1.3,0.3-2.4,0.9-3.1c0.6-0.7,1.5-1.1,2.7-1.1C151.2,61.9,152,62.1,152.6,62.5z"
			/>
	</g>
	<g>
		<path class="st1" d="M163.8,70.1h-4.6l0.1-2.4l-0.1-5.7h4.6l0.1,0.1l-0.1,0.8l-1.9,0l-1.6,0l0,2.7l1.5,0l1.3,0l0.1,0.1l-0.1,0.8
			l-1.4,0l-1.4,0l0,1.2l0,1.7l1.6,0l2-0.1l0.1,0.1L163.8,70.1z"/>
	</g>
	<g>
		<path class="st1" d="M174.5,62.3l-0.2,1l-0.2,0.1c-0.5-0.4-1-0.6-1.6-0.6c-0.3,0-0.6,0.1-0.8,0.2c-0.2,0.1-0.4,0.3-0.5,0.5
			c-0.1,0.2-0.2,0.4-0.2,0.6c0,0.2,0.1,0.4,0.2,0.6c0.1,0.2,0.3,0.3,0.5,0.5c0.2,0.1,0.5,0.3,0.9,0.5c0.5,0.2,0.8,0.4,1.1,0.6
			c0.3,0.2,0.5,0.4,0.7,0.7c0.2,0.3,0.3,0.6,0.3,1c0,0.4-0.1,0.8-0.3,1.2c-0.2,0.4-0.5,0.6-1,0.8c-0.4,0.2-0.9,0.3-1.4,0.3
			c-0.8,0-1.5-0.2-2.2-0.6l0.1-1l0.1-0.1c0.3,0.3,0.6,0.5,1,0.6c0.4,0.1,0.7,0.2,1,0.2c0.3,0,0.6-0.1,0.9-0.2
			c0.2-0.1,0.4-0.3,0.6-0.5c0.1-0.2,0.2-0.4,0.2-0.7c0-0.4-0.1-0.6-0.4-0.9c-0.3-0.2-0.7-0.5-1.2-0.7c-0.4-0.2-0.8-0.4-1.1-0.6
			c-0.3-0.2-0.5-0.4-0.7-0.7c-0.2-0.3-0.3-0.6-0.3-1c0-0.4,0.1-0.8,0.3-1.1c0.2-0.3,0.5-0.6,0.9-0.8c0.4-0.2,0.9-0.3,1.4-0.3
			C173.3,61.9,173.9,62,174.5,62.3z"/>
	</g>
</g>
</svg>
