<?xml version="1.0" encoding="utf-8"?>
<!-- Generator: Adobe Illustrator 22.1.0, SVG Export Plug-In . SVG Version: 6.00 Build 0)  -->
<svg version="1.1" id="Layer_1" xmlns="http://www.w3.org/2000/svg" xmlns:xlink="http://www.w3.org/1999/xlink" x="0px" y="0px"
	 viewBox="0 0 24.7 35.3" style="enable-background:new 0 0 24.7 35.3;" xml:space="preserve">
<style type="text/css">
	.st0{fill:#FFFFFF;}
</style>
<g>
	<g>
		<path class="st0" d="M20.7,10.6h-3.2v2.8h3.2c0.6,0,1.2,0.5,1.2,1.2v16.7c0,0.6-0.5,1.2-1.2,1.2H4c-0.6,0-1.2-0.5-1.2-1.2V14.6
			c0-0.6,0.5-1.2,1.2-1.2h2.8v-2.8H4c-2.2,0-4,1.8-4,4v16.7c0,2.2,1.8,4,4,4h16.7c2.2,0,4-1.8,4-4V14.6
			C24.7,12.4,22.9,10.6,20.7,10.6z"/>
		<path class="st0" d="M7.6,7.5l3.3-2.9v18c0,0.8,0.6,1.4,1.4,1.4s1.4-0.6,1.4-1.4V4.5l3.3,3c0.3,0.2,0.6,0.4,1,0.4
			c0.4,0,0.8-0.2,1.1-0.5c0.5-0.6,0.5-1.5-0.1-2l-5.6-5.1c-0.5-0.5-1.3-0.5-1.9,0L5.7,5.4c-0.6,0.5-0.6,1.4-0.1,2
			C6.1,8,7,8.1,7.6,7.5z"/>
	</g>
</g>
</svg>
