<?xml version="1.0" encoding="utf-8"?>
<!-- Generator: Adobe Illustrator 22.1.0, SVG Export Plug-In . SVG Version: 6.00 Build 0)  -->
<svg version="1.1" id="Layer_1" xmlns="http://www.w3.org/2000/svg" xmlns:xlink="http://www.w3.org/1999/xlink" x="0px" y="0px"
	 viewBox="0 0 26.3 25.7" style="enable-background:new 0 0 26.3 25.7;" xml:space="preserve">
<style type="text/css">
	.st0{fill:#171810;}
</style>
<g>
	<g>
		<path class="st0" d="M20.1,12.3c-0.3-0.1-0.6,0.1-0.6,0.4c-0.5,2.6-2.5,5.8-4.3,6.8c-0.3,0.1-0.3,0.5-0.2,0.7
			c0.1,0.2,0.3,0.3,0.5,0.3c0.1,0,0.2,0,0.3-0.1c2.3-1.3,4.3-4.9,4.8-7.5C20.6,12.6,20.4,12.3,20.1,12.3z"/>
		<path class="st0" d="M25.4,12.8c-0.8-0.6-1.9-0.7-2.9-0.5c0.1-0.6,0.1-1.1,0-1.6c0-0.3-0.2-0.5-0.5-0.5H2.7
			c-0.3,0-0.5,0.2-0.5,0.5C1.9,13.5,3.8,18.8,7,21.5H0.5c-0.2,0-0.3,0.1-0.4,0.2S0,21.9,0,22.1c0.2,1.2,3.7,3.7,6.1,3.7h12.5
			c2.4,0,5.9-2.5,6.1-3.7c0-0.2,0-0.3-0.1-0.4s-0.2-0.2-0.4-0.2h-6.5c0.7-0.6,1.4-1.5,2-2.4c0.1,0,0.1,0,0.2-0.1c1-0.6,2.1-1,3-1.3
			c1.6-0.6,3-1.1,3.2-2.4C26.4,14.3,26.1,13.4,25.4,12.8z M18.6,24.7H6.1c-1.6,0-3.7-1.3-4.6-2.2h21.7
			C22.2,23.4,20.1,24.7,18.6,24.7z M16.1,21.4C16,21.4,16,21.5,16.1,21.4l-7.3,0c0,0,0,0-0.1,0c-3.3-1.8-5.5-7.2-5.5-10.2h18.4
			C21.6,14.4,19,19.8,16.1,21.4z M25.2,15.1c-0.1,0.7-1.1,1.1-2.6,1.6c-0.6,0.2-1.2,0.4-1.8,0.7c0.7-1.3,1.2-2.8,1.5-4.1
			c0.9-0.3,1.9-0.2,2.5,0.2C25.2,13.9,25.3,14.4,25.2,15.1z"/>
		<path class="st0" d="M8.9,8.1C9,8.2,9.1,8.2,9.2,8.2c0.1,0,0.3-0.1,0.4-0.2c0.2-0.2,0.2-0.5,0-0.7C8.8,6.6,9,5.6,9.4,5.1
			c0.7-0.9,0.9-2.4-0.2-3.5C9,1.3,8.6,1.3,8.4,1.5c-0.2,0.2-0.2,0.5,0,0.7C9.1,3,8.9,3.9,8.6,4.5C7.8,5.4,7.8,7.1,8.9,8.1z"/>
		<path class="st0" d="M11.1,5.7c0.1,0.8,0.5,1.5,1.1,2c0.1,0.1,0.2,0.1,0.3,0.1c0.2,0,0.3-0.1,0.4-0.2c0.2-0.2,0.1-0.6-0.1-0.7
			c-0.4-0.3-0.7-0.8-0.7-1.2c-0.1-0.5,0.1-1,0.5-1.4c0.9-1.1,1.2-2.7-0.3-4.1c-0.2-0.2-0.5-0.2-0.7,0c-0.2,0.2-0.2,0.5,0,0.7
			c1,0.9,0.8,1.9,0.2,2.6C11.3,4.1,11,4.9,11.1,5.7z"/>
		<path class="st0" d="M15.7,8.1c0.1,0.1,0.2,0.1,0.3,0.1c0.1,0,0.3-0.1,0.4-0.2c0.2-0.2,0.2-0.5,0-0.7c-0.8-0.7-0.6-1.7-0.2-2.2
			c0.7-0.9,0.9-2.4-0.2-3.5c-0.2-0.2-0.5-0.2-0.7,0c-0.2,0.2-0.2,0.5,0,0.7c0.7,0.8,0.5,1.6,0.1,2.2C14.6,5.4,14.5,7.1,15.7,8.1z"/>
	</g>
</g>
</svg>
