<?xml version="1.0" encoding="utf-8"?>
<!-- Generator: Adobe Illustrator 22.1.0, SVG Export Plug-In . SVG Version: 6.00 Build 0)  -->
<svg version="1.1" id="Layer_1" xmlns="http://www.w3.org/2000/svg" xmlns:xlink="http://www.w3.org/1999/xlink" x="0px" y="0px"
	 viewBox="0 0 20.5 17.2" style="enable-background:new 0 0 20.5 17.2;" xml:space="preserve">
<style type="text/css">
	.st0{fill-rule:evenodd;clip-rule:evenodd;fill:#1C1C1C;}
	.st1{fill:#1C1C1C;}
	.st2{fill:#FFFFFF;}
	.st3{fill:#4285F4;}
	.st4{fill:#737373;}
</style>
<g>
	<g>
		<path class="st1" d="M19.2,14.2v-1.4h-1.1v-1.5h-1.4c0-0.2,0.1-0.4,0.1-0.6c0-1.9-1.6-3.5-3.5-3.5c-1.9,0-3.5,1.6-3.5,3.5
			s1.6,3.5,3.5,3.5c0.3,0,0.5-0.1,0.8-0.2L14,14.1l3.1,3.2h2.7v-3.1L19.2,14.2z M10.4,10.6c0-1.6,1.3-2.9,2.9-2.9
			c1.6,0,2.9,1.3,2.9,2.9s-1.3,2.9-2.9,2.9C11.7,13.6,10.4,12.3,10.4,10.6z M19.2,16.7h-1.9l-2.7-2.8c0.4-0.1,0.7-0.4,1-0.6l1.8,1.8
			l0.4-0.4l-1.8-1.8c0.3-0.3,0.5-0.6,0.6-1h1v1.5h1.1v1.4l0.5,0V16.7z"/>
		<path class="st1" d="M12.5,9.2c-0.4,0-0.7,0.3-0.7,0.7c0,0.4,0.3,0.7,0.7,0.7c0.4,0,0.7-0.3,0.7-0.7C13.2,9.5,12.9,9.2,12.5,9.2z"
			/>
	</g>
	<g>
		<path class="st1" d="M10.4,7.8c0.8-0.8,1.8-1.2,2.9-1.2c1.3,0,2.4,0.6,3.2,1.6l0.6-0.6c-3.8-3.6-9.9-3.6-13.7,0l2.1,2.1
			C6.8,8.4,8.6,7.7,10.4,7.8z"/>
		<path class="st1" d="M18.3,6.4l2.3-2.3C14.8-1.4,5.7-1.4,0,4.1l2.3,2.3C6.7,2.1,13.8,2.1,18.3,6.4z"/>
		<path class="st1" d="M6.6,10.7l3.7,3.7l0.5-0.5c-1-0.8-1.6-1.9-1.6-3.2c0-0.4,0.1-0.9,0.2-1.3C8.4,9.5,7.4,10,6.6,10.7z"/>
	</g>
</g>
</svg>
