<svg xmlns="http://www.w3.org/2000/svg" viewBox="0 0 57.52 57.52"><defs><style>.cls-1{fill:#fff;}</style></defs><g id="Layer_2" data-name="Layer 2"><g id="Layer_1-2" data-name="Layer 1"><rect class="cls-1" width="57.52" height="57.52" rx="10.84"/><path d="M20.94,18.11v3.18H44.76V18.11Zm0,12.74H44.76V27.67H20.94Zm0,9.56H44.76V37.22H20.94Zm-5.11-3.72a2.13,2.13,0,1,0,2.28,2.13A2.2,2.2,0,0,0,15.83,36.69Zm0-19.38a2.4,2.4,0,1,0,0,4.78,2.4,2.4,0,1,0,0-4.78Zm0,9.56a2.4,2.4,0,1,0,0,4.78,2.4,2.4,0,1,0,0-4.78Z"/></g></g></svg>