<?xml version="1.0" encoding="utf-8"?>
<!-- Generator: Adobe Illustrator 22.1.0, SVG Export Plug-In . SVG Version: 6.00 Build 0)  -->
<svg version="1.1" id="Layer_1" xmlns="http://www.w3.org/2000/svg" xmlns:xlink="http://www.w3.org/1999/xlink" x="0px" y="0px"
	 viewBox="0 0 24.6 24.6" style="enable-background:new 0 0 24.6 24.6;" xml:space="preserve">
<style type="text/css">
	.st0{fill:#787878;}
	.st1{fill:#F8C866;}
</style>
<g>
	<path d="M4.2,15.2c-3-3-3-8,0-11c3-3,8-3,11,0c3,3,3,8,0,11C12.2,18.2,7.2,18.2,4.2,15.2z M24.2,22.2l-6.7-6.7
		c2.8-3.8,2.5-9.2-0.9-12.6c-3.8-3.8-9.9-3.8-13.7,0c-3.8,3.8-3.8,9.9,0,13.7c3.4,3.4,8.8,3.7,12.6,0.9l6.7,6.7c0.5,0.5,1.4,0.5,2,0
		C24.7,23.6,24.7,22.7,24.2,22.2z"/>
</g>
</svg>
