<svg xmlns="http://www.w3.org/2000/svg" viewBox="0 0 57.52 57.52"><defs><style>.cls-1{fill:#fff;}</style></defs><g id="Layer_2" data-name="Layer 2"><g id="Layer_1-2" data-name="Layer 1"><rect class="cls-1" width="57.52" height="57.52" rx="10.84"/><path d="M44.18,46.84,37.54,41.2a.25.25,0,0,1-.09-.2V20.69a.24.24,0,0,1,.4-.19l6.64,5.64a.25.25,0,0,1,.09.2V46.65A.24.24,0,0,1,44.18,46.84Z"/><path d="M35.81,20.5l-6.65,5.64a.29.29,0,0,0-.09.2V46.65a.25.25,0,0,0,.41.19l6.64-5.64a.25.25,0,0,0,.09-.2V20.69A.24.24,0,0,0,35.81,20.5Z"/><path d="M25.36,20.41A3.46,3.46,0,1,1,28.74,17,3.41,3.41,0,0,1,25.36,20.41Zm0-9.38a5.73,5.73,0,0,0-5.66,5.8c0,2.26,2.83,7.35,4.49,10.14a1.36,1.36,0,0,0,2.35,0C28.2,24.18,31,19.09,31,16.83A5.72,5.72,0,0,0,25.36,11Z"/><path d="M27.22,17a1.86,1.86,0,0,1-.14.73,1.8,1.8,0,0,1-.4.61,2,2,0,0,1-.61.42,1.87,1.87,0,0,1-.71.14,2,2,0,0,1-.71-.14,1.81,1.81,0,0,1-.6-.42,1.66,1.66,0,0,1-.4-.61A1.87,1.87,0,0,1,23.5,17a1.8,1.8,0,0,1,.15-.73,1.7,1.7,0,0,1,.4-.62,1.65,1.65,0,0,1,.6-.41,1.78,1.78,0,0,1,.71-.15,1.71,1.71,0,0,1,.71.15,1.77,1.77,0,0,1,.61.41,1.84,1.84,0,0,1,.4.62A1.79,1.79,0,0,1,27.22,17Z"/><path d="M26.73,28.69a1.58,1.58,0,0,1-2.74,0c-.93-1.57-2.19-3.77-3.23-5.92V41a.25.25,0,0,0,.09.2l6.64,5.64a.24.24,0,0,0,.4-.19v-20C27.48,27.42,27.08,28.1,26.73,28.69Z"/><path d="M19.48,20.44a.22.22,0,0,0-.18.06l-6.64,5.64a.25.25,0,0,0-.09.2V46.65a.24.24,0,0,0,.4.19l6.64-5.64a.25.25,0,0,0,.09-.2V21C19.63,20.79,19.55,20.62,19.48,20.44Z"/></g></g></svg>