<?xml version="1.0" encoding="utf-8"?>
<!-- Generator: Adobe Illustrator 22.1.0, SVG Export Plug-In . SVG Version: 6.00 Build 0)  -->
<svg version="1.1" id="Layer_1" xmlns="http://www.w3.org/2000/svg" xmlns:xlink="http://www.w3.org/1999/xlink" x="0px" y="0px"
	 viewBox="0 0 15.6 9.3" style="enable-background:new 0 0 15.6 9.3;" xml:space="preserve">
<style type="text/css">
	.st0{fill:#787878;}
	.st1{fill:#F8C866;}
</style>
<path d="M14.4,4.8c-0.1-0.1-0.3-0.2-0.4-0.3c0.3-0.5,0.5-1.1,0.5-1.7c0-1.6-1.3-2.9-2.9-2.9c-1.2,0-2.3,0.7-2.7,1.8
	C8.6,1.6,8.2,1.5,7.8,1.5C7.4,1.5,7,1.6,6.7,1.8C6.3,0.7,5.2,0,4,0C2.4,0,1.1,1.3,1.1,2.9c0,0.6,0.2,1.2,0.5,1.7
	C1.5,4.6,1.3,4.7,1.2,4.8C0.5,5.3,0,6.1,0,6.8c0,0.3,0,0.5,0.1,0.8l0.1,0.3l0.3,0.1c1,0.2,2.2,0.4,3.6,0.4c0,0,0,0,0.1,0
	c0,0,0,0,0,0c0,0.2,0,0.4,0.1,0.6c1,0.2,2.2,0.4,3.7,0.4c1.4,0,2.7-0.1,3.7-0.4c0.1-0.2,0.1-0.4,0.1-0.6c0,0,0,0,0,0c0,0,0,0,0.1,0
	c1.3,0,2.6-0.1,3.6-0.4l0.3-0.1l0.1-0.3c0.1-0.2,0.1-0.5,0.1-0.7v0C15.6,6.1,15.1,5.3,14.4,4.8z M1,7c0,0,0-0.1,0-0.1
	C1,6.4,1.3,6,1.8,5.6C2,5.4,2.3,5.3,2.6,5.2l0.9-0.3L2.8,4.3C2.3,4,2.1,3.5,2.1,2.9C2.1,1.8,2.9,1,4,1c0.9,0,1.6,0.6,1.9,1.4
	c-0.4,0.4-0.7,1-0.7,1.7c0,0.1,0,0.2,0,0.3L4.6,4.9l0.9,0.3c0,0,0.1,0,0.1,0C5.7,5.5,5.9,5.8,6.1,6c-0.4,0.1-0.7,0.3-1,0.5
	C4.8,6.8,4.6,7,4.4,7.3C3.2,7.3,2,7.2,1,7z M14.6,7c-1,0.2-2.2,0.3-3.4,0.3C11,7,10.8,6.8,10.5,6.5c-0.3-0.2-0.6-0.4-1-0.5
	c0.3-0.2,0.5-0.5,0.6-0.8c0,0,0.1,0,0.1,0L11,4.9l-0.7-0.6c0-0.1,0-0.2,0-0.3c0-0.6-0.3-1.2-0.7-1.7C10,1.6,10.7,1,11.6,1
	c1.1,0,1.9,0.8,1.9,1.9c0,0.6-0.3,1.1-0.7,1.4l-0.7,0.6L13,5.2c0.3,0.1,0.6,0.2,0.8,0.4c0.5,0.3,0.8,0.8,0.8,1.3
	C14.6,6.9,14.6,7,14.6,7z"/>
</svg>
