<?xml version="1.0" encoding="utf-8"?>
<!-- Generator: Adobe Illustrator 22.1.0, SVG Export Plug-In . SVG Version: 6.00 Build 0)  -->
<svg version="1.1" id="Layer_1" xmlns="http://www.w3.org/2000/svg" xmlns:xlink="http://www.w3.org/1999/xlink" x="0px" y="0px"
	 viewBox="0 0 83.2 11.7" style="enable-background:new 0 0 83.2 11.7;" xml:space="preserve">
<style type="text/css">
	.st0{fill:#787878;}
	.st1{fill:#F8C866;}
</style>
<g>
	<polygon class="st0" points="5.8,0 7.6,3.8 11.7,4.5 8.8,7.5 9.5,11.7 5.8,9.7 2.2,11.7 2.9,7.5 0,4.5 4,3.8 	"/>
	<polygon class="st0" points="23.7,0 25.5,3.8 29.6,4.5 26.6,7.5 27.3,11.7 23.7,9.7 20.1,11.7 20.8,7.5 17.9,4.5 21.9,3.8 	"/>
	<polygon class="st0" points="41.6,0 43.4,3.8 47.4,4.5 44.5,7.5 45.2,11.7 41.6,9.7 38,11.7 38.7,7.5 35.8,4.5 39.8,3.8 	"/>
	<polygon class="st0" points="59.5,0 61.3,3.8 65.3,4.5 62.4,7.5 63.1,11.7 59.5,9.7 55.9,11.7 56.5,7.5 53.6,4.5 57.7,3.8 	"/>
	<polygon class="st0" points="77.3,0 79.1,3.8 83.2,4.5 80.3,7.5 81,11.7 77.3,9.7 73.7,11.7 74.4,7.5 71.5,4.5 75.5,3.8 	"/>
</g>
</svg>
