<?xml version="1.0" encoding="utf-8"?>
<!-- Generator: Adobe Illustrator 22.1.0, SVG Export Plug-In . SVG Version: 6.00 Build 0)  -->
<svg version="1.1" id="Layer_1" xmlns="http://www.w3.org/2000/svg" xmlns:xlink="http://www.w3.org/1999/xlink" x="0px" y="0px"
	 viewBox="0 0 31.1 23.8" style="enable-background:new 0 0 31.1 23.8;" xml:space="preserve">
<style type="text/css">
	.st0{clip-path:url(#SVGID_1_);}
</style>
<g>
	<defs>
		<rect id="SVGID_5_" width="31.1" height="23.8"/>
	</defs>
	<clipPath id="SVGID_1_">
		<use xlink:href="#SVGID_5_"  style="overflow:visible;"/>
	</clipPath>
	<path class="st0" d="M7.7,0.9v3.2h23.8V0.9H7.7z M7.7,13.6h23.8v-3.2H7.7V13.6z M7.7,23.2h23.8V20H7.7V23.2z M2.6,19.5
		c-1.3,0-2.3,0.9-2.3,2.1c0,1.2,1,2.1,2.3,2.1s2.3-0.9,2.3-2.1C4.8,20.4,3.8,19.5,2.6,19.5z M2.6,0.1C1.1,0.1,0,1.2,0,2.5
		c0,1.3,1.1,2.4,2.6,2.4s2.6-1.1,2.6-2.4C5.1,1.2,4,0.1,2.6,0.1z M2.6,9.6C1.1,9.6,0,10.7,0,12c0,1.3,1.1,2.4,2.6,2.4
		s2.6-1.1,2.6-2.4C5.1,10.7,4,9.6,2.6,9.6z"/>
</g>
</svg>
