<?xml version="1.0" encoding="utf-8"?>
<!-- Generator: Adobe Illustrator 22.1.0, SVG Export Plug-In . SVG Version: 6.00 Build 0)  -->
<svg version="1.1" id="Layer_1" xmlns="http://www.w3.org/2000/svg" xmlns:xlink="http://www.w3.org/1999/xlink" x="0px" y="0px"
	 viewBox="0 0 26.3 25.1" style="enable-background:new 0 0 26.3 25.1;" xml:space="preserve">
<style type="text/css">
	.st0{fill:#171810;}
</style>
<g>
	<g>
		<path class="st0" d="M19.9,11.8c-0.3-0.1-0.6,0.1-0.6,0.4C18.8,14.8,16.8,18,15,19c-0.3,0.1-0.3,0.5-0.2,0.7
			c0.1,0.2,0.3,0.3,0.5,0.3c0.1,0,0.2,0,0.3-0.1c2.3-1.3,4.3-4.9,4.8-7.5C20.4,12.1,20.2,11.8,19.9,11.8z"/>
		<path class="st0" d="M25.5,12.1c-0.8-0.6-1.9-0.7-2.9-0.5c0.1-0.6,0.1-1.1,0-1.6c0-0.3-0.2-0.5-0.5-0.5h-0.2
			c0-0.4-0.1-0.8-0.2-1.2c-0.3-0.8-0.8-1.4-1.4-2c-1.3-1-2.6-1.3-3.9-1.7c-1.9-0.5-3.5-1-4.5-3.3l-0.4-1.1C11.3,0.1,11.2,0,11,0
			c-0.2,0-0.4,0.1-0.5,0.2L9.8,1.1c-1,1.4-1.6,1.7-2.7,2.2c-0.5,0.3-1.1,0.6-1.8,1L4.9,4.6c-1,0.6-1.6,1.6-1.8,2.8
			C3,8.1,3,8.8,3.2,9.5H2.7c-0.3,0-0.5,0.2-0.5,0.5C1.9,12.8,3.8,18.1,7,20.8H0.5c-0.2,0-0.3,0.1-0.4,0.2C0,21.1,0,21.2,0,21.4
			c0.1,0.9,1.9,2.1,2.2,2.3c0.8,0.5,2.4,1.4,3.9,1.4h12.5c1.5,0,3.2-1,3.9-1.4c0.4-0.2,2.1-1.4,2.3-2.3c0-0.2,0-0.3-0.1-0.4
			c-0.1-0.1-0.2-0.2-0.4-0.2h-6.5c0.7-0.6,1.4-1.4,2-2.4c0.1,0,0.1,0,0.2-0.1c1-0.6,2.1-1,3-1.3c1.6-0.6,3-1.1,3.2-2.4
			C26.5,13.6,26.2,12.7,25.5,12.1z M4.3,9.4C4.1,8.8,4,8.2,4.1,7.6C4.2,7,4.5,6.1,5.5,5.5l0.4-0.2c0.7-0.4,1.3-0.7,1.8-1
			c1.1-0.6,1.9-1,3-2.5l0.1-0.2l0.1,0.2c1.2,2.8,3.2,3.4,5.1,3.9c1.3,0.3,2.5,0.7,3.6,1.5c0.5,0.4,0.9,0.9,1.1,1.5
			c0.1,0.3,0.1,0.6,0.1,0.9L4.3,9.4C4.3,9.5,4.3,9.4,4.3,9.4z M18.7,24H6.1c-0.9,0-2.1-0.4-3.3-1.2c-0.6-0.4-1-0.7-1.3-1h21.7
			C22.3,22.7,20.2,24,18.7,24z M16.1,20.7C16.1,20.7,16,20.8,16.1,20.7l-7.3,0c0,0,0,0-0.1,0c-3.3-1.8-5.5-7.2-5.5-10.2h18.4
			C21.6,13.7,19,19.1,16.1,20.7z M25.2,14.4c-0.1,0.7-1.1,1.1-2.6,1.6c-0.6,0.2-1.2,0.4-1.8,0.7c0.1-0.1,0.1-0.2,0.2-0.3
			c0.6-1.3,1.1-2.6,1.4-3.8c0.9-0.3,1.9-0.2,2.4,0.2C25.2,13.2,25.4,13.7,25.2,14.4z"/>
	</g>
</g>
</svg>
