<?xml version="1.0" encoding="utf-8"?>
<!-- Generator: Adobe Illustrator 22.1.0, SVG Export Plug-In . SVG Version: 6.00 Build 0)  -->
<svg version="1.1" id="Layer_1" xmlns="http://www.w3.org/2000/svg" xmlns:xlink="http://www.w3.org/1999/xlink" x="0px" y="0px"
	 viewBox="0 0 22.1 25.5" style="enable-background:new 0 0 22.1 25.5;" xml:space="preserve">
<style type="text/css">
	.st0{fill:#171810;}
</style>
<path class="st0" d="M22.1,7.5l-0.9-1.8c-0.1-0.2-0.3-0.3-0.4-0.3l-3.6,0h0c0,0,0,0,0,0l-5.6-2.2c0,0,0,0,0,0l0.3-2.1
	c0-0.2-0.1-0.4-0.3-0.5L10.2,0c-0.1,0-0.2,0-0.4,0L8.5,0.5C8.3,0.6,8.2,0.8,8.2,1.1l0.3,2.1c0,0,0,0-0.1,0L2.7,5.5c0,0-0.1,0-0.1,0
	L0.5,5.6c-0.2,0-0.3,0.1-0.4,0.3S0,6.3,0.1,6.4l3.2,4.7L3.6,14c0,0,0,0,0,0c0.1,0.5,0.4,0.8,0.9,0.8l0,1.9c-0.3,0.1-0.4,0.4-0.5,0.7
	c0,0,0,0,0,0l-0.8,6.3c0,0.1,0,0.1,0,0.2c0,0.4,0.1,0.8,0.4,1.1c0.3,0.3,0.7,0.5,1.1,0.5h10.5c0.4,0,0.9-0.3,1.1-0.5
	c0.3-0.3,0.4-0.7,0.4-1.1c0-0.1,0-0.1,0-0.2L16,17.6c0-0.3-0.2-0.6-0.5-0.8v-1.9h0c0.5,0,0.9-0.4,0.9-0.9L17,8.8l0.4-2.5
	c0,0,0,0,0,0l3,0l0.7,1.4L19.2,15c-0.1,0.3,0.1,0.5,0.4,0.6c0,0,0.1,0,0.1,0c0.2,0,0.4-0.1,0.5-0.4l1.9-7.4
	C22.1,7.7,22.1,7.6,22.1,7.5z M16.1,8.4C16.1,8.4,16.1,8.4,16.1,8.4l-0.7,5.5h-0.3c0,0,0,0-0.1,0h-2.6l0.4-7.3c0-0.1,0-0.1,0-0.2
	h3.5L16.1,8.4z M5.5,16.8v-1.9h8.9v1.9H5.5z M11.5,17.7l0.2,6.8H8.3l0.2-6.8H11.5z M8.1,6.5c0,0,0-0.1,0-0.1H12c0,0,0,0.1,0,0.1
	l-0.4,7.3h-3L8.1,6.5z M10,1l0.8,0.3l-0.3,1.9H9.6L9.3,1.3L10,1z M8.8,4.2h2.5l3.3,1.3h-9L8.8,4.2z M2.6,6.5L3,8.9L1.4,6.6L2.6,6.5z
	 M4.2,10.8c0-0.1,0-0.1,0-0.2L3.6,6.5l0.6,0h2.9c0,0.1,0,0.1,0,0.2l0.4,7.3H5c0,0,0,0-0.1,0H4.6L4.2,10.8
	C4.2,10.8,4.2,10.8,4.2,10.8z M4.4,24.4c-0.1-0.1-0.2-0.3-0.1-0.5L5,17.7h2.5l-0.2,6.8H4.8C4.6,24.6,4.5,24.5,4.4,24.4z M15.8,24
	c0,0.1-0.1,0.3-0.2,0.4c-0.1,0.1-0.3,0.2-0.3,0.2h-2.5l-0.2-6.8H15L15.8,24z"/>
</svg>
