<?xml version="1.0" encoding="utf-8"?>
<!-- Generator: Adobe Illustrator 22.1.0, SVG Export Plug-In . SVG Version: 6.00 Build 0)  -->
<svg version="1.1" id="Layer_1" xmlns="http://www.w3.org/2000/svg" xmlns:xlink="http://www.w3.org/1999/xlink" x="0px" y="0px"
	 viewBox="0 0 27.6 17" style="enable-background:new 0 0 27.6 17;" xml:space="preserve">
<style type="text/css">
	.st0{fill:#777777;}
</style>
<g>
	<path class="st0" d="M27.6,12.3c0-1.2-0.7-2.4-1.9-3.2c-0.5-0.4-1.1-0.7-1.8-0.9c1-0.9,1.6-2.1,1.6-3.6C25.6,2.1,23.5,0,21,0
		c-2.5,0-4.6,2.1-4.6,4.6c0,1.4,0.6,2.7,1.6,3.6c-0.7,0.2-1.3,0.6-1.8,0.9c-1.1,0.8-1.8,2-1.9,3.2c0,0.4,0,0.8,0.1,1.1
		c1.7,0.4,4,0.7,6.5,0.7c2.5,0,4.8-0.3,6.5-0.7C27.6,13.1,27.6,12.8,27.6,12.3"/>
	<path class="st0" d="M13.3,12.3c0-1.2-0.7-2.4-1.9-3.2c-0.5-0.4-1.1-0.7-1.8-0.9c1-0.9,1.6-2.1,1.6-3.6C11.2,2.1,9.2,0,6.6,0
		C4.1,0,2,2.1,2,4.6c0,1.4,0.6,2.7,1.6,3.6C3,8.4,2.4,8.8,1.9,9.1c-1.1,0.8-1.8,2-1.9,3.2c0,0.4,0,0.8,0.1,1.1
		c1.7,0.4,4,0.7,6.5,0.7c2.5,0,4.8-0.3,6.5-0.7C13.2,13.1,13.3,12.8,13.3,12.3"/>
	<path d="M20.9,15.1c0-1.3-0.8-2.5-2-3.4c-0.6-0.4-1.2-0.8-1.9-1c1.1-0.9,1.8-2.3,1.8-3.8c0-2.7-2.2-4.9-4.9-4.9
		c-2.7,0-4.9,2.2-4.9,4.9c0,1.5,0.7,2.9,1.8,3.8c-0.7,0.3-1.4,0.6-1.9,1c-1.2,0.9-1.9,2.1-2,3.4c0,0.5,0,0.9,0.1,1.2
		c1.8,0.5,4.3,0.7,6.9,0.7c2.7,0,5.1-0.3,6.9-0.7C20.8,16,20.9,15.6,20.9,15.1"/>
</g>
</svg>
