<?xml version="1.0" encoding="utf-8"?>
<!-- Generator: Adobe Illustrator 22.1.0, SVG Export Plug-In . SVG Version: 6.00 Build 0)  -->
<svg version="1.1" id="Layer_1" xmlns="http://www.w3.org/2000/svg" xmlns:xlink="http://www.w3.org/1999/xlink" x="0px" y="0px"
	 viewBox="0 0 33.8 33.8" style="enable-background:new 0 0 33.8 33.8;" xml:space="preserve">
<style type="text/css">
	.st0{fill-rule:evenodd;clip-rule:evenodd;fill:#1C1C1C;}
	.st1{fill:#1C1C1C;}
	.st2{fill:#FFFFFF;}
	.st3{fill:#4285F4;}
	.st4{fill:#737373;}
</style>
<g>
	<g>
		<path class="st2" d="M16.9,0c-1.1,0-2.2,0.1-3.3,0.3c-1.1,0.2-2.1,0.5-3.2,1s-2,0.9-2.9,1.6C6.6,3.5,5.7,4.2,4.9,4.9
			C4.2,5.7,3.5,6.6,2.8,7.5c-0.6,0.9-1.1,1.9-1.6,2.9s-0.7,2.1-1,3.2C0.1,14.7,0,15.8,0,16.9c0,1.1,0.1,2.2,0.3,3.3
			c0.2,1.1,0.5,2.1,1,3.2s0.9,2,1.6,2.9c0.6,0.9,1.3,1.8,2.1,2.6s1.6,1.5,2.6,2.1c0.9,0.6,1.9,1.1,2.9,1.6c1,0.4,2.1,0.7,3.2,1
			c1.1,0.2,2.2,0.3,3.3,0.3s2.2-0.1,3.3-0.3c1.1-0.2,2.1-0.5,3.2-1c1-0.4,2-0.9,2.9-1.6c0.9-0.6,1.8-1.3,2.6-2.1
			c0.8-0.8,1.5-1.6,2.1-2.6c0.6-0.9,1.1-1.9,1.6-2.9c0.4-1,0.7-2.1,1-3.2c0.2-1.1,0.3-2.2,0.3-3.3c0-1.1-0.1-2.2-0.3-3.3
			c-0.2-1.1-0.5-2.1-1-3.2c-0.4-1-0.9-2-1.6-2.9c-0.6-0.9-1.3-1.8-2.1-2.6c-0.8-0.8-1.6-1.5-2.6-2.1c-0.9-0.6-1.9-1.1-2.9-1.6
			c-1-0.4-2.1-0.7-3.2-1C19.1,0.1,18,0,16.9,0z"/>
	</g>
</g>
</svg>
