<?xml version="1.0" encoding="utf-8"?>
<!-- Generator: Adobe Illustrator 22.1.0, SVG Export Plug-In . SVG Version: 6.00 Build 0)  -->
<svg version="1.1" id="Layer_1" xmlns="http://www.w3.org/2000/svg" xmlns:xlink="http://www.w3.org/1999/xlink" x="0px" y="0px"
	 viewBox="0 0 38.3 38.3" style="enable-background:new 0 0 38.3 38.3;" xml:space="preserve">
<style type="text/css">
	.st0{fill:#FFFFFF;}
	.st1{fill:#231F20;}
</style>
<g>
	<path class="st0" d="M19.2,0c-1.3,0-2.5,0.1-3.7,0.4C14.2,0.6,13,1,11.8,1.5c-1.2,0.5-2.3,1.1-3.3,1.8s-2,1.5-2.9,2.4
		S3.9,7.5,3.2,8.5c-0.7,1-1.3,2.2-1.8,3.3C1,13,0.6,14.2,0.4,15.4C0.1,16.7,0,17.9,0,19.2s0.1,2.5,0.4,3.7c0.2,1.2,0.6,2.4,1.1,3.6
		c0.5,1.2,1.1,2.3,1.8,3.3s1.5,2,2.4,2.9c0.9,0.9,1.9,1.7,2.9,2.4c1,0.7,2.2,1.3,3.3,1.8c1.2,0.5,2.4,0.8,3.6,1.1
		c1.2,0.2,2.5,0.4,3.7,0.4s2.5-0.1,3.7-0.4c1.2-0.2,2.4-0.6,3.6-1.1c1.2-0.5,2.3-1.1,3.3-1.8c1-0.7,2-1.5,2.9-2.4
		c0.9-0.9,1.7-1.9,2.4-2.9c0.7-1,1.3-2.2,1.8-3.3c0.5-1.2,0.8-2.4,1.1-3.6c0.2-1.2,0.4-2.5,0.4-3.7s-0.1-2.5-0.4-3.7
		c-0.2-1.2-0.6-2.4-1.1-3.6c-0.5-1.2-1.1-2.3-1.8-3.3c-0.7-1-1.5-2-2.4-2.9c-0.9-0.9-1.9-1.7-2.9-2.4c-1-0.7-2.2-1.3-3.3-1.8
		c-1.2-0.5-2.4-0.8-3.6-1.1C21.7,0.1,20.4,0,19.2,0z"/>
	<g>
		<path class="st1" d="M20.2,19.2l6.3-6.3c0.3-0.3,0.3-0.8,0-1.1c-0.3-0.3-0.8-0.3-1.1,0l-6.3,6.3L13,12c-0.3-0.3-0.8-0.3-1.1,0
			c-0.3,0.3-0.3,0.8,0,1.1l6.1,6.1l-6,6c-0.3,0.3-0.3,0.8,0,1.1c0.2,0.2,0.4,0.2,0.6,0.2c0.2,0,0.4-0.1,0.6-0.2l6-6l6.1,6.1
			c0.2,0.2,0.4,0.2,0.6,0.2c0.2,0,0.4-0.1,0.6-0.2c0.3-0.3,0.3-0.8,0-1.1L20.2,19.2z"/>
	</g>
</g>
</svg>
