<?xml version="1.0" encoding="utf-8"?>
<!-- Generator: Adobe Illustrator 22.1.0, SVG Export Plug-In . SVG Version: 6.00 Build 0)  -->
<svg version="1.1" id="Layer_1" xmlns="http://www.w3.org/2000/svg" xmlns:xlink="http://www.w3.org/1999/xlink" x="0px" y="0px"
	 viewBox="0 0 32 35.9" style="enable-background:new 0 0 32 35.9;" xml:space="preserve">
<style type="text/css">
	.st0{fill:#787878;}
	.st1{fill:#F8C866;}
</style>
<g>
	<g>
		<g>
			<g>
				<path d="M31.6,35.8L25,30.2c-0.1,0-0.1-0.1-0.1-0.2V9.7c0-0.2,0.2-0.3,0.4-0.2l6.6,5.6c0.1,0,0.1,0.1,0.1,0.2v20.3
					C32,35.8,31.8,36,31.6,35.8z"/>
				<path d="M23.2,9.5l-6.6,5.6c-0.1,0-0.1,0.1-0.1,0.2v20.3c0,0.2,0.2,0.3,0.4,0.2l6.6-5.6c0.1,0,0.1-0.1,0.1-0.2V9.7
					C23.6,9.4,23.4,9.3,23.2,9.5z"/>
				<path d="M12.8,9.4c-1.9,0-3.4-1.5-3.4-3.5s1.5-3.5,3.4-3.5c1.9,0,3.4,1.5,3.4,3.5S14.7,9.4,12.8,9.4z M12.8,0
					C9.7,0,7.1,2.6,7.1,5.8c0,2.3,2.8,7.4,4.5,10.1c0.5,0.9,1.8,0.9,2.4,0c1.7-2.8,4.5-7.9,4.5-10.1C18.5,2.6,15.9,0,12.8,0z"/>
				<path d="M14.7,5.9c0,0.3,0,0.5-0.1,0.7s-0.2,0.4-0.4,0.6c-0.2,0.2-0.4,0.3-0.6,0.4c-0.2,0.1-0.5,0.1-0.7,0.1
					c-0.2,0-0.5,0-0.7-0.1c-0.2-0.1-0.4-0.2-0.6-0.4c-0.2-0.2-0.3-0.4-0.4-0.6c-0.1-0.2-0.1-0.5-0.1-0.7s0-0.5,0.1-0.7
					c0.1-0.2,0.2-0.4,0.4-0.6c0.2-0.2,0.4-0.3,0.6-0.4C12.3,4.1,12.5,4,12.8,4c0.2,0,0.5,0,0.7,0.1c0.2,0.1,0.4,0.2,0.6,0.4
					c0.2,0.2,0.3,0.4,0.4,0.6C14.6,5.4,14.7,5.7,14.7,5.9z"/>
				<path d="M14.2,17.7c-0.6,1.1-2.1,1.1-2.7,0c-0.9-1.6-2.2-3.8-3.2-5.9V30c0,0.1,0,0.1,0.1,0.2l6.6,5.6c0.2,0.1,0.4,0,0.4-0.2v-20
					C14.9,16.4,14.5,17.1,14.2,17.7z"/>
				<path d="M6.9,9.4c-0.1,0-0.1,0-0.2,0.1l-6.6,5.6C0,15.2,0,15.2,0,15.3v20.3c0,0.2,0.2,0.3,0.4,0.2L7,30.2c0.1,0,0.1-0.1,0.1-0.2
					v-20C7.1,9.8,7,9.6,6.9,9.4z"/>
			</g>
		</g>
	</g>
</g>
</svg>
