<?xml version="1.0" encoding="utf-8"?>
<!-- Generator: Adobe Illustrator 22.1.0, SVG Export Plug-In . SVG Version: 6.00 Build 0)  -->
<svg version="1.1" id="Layer_1" xmlns="http://www.w3.org/2000/svg" xmlns:xlink="http://www.w3.org/1999/xlink" x="0px" y="0px"
	 viewBox="0 0 21.1 21.1" style="enable-background:new 0 0 21.1 21.1;" xml:space="preserve">
<style type="text/css">
	.st0{fill-rule:evenodd;clip-rule:evenodd;fill:#000000;}
	.st1{fill:#000000;}
	.st2{fill:#FFFFFF;}
	.st3{fill:#FFFFFF;}
	.st4{fill:#FFFFFF;}
</style>
<g>
	<g>
		<path class="st3" d="M15.5,0h-10C2.5,0,0,2.5,0,5.6v1.2c0,1,0.8,1.9,1.9,1.9h2.5c1,0,1.9-0.8,1.9-1.9V5.6c0-0.3,0.3-0.6,0.6-0.6
			h7.5c0.3,0,0.6,0.3,0.6,0.6v1.2c0,1,0.8,1.9,1.9,1.9h2.5c1,0,1.9-0.8,1.9-1.9V5.6C21.1,2.5,18.6,0,15.5,0L15.5,0z M4.9,6.8
			c0,0.3-0.3,0.6-0.6,0.6H1.9c-0.3,0-0.6-0.3-0.6-0.6V6.2h3.7V6.8z M14.3,3.7H6.8C6,3.7,5.3,4.2,5.1,4.9H1.3
			c0.3-2.1,2.1-3.7,4.3-3.7h10c2.2,0,4,1.6,4.3,3.7h-3.8C15.8,4.2,15.1,3.7,14.3,3.7L14.3,3.7z M19.9,6.8c0,0.3-0.3,0.6-0.6,0.6
			h-2.5c-0.3,0-0.6-0.3-0.6-0.6V6.2h3.7V6.8z M19.9,6.8"/>
		<path class="st3" d="M19.6,17.3c-3.4-8.2-3.2-7.7-3.2-7.8c-0.3-0.6-0.9-0.9-1.6-0.9h-1.2V8c0-1-0.8-1.9-1.9-1.9H9.3
			C8.3,6.2,7.4,7,7.4,8v0.6H6.3c-0.8,0-1.5,0.5-1.6,1l-3.2,7.7c-0.2,0.4-0.2,0.8-0.2,1.2v0.7c0,1,0.8,1.9,1.9,1.9H18
			c1,0,1.9-0.8,1.9-1.9v-0.7C19.9,18.1,19.8,17.7,19.6,17.3L19.6,17.3z M8.7,8c0-0.3,0.3-0.6,0.6-0.6h2.6c0.3,0,0.6,0.3,0.6,0.6v0.6
			H8.7V8z M18.6,19.3c0,0.3-0.3,0.6-0.6,0.6H3.1c-0.3,0-0.6-0.3-0.6-0.6v-0.7c0-0.2,0-0.5,0.1-0.7l3.1-7.6C5.9,10,6.1,9.9,6.3,9.9
			c0.2,0,8.1,0,8.6,0c0.2,0,0.4,0.1,0.5,0.3l3.1,7.6c0.1,0.2,0.1,0.5,0.1,0.7V19.3z M18.6,19.3"/>
		<path class="st3" d="M10.6,11.1c-2,0-3.7,1.7-3.7,3.7s1.7,3.7,3.7,3.7c2,0,3.7-1.7,3.7-3.7S12.6,11.1,10.6,11.1L10.6,11.1z
			 M10.6,17.3c-1.4,0-2.5-1.1-2.5-2.5s1.1-2.5,2.5-2.5s2.5,1.1,2.5,2.5S12,17.3,10.6,17.3L10.6,17.3z M10.6,17.3"/>
		<path class="st3" d="M10.6,13.6c-0.7,0-1.2,0.6-1.2,1.2c0,0.7,0.6,1.2,1.2,1.2c0.7,0,1.2-0.6,1.2-1.2
			C11.8,14.2,11.3,13.6,10.6,13.6L10.6,13.6z M10.6,13.6"/>
	</g>
</g>
</svg>
