<?xml version="1.0" encoding="utf-8"?>
<!-- Generator: Adobe Illustrator 22.1.0, SVG Export Plug-In . SVG Version: 6.00 Build 0)  -->
<svg version="1.1" id="Layer_1" xmlns="http://www.w3.org/2000/svg" xmlns:xlink="http://www.w3.org/1999/xlink" x="0px" y="0px"
	 viewBox="0 0 24.7 24.7" style="enable-background:new 0 0 24.7 24.7;" xml:space="preserve">
<style type="text/css">
	.st0{fill-rule:evenodd;clip-rule:evenodd;fill:#1C1C1C;}
	.st1{fill:#1C1C1C;}
	.st2{fill:#FFFFFF;}
	.st3{fill:#4285F4;}
	.st4{fill:#737373;}
</style>
<path class="st3" d="M12.3,0C5.5,0,0,5.5,0,12.3s5.5,12.3,12.3,12.3c6.8,0,12.3-5.5,12.3-12.3C24.7,5.5,19.1,0,12.3,0z M23,11.5
	l-2.5,0c-0.3-1.1-1.2-1.9-2.4-2.1c-0.1-0.8-0.2-1.6-0.4-2.4c0.9-0.5,1.8-1,2.6-1.7C21.9,7,22.8,9.2,23,11.5z M7.8,11.2l0.5,0L8.6,12
	l0.3-0.8l0.5,0l-0.4,1.1l0.3,0.8l0.8-1.9l0.6,0l-1.1,2.6l-0.5,0l-0.4-1.1l-0.4,1.1l-0.5,0l-1.1-2.6l0.6,0l0.8,1.9l0.3-0.8L7.8,11.2z
	 M11.9,11.2l0.5,0l0.3,0.8l0.3-0.8l0.5,0L13,12.3l0.3,0.8l0.8-1.9l0.6,0l-1.1,2.6l-0.5,0l-0.4-1.1l-0.4,1.1l-0.5,0l-1.1-2.6l0.6,0
	l0.8,1.9l0.3-0.8L11.9,11.2z M8.2,9.4c0.1-0.6,0.2-1.1,0.3-1.7c1.2,0.4,2.5,0.6,3.9,0.6c1.3,0,2.6-0.2,3.9-0.6
	c0.1,0.5,0.2,1.1,0.3,1.7L8.2,9.4z M16.5,15.3c-0.1,0.6-0.2,1.1-0.3,1.7c-1.2-0.4-2.5-0.6-3.9-0.6c-1.3,0-2.6,0.2-3.9,0.6
	c-0.1-0.5-0.2-1.1-0.3-1.7L16.5,15.3z M16.4,13.8l-0.5,0l-1.1-2.6l0.6,0l0.8,1.9l0.3-0.8L16,11.2l0.5,0l0.3,0.8l0.3-0.8l0.5,0
	l-0.4,1.1l0.3,0.8l0.8-1.9l0.6,0l-1.1,2.6l-0.5,0l-0.4-1.1L16.4,13.8z M19.2,4.2c-0.6,0.5-1.2,0.9-1.9,1.3c-0.2-0.6-0.4-1.1-0.6-1.6
	c-0.3-0.6-0.6-1.1-0.9-1.6C17.1,2.7,18.2,3.3,19.2,4.2z M12.3,1.7c1.3,0,2.6,1.7,3.4,4.4c-1.1,0.4-2.3,0.6-3.4,0.6
	c-1.2,0-2.4-0.2-3.4-0.6C9.7,3.3,11.1,1.7,12.3,1.7z M8.8,2.3C8.5,2.7,8.2,3.3,8,3.9c-0.2,0.5-0.4,1-0.6,1.6
	C6.7,5.1,6.1,4.7,5.5,4.2C6.5,3.3,7.6,2.7,8.8,2.3z M4.3,5.3C5.1,6,6,6.6,6.9,7.1C6.8,7.8,6.6,8.6,6.5,9.4c-1.1,0.2-2,1-2.4,2.1
	l-2.5,0C1.9,9.2,2.8,7,4.3,5.3z M1.7,13.2l2.5,0c0.3,1.1,1.2,1.9,2.4,2.1c0.1,0.8,0.2,1.6,0.4,2.4c-0.9,0.5-1.8,1-2.6,1.7
	C2.8,17.7,1.9,15.5,1.7,13.2z M5.5,20.5c0.6-0.5,1.2-0.9,1.9-1.3c0.2,0.6,0.4,1.1,0.6,1.6c0.3,0.6,0.6,1.1,0.9,1.6
	C7.6,22,6.5,21.3,5.5,20.5z M12.3,23c-1.3,0-2.6-1.7-3.4-4.4c1.1-0.4,2.3-0.6,3.4-0.6c1.2,0,2.4,0.2,3.4,0.6
	C14.9,21.3,13.6,23,12.3,23z M15.9,22.4c0.3-0.5,0.6-1,0.9-1.6c0.2-0.5,0.4-1,0.6-1.6c0.7,0.4,1.3,0.8,1.9,1.3
	C18.2,21.3,17.1,22,15.9,22.4z M20.4,19.3c-0.8-0.7-1.7-1.3-2.6-1.7c0.2-0.8,0.3-1.5,0.4-2.4c1.1-0.2,2-1,2.4-2.1l2.5,0
	C22.8,15.5,21.9,17.7,20.4,19.3z"/>
</svg>
