<?xml version="1.0" encoding="utf-8"?>
<!-- Generator: Adobe Illustrator 22.1.0, SVG Export Plug-In . SVG Version: 6.00 Build 0)  -->
<svg version="1.1" id="Layer_1" xmlns="http://www.w3.org/2000/svg" xmlns:xlink="http://www.w3.org/1999/xlink" x="0px" y="0px"
	 viewBox="0 0 22.7 22.3" style="enable-background:new 0 0 22.7 22.3;" xml:space="preserve">
<style type="text/css">
	.st0{fill-rule:evenodd;clip-rule:evenodd;fill:#1C1C1C;}
	.st1{fill:#1C1C1C;}
	.st2{fill:#FFFFFF;}
	.st3{fill:#4285F4;}
	.st4{fill:#737373;}
</style>
<g>
	<path class="st0" d="M21.6,16.5H1.2c-0.7,0-1.2,0.5-1.2,1.2v3.4c0,0.7,0.5,1.2,1.2,1.2h20.4c0.7,0,1.2-0.5,1.2-1.2v-3.4
		C22.7,17.1,22.2,16.5,21.6,16.5z M2.6,20.1c-0.4,0-0.7-0.3-0.7-0.7c0-0.4,0.3-0.7,0.7-0.7c0.4,0,0.7,0.3,0.7,0.7
		C3.3,19.8,3,20.1,2.6,20.1z M4.8,20.1c-0.4,0-0.7-0.3-0.7-0.7c0-0.4,0.3-0.7,0.7-0.7c0.4,0,0.7,0.3,0.7,0.7
		C5.5,19.8,5.2,20.1,4.8,20.1z M7.1,20.1c-0.4,0-0.7-0.3-0.7-0.7c0-0.4,0.3-0.7,0.7-0.7c0.4,0,0.7,0.3,0.7,0.7
		C7.8,19.8,7.5,20.1,7.1,20.1z M9.4,20.1c-0.4,0-0.7-0.3-0.7-0.7c0-0.4,0.3-0.7,0.7-0.7c0.4,0,0.7,0.3,0.7,0.7
		C10.1,19.8,9.8,20.1,9.4,20.1z M11.7,20.1c-0.4,0-0.7-0.3-0.7-0.7c0-0.4,0.3-0.7,0.7-0.7s0.7,0.3,0.7,0.7
		C12.4,19.8,12,20.1,11.7,20.1z"/>
	<path class="st0" d="M11.8,0.1c0.2-0.2,0.5-0.2,0.7,0c1.3,1.5,2.1,3.5,2.1,5.7c0,2.2-0.8,4.2-2.1,5.7c-0.2,0.2-0.5,0.2-0.7,0l0,0
		c-0.2-0.2-0.2-0.5,0-0.7c1.2-1.3,1.9-3.1,1.9-5c0-1.9-0.7-3.7-1.9-5C11.6,0.6,11.6,0.3,11.8,0.1L11.8,0.1z"/>
	<path class="st0" d="M8.2,3.8c0.2-0.2,0.6-0.2,0.7,0c0.4,0.6,0.6,1.3,0.6,2c0,0.7-0.2,1.4-0.6,2c-0.2,0.2-0.5,0.3-0.7,0l0,0
		C8,7.7,8,7.5,8.1,7.3c0.3-0.4,0.5-0.9,0.5-1.4c0-0.5-0.2-1-0.5-1.4C8,4.2,8,3.9,8.2,3.8L8.2,3.8z"/>
	<path class="st0" d="M9.9,2.1c0.2-0.2,0.5-0.2,0.7,0c0.8,1,1.3,2.3,1.3,3.7c0,1.4-0.5,2.7-1.3,3.7c-0.2,0.2-0.5,0.2-0.7,0l0,0
		C9.7,9.4,9.7,9.1,9.8,9C10.6,8.1,11,7,11,5.8c0-1.2-0.4-2.3-1.1-3.1C9.7,2.5,9.7,2.2,9.9,2.1L9.9,2.1z"/>
	<path class="st0" d="M6.3,15.9h1V5.6c0-0.3-0.2-0.5-0.5-0.5H6.8c-0.3,0-0.5,0.2-0.5,0.5V15.9z"/>
	<path class="st0" d="M2.2,15.9h1V5.6c0-0.3-0.2-0.5-0.5-0.5H2.7c-0.3,0-0.5,0.2-0.5,0.5V15.9z"/>
</g>
</svg>
