<?xml version="1.0" encoding="utf-8"?>
<!-- Generator: Adobe Illustrator 22.1.0, SVG Export Plug-In . SVG Version: 6.00 Build 0)  -->
<svg version="1.1" id="Layer_1" xmlns="http://www.w3.org/2000/svg" xmlns:xlink="http://www.w3.org/1999/xlink" x="0px" y="0px"
	 viewBox="0 0 16 15.2" style="enable-background:new 0 0 16 15.2;" xml:space="preserve">
<style type="text/css">
	.st0{fill:#FFFFFF;}
	.st1{fill:#787878;}
	.st2{fill:#F8C861;}
	.st3{fill:#A73F25;}
	.st4{fill:#131E34;}
</style>
<g>
	<polygon class="st0" points="7.4,8.4 5,5.6 3.1,7.3 5.5,10.1 7.2,12 7.2,12.1 16,4.1 14.3,2.2 	"/>
	<path class="st0" d="M13,13.3l-11.1,0l0-11.4l11.1,0l0,0.3l1.5-1.4C14.2,0.3,13.6,0,13,0L1.9,0C0.8,0,0,0.9,0,1.9l0,11.4
		c0,1.1,0.8,1.9,1.9,1.9l11.1,0c1,0,1.9-0.9,1.9-1.9l0-7L13,8L13,13.3z"/>
</g>
</svg>
