<?xml version="1.0" encoding="utf-8"?>
<!-- Generator: Adobe Illustrator 22.1.0, SVG Export Plug-In . SVG Version: 6.00 Build 0)  -->
<svg version="1.1" id="Layer_1" xmlns="http://www.w3.org/2000/svg" xmlns:xlink="http://www.w3.org/1999/xlink" x="0px" y="0px"
	 viewBox="0 0 143.1 128.7" style="enable-background:new 0 0 143.1 128.7;" xml:space="preserve">
<style type="text/css">
	.st0{fill:#FFFFFF;}
	.st1{fill:#787878;}
	.st2{fill:#F8C861;}
	.st3{fill:#A73F25;}
	.st4{fill:#131E34;}
</style>
<g>
	<g>
		<path class="st1" d="M132.1,128.7H9.7c0,0,8.9-19.8,19.1-30.7C39,87,32.3,80.1,39.5,63.7c19.1-44,49.1-49.6,73.4-43.3
			c41.2,10.7-9.6,39.6,11.2,45.1C144.9,71,132.1,128.7,132.1,128.7 M63.5,14.3L63,13.9l-3.3,3.3l0.4,0.4L63.5,14.3z M59.7,18.8
			l0.4,0.4l3.3-3.3l-0.4-0.4L59.7,18.8z M27.7,14.9L27.7,14.9l0-2.9C27.6,5.4,22.2,0,15.6,0C8.9,0,3.5,5.4,3.5,12.1v5.6h0.7l2.8,9.8
			C7,27.8,7.4,28,7.8,27.9l1.7-0.5c0.4-0.1,0.6-0.5,0.5-0.9L6.7,14.6c-0.1-0.4-0.5-0.6-0.9-0.5l-1,0.3v-1.8c0-6,4.9-9.9,10.8-9.9
			c6,0,10.8,3.9,10.8,9.9v2L26,14.4c-0.4-0.1-0.8,0.1-0.9,0.5l-3.4,11.9c-0.1,0.4,0.1,0.8,0.5,0.9l1.7,0.5c0.4,0.1,0.8-0.1,0.9-0.5
			l3.4-11.9C28.3,15.4,28,15,27.7,14.9z M3.5,51.9v-5.4h2.9v5.4c0,0.2-0.2,0.3-0.3,0.3H3.9C3.7,52.3,3.5,52.1,3.5,51.9z M24.3,63.2
			H11c-0.5,0-1-0.4-1-1v-1.7c0-0.5,0.4-1,1-1h13.3c0.5,0,1,0.4,1,1v1.7C25.2,62.8,24.8,63.2,24.3,63.2z"/>
	</g>
	<g>
		<path class="st2" d="M11.6,43.2h-0.3V42h1.5v3.3h-1.2V43.2 M13.4,45.3h1.2v-2.1h0.2v2.1h1.1c0.3,0,0.6-0.1,0.8-0.3
			c0.2-0.2,0.3-0.5,0.3-0.8c0-0.2-0.1-0.5-0.2-0.6c0.1-0.2,0.2-0.4,0.2-0.5c0-0.3-0.1-0.6-0.3-0.8c-0.2-0.2-0.5-0.3-1-0.3h-2.8v1.2
			h0.4V45.3z M62.6,30.7V33c0,0.2,0.1,0.3,0.2,0.5c0.1,0.1,0.3,0.2,0.5,0.2h2.2c0.2,0,0.3-0.1,0.5-0.2c0.1-0.1,0.2-0.3,0.2-0.5v-4.2
			c0-0.2-0.1-0.3-0.2-0.5c0,0-0.1-0.1-0.1-0.1c-0.3,0.2-0.6,0.4-0.8,0.6h0.5V33h-2.1v-2.8C63,30.3,62.8,30.5,62.6,30.7z M68.1,33
			c-0.1,0-0.2,0-0.2,0.1c-0.1,0.1-0.1,0.1-0.1,0.2c0,0.1,0,0.2,0.1,0.3c0.1,0.1,0.2,0.1,0.2,0.1h2.8c0.1,0,0.2,0,0.2-0.1
			c0.1-0.1,0.1-0.2,0.1-0.2v-1.8c0-0.1,0-0.2-0.1-0.2c-0.1-0.1-0.2-0.1-0.2-0.1c-0.1,0-0.2,0-0.2,0.1c-0.1,0.1-0.1,0.2-0.1,0.2V33
			h-0.7v-4.8h-1.8c-0.1,0-0.2,0-0.2,0.1c-0.1,0.1-0.1,0.2-0.1,0.2s0,0.2,0.1,0.2c0.1,0.1,0.2,0.1,0.2,0.1h1.1V33H68.1z M75.7,33H75
			v-4.8h-1.8c-0.1,0-0.2,0-0.2,0.1c-0.1,0.1-0.1,0.2-0.1,0.2s0,0.2,0.1,0.2c0.1,0.1,0.2,0.1,0.2,0.1h1.1V33h-1.1
			c-0.1,0-0.2,0-0.2,0.1c-0.1,0.1-0.1,0.1-0.1,0.2c0,0.1,0,0.2,0.1,0.3c0.1,0.1,0.2,0.1,0.2,0.1h2.8c0.1,0,0.2,0,0.2-0.1
			c0.1-0.1,0.1-0.2,0.1-0.2v-1.8c0-0.1,0-0.2-0.1-0.2c-0.1-0.1-0.2-0.1-0.2-0.1c-0.1,0-0.2,0-0.2,0.1c-0.1,0.1-0.1,0.2-0.1,0.2V33z
			 M78.1,28.8c0-0.2,0.1-0.3,0.2-0.5c0.1-0.1,0.3-0.2,0.5-0.2h2.2c0.2,0,0.3,0.1,0.5,0.2c0.1,0.1,0.2,0.3,0.2,0.5V33
			c0,0.2-0.1,0.3-0.2,0.5c-0.1,0.1-0.3,0.2-0.5,0.2h-2.2c-0.2,0-0.3-0.1-0.5-0.2c-0.1-0.1-0.2-0.3-0.2-0.5V28.8z M78.8,33h2.1v-4.1
			h-2.1V33z M83.4,33.5c-0.1-0.1-0.2-0.3-0.2-0.5v-4.2c0-0.2,0.1-0.3,0.2-0.5c0.1-0.1,0.3-0.2,0.5-0.2h2.2c0.2,0,0.3,0.1,0.5,0.2
			c0.1,0.1,0.2,0.3,0.2,0.5V33c0,0.2-0.1,0.3-0.2,0.5c-0.1,0.1-0.3,0.2-0.5,0.2h-2.2C83.7,33.7,83.6,33.6,83.4,33.5z M83.9,33h2.1
			v-4.1h-2.1V33z M88.6,33.5c-0.1-0.1-0.2-0.3-0.2-0.5v-4.2c0-0.2,0.1-0.3,0.2-0.5c0.1-0.1,0.3-0.2,0.5-0.2h2.2
			c0.2,0,0.3,0.1,0.5,0.2c0.1,0.1,0.2,0.3,0.2,0.5V33c0,0.2-0.1,0.3-0.2,0.5c-0.1,0.1-0.3,0.2-0.5,0.2h-2.2
			C88.9,33.7,88.7,33.6,88.6,33.5z M89.1,33h2.1v-4.1h-2.1V33z M93.9,33c-0.1,0-0.2,0-0.2,0.1c-0.1,0.1-0.1,0.1-0.1,0.2
			c0,0.1,0,0.2,0.1,0.3c0.1,0.1,0.2,0.1,0.2,0.1h2.8c0.1,0,0.2,0,0.2-0.1c0.1-0.1,0.1-0.2,0.1-0.2v-1.8c0-0.1,0-0.2-0.1-0.2
			c-0.1-0.1-0.2-0.1-0.2-0.1c-0.1,0-0.2,0-0.2,0.1c-0.1,0.1-0.1,0.2-0.1,0.2V33h-0.7v-4.6H98c0.2,0,0.4-0.2,0.4-0.4v-0.4h-3.3V28
			c0,0,0,0.1,0,0.1h-1.2c-0.1,0-0.2,0-0.2,0.1c-0.1,0.1-0.1,0.2-0.1,0.2s0,0.2,0.1,0.2c0.1,0.1,0.2,0.1,0.2,0.1H95V33H93.9z
			 M98.9,33.5c-0.1-0.1-0.2-0.3-0.2-0.5v-4.2c0-0.2,0.1-0.3,0.2-0.5c0.1-0.1,0.3-0.2,0.5-0.2h2.2c0.2,0,0.3,0.1,0.5,0.2
			c0.1,0.1,0.2,0.3,0.2,0.5V33c0,0.2-0.1,0.3-0.2,0.5c-0.1,0.1-0.3,0.2-0.5,0.2h-2.2C99.2,33.7,99.1,33.6,98.9,33.5z M99.4,33h2.1
			v-4.1h-2.1V33z M86.3,35.4c0.2,0,0.3,0.1,0.5,0.2c0.1,0.1,0.2,0.3,0.2,0.5v4.2c0,0.2-0.1,0.3-0.2,0.5c-0.1,0.1-0.3,0.2-0.5,0.2
			h-2.2c-0.2,0-0.3-0.1-0.5-0.2c-0.1-0.1-0.2-0.3-0.2-0.5v-4.2c0-0.2,0.1-0.3,0.2-0.5c0.1-0.1,0.3-0.2,0.5-0.2H86.3z M86.3,36.1
			h-2.1v4.1h2.1V36.1z M91.6,38.5c-0.1,0.1-0.1,0.2-0.1,0.2v1.5h-0.7v-4.8H89c-0.1,0-0.2,0-0.2,0.1c-0.1,0.1-0.1,0.2-0.1,0.2
			c0,0.1,0,0.2,0.1,0.2c0.1,0.1,0.1,0.1,0.2,0.1H90v4.1H89c-0.1,0-0.2,0-0.2,0.1c-0.1,0.1-0.1,0.1-0.1,0.2c0,0.1,0,0.2,0.1,0.3
			c0.1,0.1,0.2,0.1,0.2,0.1h2.8c0.1,0,0.2,0,0.2-0.1c0.1-0.1,0.1-0.2,0.1-0.2v-1.8c0-0.1,0-0.2-0.1-0.2c-0.1-0.1-0.2-0.1-0.2-0.1
			C91.7,38.4,91.6,38.5,91.6,38.5z M94.1,40.2c-0.1,0-0.2,0-0.2,0.1c-0.1,0.1-0.1,0.1-0.1,0.2c0,0.1,0,0.2,0.1,0.3
			c0.1,0.1,0.2,0.1,0.2,0.1H97c0.1,0,0.2,0,0.2-0.1c0.1-0.1,0.1-0.2,0.1-0.2v-1.8c0-0.1,0-0.2-0.1-0.2c-0.1-0.1-0.2-0.1-0.2-0.1
			c-0.1,0-0.2,0-0.2,0.1c-0.1,0.1-0.1,0.2-0.1,0.2v1.5h-0.7v-4.8h-1.8c-0.1,0-0.2,0-0.2,0.1c-0.1,0.1-0.1,0.2-0.1,0.2
			c0,0.1,0,0.2,0.1,0.2c0.1,0.1,0.2,0.1,0.2,0.1h1.1v4.1H94.1z M101.8,35.4c0.2,0,0.3,0.1,0.5,0.2c0.1,0.1,0.2,0.3,0.2,0.5v4.2
			c0,0.2-0.1,0.3-0.2,0.5c-0.1,0.1-0.3,0.2-0.5,0.2h-2.2c-0.2,0-0.3-0.1-0.5-0.2C99,40.6,99,40.4,99,40.3v-4.2
			c0-0.2,0.1-0.3,0.2-0.5c0.1-0.1,0.3-0.2,0.5-0.2H101.8z M101.8,36.1h-2.1v4.1h2.1V36.1z M107.6,40.8c0.1-0.1,0.1-0.2,0.1-0.2v-1.8
			c0-0.1,0-0.2-0.1-0.2c-0.1-0.1-0.2-0.1-0.2-0.1c-0.1,0-0.2,0-0.2,0.1c-0.1,0.1-0.1,0.2-0.1,0.2v1.5h-0.7v-4.8h-1.8
			c-0.1,0-0.2,0-0.2,0.1c-0.1,0.1-0.1,0.2-0.1,0.2c0,0.1,0,0.2,0.1,0.2c0.1,0.1,0.2,0.1,0.2,0.1h1.1v4.1h-1.1c-0.1,0-0.2,0-0.2,0.1
			c-0.1,0.1-0.1,0.1-0.1,0.2c0,0.1,0,0.2,0.1,0.3c0.1,0.1,0.2,0.1,0.2,0.1h2.8C107.4,40.9,107.5,40.9,107.6,40.8z M112.2,40.9H110
			c-0.2,0-0.3-0.1-0.5-0.2c-0.1-0.1-0.2-0.3-0.2-0.5v-4.2c0-0.2,0.1-0.3,0.2-0.5c0.1-0.1,0.3-0.2,0.5-0.2h2.2c0.2,0,0.3,0.1,0.5,0.2
			c0.1,0.1,0.2,0.3,0.2,0.5v4.2c0,0.2-0.1,0.3-0.2,0.5C112.5,40.9,112.3,40.9,112.2,40.9z M112.1,36.1H110v4.1h2.1V36.1z
			 M117.4,38.5c-0.1,0.1-0.1,0.2-0.1,0.2v1.5h-0.7v-4.8h-1.8c-0.1,0-0.2,0-0.2,0.1c-0.1,0.1-0.1,0.2-0.1,0.2c0,0.1,0,0.2,0.1,0.2
			c0.1,0.1,0.2,0.1,0.2,0.1h1.1v4.1h-1.1c-0.1,0-0.2,0-0.2,0.1c-0.1,0.1-0.1,0.1-0.1,0.2c0,0.1,0,0.2,0.1,0.3
			c0.1,0.1,0.2,0.1,0.2,0.1h2.8c0.1,0,0.2,0,0.2-0.1c0.1-0.1,0.1-0.2,0.1-0.2v-1.8c0-0.1,0-0.2-0.1-0.2c-0.1-0.1-0.2-0.1-0.2-0.1
			C117.6,38.4,117.5,38.5,117.4,38.5z M122.5,40.9h-2.2c-0.2,0-0.3-0.1-0.5-0.2c-0.1-0.1-0.2-0.3-0.2-0.5v-4.2
			c0-0.2,0.1-0.3,0.2-0.5c0.1-0.1,0.3-0.2,0.5-0.2h2.2c0.2,0,0.3,0.1,0.5,0.2c0.1,0.1,0.2,0.3,0.2,0.5v4.2c0,0.2-0.1,0.3-0.2,0.5
			C122.8,40.9,122.7,40.9,122.5,40.9z M122.5,36.1h-2.1v4.1h2.1V36.1z M64.1,50.6c-0.1-0.1-0.2-0.3-0.2-0.5v-4.2
			c0-0.2,0.1-0.3,0.2-0.5c0.1-0.1,0.3-0.2,0.5-0.2h2.2c0.2,0,0.3,0.1,0.5,0.2c0.1,0.1,0.2,0.3,0.2,0.5v4.2c0,0.2-0.1,0.3-0.2,0.5
			c-0.1,0.1-0.3,0.2-0.5,0.2h-2.2C64.4,50.8,64.2,50.7,64.1,50.6z M64.6,50.1h2.1v-4.1h-2.1V50.1z M69.4,50.1c-0.1,0-0.2,0-0.2,0.1
			c-0.1,0.1-0.1,0.1-0.1,0.2c0,0.1,0,0.2,0.1,0.3c0.1,0.1,0.2,0.1,0.2,0.1h2.8c0.1,0,0.2,0,0.2-0.1c0.1-0.1,0.1-0.2,0.1-0.2v-1.8
			c0-0.1,0-0.2-0.1-0.2c-0.1-0.1-0.2-0.1-0.2-0.1c-0.1,0-0.2,0-0.2,0.1c-0.1,0.1-0.1,0.2-0.1,0.2v1.5h-0.7v-4.8h-1.8
			c-0.1,0-0.2,0-0.2,0.1c-0.1,0.1-0.1,0.2-0.1,0.2c0,0.1,0,0.2,0.1,0.2c0.1,0.1,0.1,0.1,0.2,0.1h1.1v4.1H69.4z M74.6,50.1
			c-0.1,0-0.2,0-0.2,0.1c-0.1,0.1-0.1,0.1-0.1,0.2c0,0.1,0,0.2,0.1,0.3c0.1,0.1,0.2,0.1,0.2,0.1h2.8c0.1,0,0.2,0,0.2-0.1
			c0.1-0.1,0.1-0.2,0.1-0.2v-1.8c0-0.1,0-0.2-0.1-0.2c-0.1-0.1-0.2-0.1-0.2-0.1c-0.1,0-0.2,0-0.2,0.1c-0.1,0.1-0.1,0.2-0.1,0.2v1.5
			h-0.7v-4.8h-1.8c-0.1,0-0.2,0-0.2,0.1c-0.1,0.1-0.1,0.2-0.1,0.2c0,0.1,0,0.2,0.1,0.2c0.1,0.1,0.2,0.1,0.2,0.1h1.1v4.1H74.6z
			 M80.1,45.2h2.2c0.2,0,0.3,0.1,0.5,0.2c0.1,0.1,0.2,0.3,0.2,0.5v4.2c0,0.2-0.1,0.3-0.2,0.5c-0.1,0.1-0.3,0.2-0.5,0.2h-2.2
			c-0.2,0-0.3-0.1-0.5-0.2c-0.1-0.1-0.2-0.3-0.2-0.5v-4.2c0-0.2,0.1-0.3,0.2-0.5C79.7,45.3,79.9,45.2,80.1,45.2z M80.1,50.1h2.1
			v-4.1h-2.1V50.1z M86.7,45.2h-1.8c-0.1,0-0.2,0-0.2,0.1c-0.1,0.1-0.1,0.2-0.1,0.2c0,0.1,0,0.2,0.1,0.2c0.1,0.1,0.2,0.1,0.2,0.1H86
			v4.1h-1.1c-0.1,0-0.2,0-0.2,0.1c-0.1,0.1-0.1,0.1-0.1,0.2c0,0.1,0,0.2,0.1,0.3c0.1,0.1,0.2,0.1,0.2,0.1h2.8c0.1,0,0.2,0,0.2-0.1
			c0.1-0.1,0.1-0.2,0.1-0.2v-1.8c0-0.1,0-0.2-0.1-0.2c-0.1-0.1-0.2-0.1-0.2-0.1c-0.1,0-0.2,0-0.2,0.1c-0.1,0.1-0.1,0.2-0.1,0.2v1.5
			h-0.7V45.2z M90.4,45.2h2.2c0.2,0,0.3,0.1,0.5,0.2c0.1,0.1,0.2,0.3,0.2,0.5v4.2c0,0.2-0.1,0.3-0.2,0.5c-0.1,0.1-0.3,0.2-0.5,0.2
			h-2.2c-0.2,0-0.3-0.1-0.5-0.2c-0.1-0.1-0.2-0.3-0.2-0.5v-4.2c0-0.2,0.1-0.3,0.2-0.5C90.1,45.3,90.2,45.2,90.4,45.2z M90.4,50.1
			h2.1v-4.1h-2.1V50.1z M95.3,50.1c-0.1,0-0.2,0-0.2,0.1c-0.1,0.1-0.1,0.1-0.1,0.2c0,0.1,0,0.2,0.1,0.3c0.1,0.1,0.2,0.1,0.2,0.1h2.8
			c0.1,0,0.2,0,0.2-0.1c0.1-0.1,0.1-0.2,0.1-0.2v-1.8c0-0.1,0-0.2-0.1-0.2c-0.1-0.1-0.2-0.1-0.2-0.1c-0.1,0-0.2,0-0.2,0.1
			c-0.1,0.1-0.1,0.2-0.1,0.2v1.5H97v-4.8h-1.8c-0.1,0-0.2,0-0.2,0.1c-0.1,0.1-0.1,0.2-0.1,0.2c0,0.1,0,0.2,0.1,0.2
			c0.1,0.1,0.2,0.1,0.2,0.1h1.1v4.1H95.3z M100.8,45.2h2.2c0.2,0,0.3,0.1,0.5,0.2c0.1,0.1,0.2,0.3,0.2,0.5v4.2
			c0,0.2-0.1,0.3-0.2,0.5c-0.1,0.1-0.3,0.2-0.5,0.2h-2.2c-0.2,0-0.3-0.1-0.5-0.2c-0.1-0.1-0.2-0.3-0.2-0.5v-4.2
			c0-0.2,0.1-0.3,0.2-0.5C100.4,45.3,100.6,45.2,100.8,45.2z M100.8,50.1h2.1v-4.1h-2.1V50.1z M109.6,65.6c0.1,0.1,0.2,0.3,0.2,0.5
			v4.2c0,0.2-0.1,0.3-0.2,0.5c-0.1,0.1-0.3,0.2-0.5,0.2h-2.2c-0.2,0-0.3-0.1-0.5-0.2c-0.1-0.1-0.2-0.3-0.2-0.5v-4.2
			c0-0.2,0.1-0.3,0.2-0.5c0.1-0.1,0.3-0.2,0.5-0.2h2.2C109.3,65.4,109.5,65.5,109.6,65.6z M109.1,66.1H107v4.1h2.1V66.1z
			 M114.6,68.4c-0.1,0-0.2,0-0.2,0.1c-0.1,0.1-0.1,0.2-0.1,0.2v1.5h-0.7v-4.8h-1.8c-0.1,0-0.2,0-0.2,0.1c-0.1,0.1-0.1,0.2-0.1,0.2
			c0,0.1,0,0.2,0.1,0.2c0.1,0.1,0.2,0.1,0.2,0.1h1.1v4.1h-1.1c-0.1,0-0.2,0-0.2,0.1c-0.1,0.1-0.1,0.1-0.1,0.2c0,0.1,0,0.2,0.1,0.3
			c0.1,0.1,0.2,0.1,0.2,0.1h2.8c0.1,0,0.2,0,0.2-0.1c0.1-0.1,0.1-0.2,0.1-0.2v-1.8c0-0.1,0-0.2-0.1-0.2
			C114.8,68.5,114.7,68.4,114.6,68.4z M119.9,65.6c0.1,0.1,0.2,0.3,0.2,0.5v4.2c0,0.2-0.1,0.3-0.2,0.5c-0.1,0.1-0.3,0.2-0.5,0.2
			h-2.2c-0.2,0-0.3-0.1-0.5-0.2c-0.1-0.1-0.2-0.3-0.2-0.5v-4.2c0-0.2,0.1-0.3,0.2-0.5c0.1-0.1,0.3-0.2,0.5-0.2h2.2
			C119.7,65.4,119.8,65.5,119.9,65.6z M119.4,66.1h-2.1v4.1h2.1V66.1z M125.3,65.8c0,0.1,0,0.1,0,0.2v4.2c0,0.2-0.1,0.3-0.2,0.5
			c-0.1,0.1-0.3,0.2-0.5,0.2h-2.2c-0.2,0-0.3-0.1-0.5-0.2c-0.1-0.1-0.2-0.3-0.2-0.5v-4.2c0-0.2,0.1-0.3,0.2-0.5
			c0.1-0.1,0.3-0.2,0.5-0.2h1.4c0.1,0,0.2,0.1,0.3,0.1C124.5,65.6,124.9,65.7,125.3,65.8z M124.6,66.1h-2.1v4.1h2.1V66.1z M129.8,69
			v1.3h-0.7v-2c-0.2-0.2-0.5-0.4-0.7-0.6v2.6h-1.1c-0.1,0-0.2,0-0.2,0.1c-0.1,0.1-0.1,0.1-0.1,0.2c0,0.1,0,0.2,0.1,0.3
			c0.1,0.1,0.2,0.1,0.2,0.1h2.8c0.1,0,0.2,0,0.2-0.1c0.1-0.1,0.1-0.2,0.1-0.2v-0.8C130.2,69.5,130,69.2,129.8,69z M103.5,82.7
			c0.1,0.1,0.2,0.3,0.2,0.5v4.2c0,0.2-0.1,0.3-0.2,0.5c-0.1,0.1-0.3,0.2-0.5,0.2h-2.2c-0.2,0-0.3-0.1-0.5-0.2
			c-0.1-0.1-0.2-0.3-0.2-0.5v-4.2c0-0.2,0.1-0.3,0.2-0.5c0.1-0.1,0.3-0.2,0.5-0.2h2.2C103.2,82.5,103.3,82.5,103.5,82.7z M103,83.2
			h-2.1v4.1h2.1V83.2z M108.5,85.5c-0.1,0-0.2,0-0.2,0.1c-0.1,0.1-0.1,0.2-0.1,0.2v1.5h-0.7v-4.8h-1.8c-0.1,0-0.2,0-0.2,0.1
			c-0.1,0.1-0.1,0.2-0.1,0.2c0,0.1,0,0.2,0.1,0.2c0.1,0.1,0.2,0.1,0.2,0.1h1.1v4.1h-1.1c-0.1,0-0.2,0-0.2,0.1
			c-0.1,0.1-0.1,0.1-0.1,0.2c0,0.1,0,0.2,0.1,0.3c0.1,0.1,0.2,0.1,0.2,0.1h2.8c0.1,0,0.2,0,0.2-0.1c0.1-0.1,0.1-0.2,0.1-0.2v-1.8
			c0-0.1,0-0.2-0.1-0.2C108.7,85.5,108.6,85.5,108.5,85.5z M75.7,9.8H47.5v16.9h28.3V9.8z M77,19.4c0.6,0,1.2-0.5,1.2-1.2
			c0-0.6-0.5-1.2-1.2-1.2c-0.6,0-1.2,0.5-1.2,1.2C75.8,18.9,76.4,19.4,77,19.4z M114.8,28.4h2.6c0.2,0,0.4-0.2,0.4-0.4v-0.4h-3.3V28
			C114.4,28.2,114.6,28.4,114.8,28.4z M103.6,96.5l-0.1,1.7l-13.8,4.6l-0.4-1.4l-0.8,10.9l-2.3,0.1l0.2-1.6c0.1-0.3-0.1-0.5-0.4-0.5
			H52.9l-1.9-14.8l-7.5,8.3l-11.4-6.6L32,94.9c0-0.7,0.4-1.2,1.1-1.3l0.8-0.1l14.5-19.1l21.7-8.2l21.2,7.1l4.4,9.2h2.1
			c0.2,0,0.3,0.1,0.5,0.2c0.1,0.1,0.2,0.3,0.2,0.5v4.2c0,0.2-0.1,0.3-0.2,0.5l3.5,7.2l1,0.3C103.3,95.5,103.6,96,103.6,96.5z
			 M96.1,83.2l1.7,3.6v-3.6H96.1z M72.7,97.7c0-1.8-1.7-3.3-3.9-3.3c-2.2,0-3.9,1.5-3.9,3.3c0,1.8,1.7,3.3,3.9,3.3
			C71,101,72.7,99.5,72.7,97.7z M22.7,101.2H8.4c-0.3,0-0.5,0.2-0.5,0.5v1.1h1.1l1,10.6h11.2l1-10.6h1.1v-1.1
			C23.2,101.4,23,101.2,22.7,101.2z"/>
		<path class="st3" d="M100.9,114.3l-14.7-1.8l0.2-1.8c0.1-0.3-0.1-0.5-0.4-0.5H75.7l0.3-7.1l15.5,0.7l-0.7-1.3l11.2-3.7l3.5,7.7
			l0.3,0.6C107,109.6,103.7,114.4,100.9,114.3 M42.7,103.2l-9.6-5.6l-4.2,6l0,0l-1.6,2.4c-1.6,2.4,0.9,7.7,3.7,8l25.5,0.6l0.1-1.3
			h-7.4l-0.2-2.4c-0.1-0.4,0.2-0.8,0.5-0.8h7.4l0.4-3.6L41.4,105L42.7,103.2z M75.6,64.8v3.5l1.7,1.3c0,0-5.8,6.4-7.9,6.4
			c-2.1,0-7.8-5.9-7.8-5.9l1.9-1.4v-3.5c-0.8-0.9-1.4-2-1.4-3.4L61.9,58c-1.1,0.1-2.9-3.1-2-4.7c0.5-0.9,1.3-0.3,1.8,0.5L61.5,49
			c-0.1-1.7,1.3-3.1,2.9-3.1h9.8c1.7,0,3,1.4,2.9,3.1l-0.2,6.1c0.4-1,1.2-3,2-1.7c1,1.6-1.1,5.1-2.2,4.6l-0.2,3.8
			C76.6,63,76.2,64,75.6,64.8z"/>
	</g>
	<path class="st4" d="M20.9,25.8l3-10.5c0.1-0.5,0.6-0.7,1.1-0.6l0.1,0c0,0.1-0.1,0.1-0.1,0.2l-3.4,11.9c0,0,0,0.1,0,0.1l-0.2,0
		C21,26.8,20.8,26.3,20.9,25.8 M24.8,27.8l0.5,0.1c0.2,0.1,0.5,0,0.7-0.1c0.8-0.5,2.6-2.1,3.5-5.3c1-3.9,0.1-5.7-0.3-6.3
		c-0.1-0.1-0.3-0.2-0.4-0.3l-0.5-0.2c0,0,0,0,0,0.1L24.8,27.8C24.8,27.7,24.8,27.8,24.8,27.8z M10,26.5c0,0,0,0.1,0,0.1l0.2,0
		c0.5-0.1,0.8-0.6,0.6-1.1L7.8,15c-0.1-0.5-0.6-0.7-1.1-0.6l-0.1,0c0,0.1,0.1,0.1,0.1,0.2L10,26.5z M5.8,27.5
		c0.2,0.1,0.5,0.2,0.7,0.1L7,27.5c0,0,0-0.1,0-0.1L3.6,15.5c0,0,0,0,0-0.1l-0.5,0.2c-0.2,0.1-0.3,0.2-0.4,0.3
		c-0.4,0.6-1.4,2.4-0.3,6.3C3.2,25.4,5,27,5.8,27.5z M16.1,43.2c0-0.1,0-0.2-0.1-0.2c-0.1,0-0.2-0.1-0.3-0.1v0.6
		C16,43.4,16.1,43.3,16.1,43.2z M15.7,43.9L15.7,43.9l-0.1,0.6c0.2,0,0.3,0,0.3-0.1c0.1,0,0.1-0.1,0.1-0.2
		C16.2,44,16,43.9,15.7,43.9z M24.9,62.6h-2.5c0,0,0.1,0.1,0.1,0.2v3.8c0,0.9-0.4,1.8-1,2.5c-0.6,0.6-1.5,1-2.4,1c0,0,0,0-0.1,0
		L8.2,69.8c-1.8,0-3.3-1.5-3.4-3.3L4.7,53H3.6c-0.2,0-0.3-0.2-0.3-0.3v-4h1.6v-1.5h0.3v1.5h1.6v4c0,0.2-0.2,0.3-0.3,0.3H5.3
		l0.1,13.5c0,1.5,1.3,2.7,2.8,2.7L19,69.4c0.8,0,1.5-0.3,2-0.8c0.5-0.5,0.8-1.3,0.8-2v-3.8c0-0.1,0-0.1,0.1-0.2H10.6
		c-0.6,0-1.1-0.5-1.1-1.1V42c0-0.6,0.5-1.1,1.1-1.1h14.3c0.6,0,1.1,0.5,1.1,1.1v19.5C26,62.1,25.5,62.6,24.9,62.6z M12.5,42.3h-0.9
		v0.6h0.3V45h0.6V42.3z M14.7,42.3h-1.5V43h0.4V45h0.6V43h0.4V42.3z M16.8,44.3c0-0.3-0.1-0.5-0.4-0.6c0.2-0.1,0.3-0.3,0.3-0.6
		c0-0.2-0.1-0.4-0.2-0.5c-0.2-0.1-0.4-0.2-0.8-0.2h-0.6V45h0.8c0.3,0,0.5-0.1,0.6-0.2C16.7,44.7,16.8,44.5,16.8,44.3z M5.4,47.1v0.5
		h0.5v-0.5H5.4z M3.9,47.1v0.5h0.5v-0.5H3.9z M44.3,26.4V10.1c0-0.9,0.8-1.7,1.7-1.7h31.1c0.9,0,1.7,0.8,1.7,1.7v16.3
		c0,0.9-0.8,1.7-1.7,1.7H46C45.1,28.1,44.3,27.3,44.3,26.4z M76.1,18.2c0,0.5,0.4,0.9,0.9,0.9c0.5,0,0.9-0.4,0.9-0.9
		c0-0.5-0.4-0.9-0.9-0.9C76.5,17.4,76.1,17.8,76.1,18.2z M47.8,26.4h27.6V10.1H47.8V26.4z M93.7,25.9h-0.8v-4.7h0.8v-1.1
		c0-0.2,0.2-0.4,0.4-0.4h4.3l8-2c0.3-0.1,0.6,0.1,0.6,0.4l0.1,0.5c0.1,0.3-0.1,0.6-0.4,0.6l-1.8,0.5h9.1V8.9c0-0.3,0.2-0.5,0.5-0.5
		h0.6c0.3,0,0.5,0.2,0.5,0.5v10.8h2.8c0.2,0,0.4,0.2,0.4,0.4v1.1h0.7v4.7h-0.7v1.4c0,0.2-0.2,0.4-0.4,0.4H94.1
		c-0.2,0-0.4-0.2-0.4-0.4V25.9z M98.5,23.6c0-0.4-0.4-0.8-0.8-0.8c-0.4,0-0.8,0.4-0.8,0.8s0.4,0.8,0.8,0.8
		C98.2,24.5,98.5,24.1,98.5,23.6z M113.3,23.6c0,0.4,0.4,0.8,0.8,0.8c0.4,0,0.8-0.4,0.8-0.8s-0.4-0.8-0.8-0.8
		C113.6,22.8,113.3,23.2,113.3,23.6z M110,23.6c0,0.4,0.4,0.8,0.8,0.8c0.4,0,0.8-0.4,0.8-0.8s-0.4-0.8-0.8-0.8
		C110.4,22.8,110,23.2,110,23.6z M106.9,23.6c0,0.4,0.4,0.8,0.8,0.8c0.4,0,0.8-0.4,0.8-0.8s-0.4-0.8-0.8-0.8
		C107.2,22.8,106.9,23.2,106.9,23.6z M62.8,64.4C62.8,64.4,62.8,64.4,62.8,64.4C62.8,64.4,62.8,64.4,62.8,64.4L62.8,64.4z
		 M69.1,70.9c1.1,0.3,5.5-4.1,6.4-6c-1.2,1.4-3.2,2.2-5.4,2.2h-1.5c-1.9,0-3.7-0.6-4.9-1.7C65.2,67.2,68.2,70.7,69.1,70.9z
		 M73.2,55.3c-0.3,0-0.6,0.4-0.6,0.9c0,0.5,0.3,0.9,0.6,0.9c0.3,0,0.6-0.4,0.6-0.9C73.7,55.7,73.5,55.3,73.2,55.3z M66.1,55.3
		c-0.3,0-0.6,0.4-0.6,0.9c0,0.5,0.3,0.9,0.6,0.9s0.6-0.4,0.6-0.9C66.6,55.7,66.4,55.3,66.1,55.3z M70.4,61.1c0.7-0.2-0.3-2.1-0.8-3
		c-0.1-0.2-0.4-0.2-0.4,0c-0.3,0.8-1,2.5-1,2.9C68.2,61.4,69.5,61.4,70.4,61.1z M141.3,114.3H88.9l0.2-1.9c0.1-0.3-0.1-0.5-0.4-0.5
		H46.7c-0.4,0-0.7,0.4-0.6,0.8l0.2,1.7H20l0.4-0.9h-10l0.4,0.9H1.8c-1,0-1.8,0.8-1.8,1.8v2.4c0,1,0.8,1.8,1.8,1.8h10.1v8.5h118.9
		v-8.5h10.5c1,0,1.8-0.8,1.8-1.8v-2.4C143.1,115.1,142.3,114.3,141.3,114.3z M86.5,83.1c0.1-3.5,1.4-6.2,1.5-6.3
		c0.1-0.2,0.3-0.2,0.4-0.1c0.1,0.1,0.2,0.3,0.1,0.4c0,0-1.3,2.7-1.4,6h1.1c0.8,0,1.4,0.7,1.4,1.5L88.8,110c0,0.8-0.6,1.4-1.4,1.4H49
		c-0.8,0-1.4-0.6-1.4-1.4l-0.8-25.4c0-0.8,0.6-1.5,1.4-1.5h2.1c0.1-1.6-1-4.1-1-4.1c-0.1-0.2,0-0.3,0.1-0.4c0.2-0.1,0.3,0,0.4,0.1
		c0,0.1,1.2,2.6,1.1,4.3h16.9l-0.1-5.5c0-0.5,0.3-1,0.8-1.3l0.5-0.3l-3.3-1.6c-0.6-0.3-1.2-0.7-1.6-0.2l-1.6,1.6
		c-0.3,0.3-0.8,0.1-0.8-0.3l-0.1-5.3c-0.1-0.9,1.9-5,1.9-5s1,6.6,5.7,10.8l1-0.6c4.5-3.7,5.4-10.6,5.4-10.6s1.8,3.9,1.7,4.8l0.3,4.8
		c0,0.4-0.5,0.7-0.8,0.4l-0.4-0.3c-0.7-0.5-1.9-0.7-2.8-0.3l-2.7,1.1v7.8H86.5z M72.7,97.7c0-1.8-1.7-3.3-3.9-3.3
		c-2.2,0-3.9,1.5-3.9,3.3c0,1.8,1.7,3.3,3.9,3.3C71,101,72.7,99.5,72.7,97.7z M122.8,100.7h1.9c0.9,0,1.6,0.6,1.8,1.4
		c0.3,1.3,0.3,2.7-0.2,4l-0.9,2.5c-0.3,0.8-1,1.3-1.8,1.3h-0.9v3.3c0,0.6-0.5,1.1-1.1,1.1h-8.9c-0.6,0-1.1-0.5-1.1-1.1V99.8h11.1
		V100.7z M122.8,102.2v6.1h0.9c0.2,0,0.3-0.1,0.4-0.2l0.9-2.5c0.4-1,0.4-2.1,0.2-3.1c0-0.2-0.2-0.3-0.4-0.3H122.8z M23.8,85.3
		c0-0.8-0.7-1.5-1.5-1.5c-0.8,0-1.5,0.7-1.5,1.5v5.1h-2v-8c0-1.1-0.9-2.1-2.1-2.1h-2c-1.1,0-2.1,0.9-2.1,2.1v11.3H11v-5.1
		c0-0.8-0.7-1.5-1.5-1.5c-0.8,0-1.5,0.7-1.5,1.5v5.2c0,1.6,1.3,2.9,2.9,2.9h1.7v4.5h6.1v-7.8h2.1c1.6,0,2.9-1.3,2.9-2.9V85.3z
		 M23.2,102.8H7.9l1.1,1.1h13.1L23.2,102.8z M112.7,12.9c0.1,0,0.1,0,0.2-0.1c0.1-0.1,0.2-0.3,0.1-0.4c-2.2-3.3-0.2-5.4-0.1-5.5
		c0.1-0.1,0.1-0.3,0-0.4c-0.1-0.1-0.3-0.1-0.4,0c0,0-2.4,2.6,0.1,6.3C112.5,12.9,112.6,12.9,112.7,12.9z M110.4,14.5
		c0.1,0.1,0.2,0.1,0.3,0.1c0.1,0,0.1,0,0.2-0.1c0.1-0.1,0.2-0.3,0.1-0.4c-3.5-5.3-0.3-8.7-0.2-8.9c0.1-0.1,0.1-0.3,0-0.4
		c-0.1-0.1-0.3-0.1-0.4,0C110.3,4.9,106.7,8.8,110.4,14.5z M108.7,15.5c0.1,0,0.1,0,0.2-0.1c0.1-0.1,0.2-0.3,0.1-0.4
		c-4.5-6.8-0.4-11.3-0.2-11.5c0.1-0.1,0.1-0.3,0-0.4c-0.1-0.1-0.3-0.1-0.4,0c0,0-4.6,5,0.1,12.2C108.5,15.5,108.6,15.5,108.7,15.5z
		 M117.2,12.7c0.1,0,0.1,0.1,0.2,0.1c0.1,0,0.2,0,0.3-0.1c2.4-3.7,0.1-6.3,0.1-6.3c-0.1-0.1-0.3-0.1-0.4,0c-0.1,0.1-0.1,0.3,0,0.4
		c0.1,0.1,2,2.2-0.1,5.5C117,12.4,117.1,12.6,117.2,12.7z M119.2,14.3c0.1,0,0.1,0.1,0.2,0.1c0.1,0,0.2,0,0.3-0.1
		c3.7-5.7,0.1-9.6,0.1-9.6c-0.1-0.1-0.3-0.1-0.4,0c-0.1,0.1-0.1,0.3,0,0.4c0.1,0.1,3.3,3.6-0.2,8.9
		C119.1,14.1,119.1,14.3,119.2,14.3z M121.2,14.8c-0.1,0.1-0.1,0.3,0.1,0.4c0.1,0,0.1,0.1,0.2,0.1c0.1,0,0.2,0,0.3-0.1
		c4.8-7.3,0.2-12.2,0.1-12.2c-0.1-0.1-0.3-0.1-0.4,0c-0.1,0.1-0.1,0.3,0,0.4C121.4,3.4,125.7,8,121.2,14.8z M78.3,43
		c1.3,2.1,1.5,5.5,0.3,10c-0.1-0.1-0.2-0.1-0.4,0l-1,2.5v2.8c0,0.3-0.3,0.6-0.6,0.6H71c-0.3,0-0.6-0.3-0.6-0.6v-2.7h-1.5v2.6
		c0,0.4-0.3,0.7-0.7,0.7h-5.5c-0.4,0-0.7-0.3-0.7-0.7v-2.5c-0.1,0-0.1-0.1-0.1-0.1l-1-2.6c-0.2-0.1-0.4-0.1-0.6,0
		c-0.8-2.4-1.6-5.7-0.6-8.2c3.4-8.9,13.8-3.1,13.8-3.1S76.8,40.6,78.3,43z M68.3,55C68.3,54.9,68.2,54.9,68.3,55l-5.5-0.1
		c0,0-0.1,0-0.1,0.1v3.2c0,0,0,0.1,0.1,0.1h5.5c0,0,0.1,0,0.1-0.1V55z M76.6,56C76.6,56,76.6,56,76.6,56l-0.1,0.1l0.1-1.2l-5.6,0
		l0,3.4l5.6,0l0,0V56z M76.8,51c0-0.6-0.6-1.1-1.2-1l-5.8,1.5c0,0-3.7-0.9-6.1-1.5c-0.9-0.2-1.8,0.5-1.8,1.4l0,2.6l0.2,0.5
		c0.1-0.2,0.3-0.3,0.6-0.3h5.5c0.4,0,0.7,0.3,0.7,0.7v0h1.5v-0.1c0-0.3,0.3-0.6,0.6-0.6h5.6c0,0,0,0,0,0L76.8,51z M90.1,100
		c0.1,0,0.1,0,0.2-0.1c3.3-3.1,10-4.5,10.1-4.5c0.2,0,0.3-0.2,0.2-0.4c0-0.2-0.2-0.3-0.4-0.2c-0.3,0.1-7,1.5-10.4,4.6
		c-0.1,0.1-0.1,0.3,0,0.4C90,100,90,100,90.1,100z M34.6,94.4c0.1,0,6.8,3.1,8.7,5.1c0.1,0.1,0.1,0.1,0.2,0.1c0.1,0,0.2,0,0.2-0.1
		c0.1-0.1,0.1-0.3,0-0.4c-2-2.2-8.6-5.1-8.9-5.3c-0.2-0.1-0.3,0-0.4,0.2C34.4,94.1,34.4,94.3,34.6,94.4z M66.8,63.4
		c0,0.2,0.1,0.3,0.3,0.3c0.1,0,1.3,0.2,2.6,0.2c0.7,0,1.5-0.1,2.1-0.2c0.2,0,0.3-0.2,0.2-0.4c0-0.2-0.2-0.3-0.4-0.2
		c-1.8,0.4-4.5,0-4.5,0C67,63.1,66.8,63.2,66.8,63.4z M65.9,53c-0.6,0-1.1,0.1-1.6,0.4c-0.1,0.1-0.2,0.3-0.1,0.4
		c0.1,0.1,0.3,0.2,0.4,0.1c0.3-0.2,0.8-0.3,1.2-0.3c0.4,0,0.8,0.2,1.1,0.4c0.1,0,0.1,0.1,0.2,0.1c0.1,0,0.2,0,0.2-0.1
		c0.1-0.1,0.1-0.3,0-0.4C66.9,53.3,66.4,53.1,65.9,53z M73.4,53c-0.6,0-1.1,0.1-1.5,0.4c-0.1,0.1-0.2,0.3-0.1,0.4
		c0.1,0.1,0.3,0.2,0.4,0.1c0.3-0.2,0.8-0.3,1.2-0.3c0.4,0,0.8,0.1,1.2,0.4c0.1,0,0.1,0.1,0.2,0.1c0.1,0,0.2,0,0.2-0.1
		c0.1-0.1,0.1-0.3-0.1-0.4C74.5,53.2,74,53,73.4,53z M10.8,107.3h8.9c0.2,0,0.3-0.1,0.3-0.3c0-0.2-0.1-0.3-0.3-0.3h-8.9
		c-0.2,0-0.3,0.1-0.3,0.3C10.5,107.2,10.6,107.3,10.8,107.3z M10.6,104.6c0-0.2-0.1-0.3-0.3-0.3c-0.2,0-0.3,0.1-0.3,0.3v0.9
		c0,0.2,0.1,0.3,0.3,0.3c0.2,0,0.3-0.1,0.3-0.3V104.6z M12,105.6v-0.9c0-0.2-0.1-0.3-0.3-0.3c-0.2,0-0.3,0.1-0.3,0.3v0.9
		c0,0.2,0.1,0.3,0.3,0.3C11.9,105.9,12,105.7,12,105.6z M13.5,105.6v-0.9c0-0.2-0.1-0.3-0.3-0.3c-0.2,0-0.3,0.1-0.3,0.3v0.9
		c0,0.2,0.1,0.3,0.3,0.3C13.4,105.9,13.5,105.7,13.5,105.6z M15,105.6v-0.9c0-0.2-0.1-0.3-0.3-0.3c-0.2,0-0.3,0.1-0.3,0.3v0.9
		c0,0.2,0.1,0.3,0.3,0.3C14.8,105.9,15,105.7,15,105.6z M16.4,105.6v-0.9c0-0.2-0.1-0.3-0.3-0.3c-0.2,0-0.3,0.1-0.3,0.3v0.9
		c0,0.2,0.1,0.3,0.3,0.3C16.3,105.9,16.4,105.7,16.4,105.6z M17.9,105.6v-0.9c0-0.2-0.1-0.3-0.3-0.3c-0.2,0-0.3,0.1-0.3,0.3v0.9
		c0,0.2,0.1,0.3,0.3,0.3C17.7,105.9,17.9,105.7,17.9,105.6z M19.3,105.6v-0.9c0-0.2-0.1-0.3-0.3-0.3c-0.2,0-0.3,0.1-0.3,0.3v0.9
		c0,0.2,0.1,0.3,0.3,0.3C19.2,105.9,19.3,105.7,19.3,105.6z M20.2,104.6v0.9c0,0.2,0.1,0.3,0.3,0.3c0.2,0,0.3-0.1,0.3-0.3v-0.9
		c0-0.2-0.1-0.3-0.3-0.3C20.3,104.3,20.2,104.5,20.2,104.6z"/>
</g>
</svg>
